<svg width="1256" height="450" fill="none" xmlns="http://www.w3.org/2000/svg"><g clip-path="url(#clip0_204_7)" stroke-width=".5" stroke-miterlimit="10"><path d="M1344.42 1109.5a862.16 862.16 0 01-184.8 75.98c-45.07 12.66-353.781 99.22-442.235-19.22-71.278-95.48 67.719-236.507-12.652-345.585-65.944-89.252-192.001-45.701-226.898-125.284-42.069-95.927 118.866-213.025 67.152-312.269a120.229 120.229 0 00-88.528-61.398c-75.54-8.441-101.624 84.063-209.175 120.505-89.533 30.352-174.396.668-205.512-10.385C-118.192 375.2-178.4 220.424-187.657 195.468" stroke="url(#paint0_linear_204_7)"/><path d="M1353.17 1100.88a843.166 843.166 0 01-184.45 74.84c-43.93 11.79-296.299 80.79-409.015 7.81a119.014 119.014 0 01-31.226-29.03c-31.517-42.69-21.304-94.22-8.494-147.96 15.958-66.221 36.948-134.924-7.848-193.87-63.016-83.127-179.91-47.943-221.036-112.903a81.197 81.197 0 01-5.515-10.429c-42.175-95.52 117.763-213.163 66.011-311.391a119.062 119.062 0 00-37.803-40.496 118.997 118.997 0 00-52.034-18.997c-28.496-2.801-50.101 8.176-71.918 24.61-36.716 27.566-72.325 69.786-139.26 90.801a273.208 273.208 0 01-70.424 11.754c-61.15 2.663-112.735-13.581-136.081-20.683a335.488 335.488 0 01-160.385-108.807 422.646 422.646 0 01-71.081-122.227" stroke="url(#paint1_linear_204_7)"/><path d="M1361.88 1092.2a829.053 829.053 0 01-184.07 73.77c-47.18 12.17-296.477 78.91-407.355 5.86a117.755 117.755 0 01-30.881-29.08c-31.144-42.67-21.078-94-9.123-147.383 14.569-65.835 34.222-133.033-10.725-190.686-63.343-81.265-179.723-46.383-220.743-110.977a73.315 73.315 0 01-5.507-10.297c-42.248-95.034 117.016-213.538 65.037-310.442-17.371-32.405-54.611-54.593-91.273-57.448-28.579-2.448-50.48 8.47-72.82 24.299-37.91 26.874-73.625 66.726-140.337 85.964a294.28 294.28 0 01-70.882 10.532c-61.18 2.584-112.858-11.892-136.618-18.004A314.238 314.238 0 01-114.798 315.6a408.534 408.534 0 01-72.28-123.373" stroke="url(#paint2_linear_204_7)"/><path d="M1370.58 1083.58a820.688 820.688 0 01-183.73 72.62c-50.38 12.58-296.431 76.8-405.612 4.01a119.23 119.23 0 01-30.57-29.21c-30.744-42.7-20.77-93.81-9.672-146.84 13.567-65.287 31.498-131.138-13.977-187.529-63.614-79.378-179.481-44.796-220.396-109.024a73.27 73.27 0 01-5.507-10.298c-42.331-94.682 116.07-213.74 63.785-309.61-17.602-32.309-55.249-53.055-92.787-55.824-28.717-2.117-50.861 8.764-73.667 24.011-39.106 26.181-75.039 63.621-141.47 81.105a323.877 323.877 0 01-71.261 9.278c-61.267 2.484-113.014-10.28-137.21-15.35a294.693 294.693 0 01-162.345-96.532 392.925 392.925 0 01-73.237-123.706" stroke="url(#paint3_linear_204_7)"/><path d="M1379.32 1074.97c-43.77 22.24-105.39 52.76-183.36 71.49-53.63 12.9-296.489 74.58-403.973 2.04a119.016 119.016 0 01-30.226-29.25c-30.37-42.67-20.486-93.56-10.377-146.233 12.455-64.784 28.742-129.322-17.041-184.359-64.324-77.675-179.162-43.244-219.776-106.958a73.769 73.769 0 01-5.528-10.241c-42.415-94.331 115.112-214.077 62.667-308.789-17.836-32.213-55.868-51.569-93.658-53.735-28.854-1.789-51.297 9.032-74.404 23.767-40.377 25.521-76.506 60.493-142.488 75.971a360.14 360.14 0 01-71.739 8.11c-61.287 2.219-113.108-8.512-137.782-12.749-72.462-11.8-124.631-48.282-163.287-90.409a381.501 381.501 0 01-74.352-124.432" stroke="url(#paint4_linear_204_7)"/><path d="M1388.01 1066.34c-44.13 22.02-105.62 52.21-182.96 70.37-57.09 13.19-296.551 72.42-402.313.09a117.383 117.383 0 01-29.884-29.31c-30.026-42.72-20.148-93.29-10.981-145.709 11.286-64.303 25.937-127.394-20.107-181.186-64.663-75.625-178.896-41.715-219.735-105.201a71.463 71.463 0 01-5.551-10.187c-42.465-93.898 114.22-214.255 61.583-307.885-18.126-32.14-56.488-50.088-95.212-51.869-28.937-1.435-51.653 9.269-75.415 23.409-41.55 24.776-77.865 57.411-143.681 71.412a407.721 407.721 0 01-72.119 6.854c-61.406 2.039-113.142-7.044-138.395-10.039a263.346 263.346 0 01-164.262-84.367 368.725 368.725 0 01-75.414-125.132" stroke="url(#paint5_linear_204_7)"/><path d="M1396.74 1057.67c-44.56 21.78-105.51 51.94-182.59 69.29-60.17 13.59-296.623 70.27-400.608-1.84a116.988 116.988 0 01-29.595-29.38c-29.651-42.69-19.864-93.04-11.586-145.188 10.096-63.767 23.304-125.72-23.114-177.991-65.124-73.752-178.656-40.13-219.466-103.219a84.001 84.001 0 01-5.576-10.131c-42.515-93.469 113.273-214.457 60.497-306.983-18.313-32.155-57.083-48.66-96.499-50.021-29.073-1.105-52.089 9.54-76.262 23.121-42.876 24.092-79.333 54.281-144.836 66.606a467.39 467.39 0 01-72.553 5.577c-61.438 1.962-113.11-5.417-138.824-7.314a249.944 249.944 0 01-165.201-78.246 357.446 357.446 0 01-76.962-125.908" stroke="url(#paint6_linear_204_7)"/><path d="M1405.48 1049.06c-45 21.47-105.95 51.3-182.27 68.08-63.41 13.97-296.571 68.15-398.935-3.66a116.793 116.793 0 01-29.228-29.49c-29.254-42.72-19.338-92.759-12.215-144.61 9.006-63.32 20.488-123.608-26.179-174.822-65.527-71.856-178.39-38.601-219.174-101.29a83.114 83.114 0 01-5.519-10.108c-42.568-93.039 112.324-214.659 59.356-306.106-18.547-32.058-57.428-47.062-97.81-48.115-29.211-.778-52.546 9.866-77.131 22.885-44.126 23.378-80.8 51.155-145.923 61.639a572.89 572.89 0 01-72.815 4.501c-61.501 1.804-113.054-3.847-139.501-4.76a238.805 238.805 0 01-166.199-72.149c-47.314-47.032-69.542-104.427-77.592-126.556" stroke="url(#paint7_linear_204_7)"/><path d="M1414.17 1040.43c-45.33 21.2-106.17 50.76-181.86 66.95-66.67 14.36-296.642 66-397.452-5.68a117.252 117.252 0 01-28.939-29.56c-28.933-42.71-19.383-92.65-12.818-144.089 7.815-62.784 17.716-121.604-29.268-171.596-65.906-70.015-178.039-36.969-218.804-99.393a82.39 82.39 0 01-5.565-10c-42.649-92.686 111.346-214.938 58.294-305.258-18.89-32.008-58.322-45.693-99.252-46.203-29.27-.479-52.927 10.158-77.902 22.566-45.428 22.639-82.267 48.026-147.077 56.834a673.938 673.938 0 01-73.438 3.209c-61.564 1.65-113.09-2.056-140.06-2.027a228.93 228.93 0 01-90.343-15.96 229.005 229.005 0 01-76.83-50.144c-47.787-45.746-70.202-103.928-78.654-127.258" stroke="url(#paint8_linear_204_7)"/><path d="M1422.88 1031.94c-45.83 20.99-106.44 50.19-181.64 66.08-69.95 14.67-296.627 63.81-395.572-7.55a115.332 115.332 0 01-28.598-29.6c-28.534-42.75-18.934-92.339-13.446-143.518 6.649-62.303 15.016-119.763-32.377-168.312-66.288-68.175-177.804-35.519-218.388-97.608a75.764 75.764 0 01-5.565-10c-42.778-92.223 110.342-215.163 57.13-304.326-18.936-31.897-58.642-44.15-100.539-44.353-29.354-.126-53.339 10.373-78.826 22.31-46.679 21.923-83.657 44.865-148.21 51.974-24.192 2.803-48.541 1.347-73.761 1.977-61.651 1.55-112.97-.65-140.654.63-71.636 3.379-126.082-20.38-168.389-60.097-48.054-44.956-70.893-103.508-79.826-128.006" stroke="url(#paint9_linear_204_7)"/><path d="M1431.64 1023.15c-46.23 20.69-106.65 49.59-181.18 64.72-73.19 14.99-296.578 61.64-393.779-9.57a115.145 115.145 0 01-28.309-29.68c-28.158-42.71-18.597-92.064-14.051-142.991 5.513-61.747 12.236-117.892-35.395-165.252-66.716-66.225-177.587-33.88-218.133-95.437a80.253 80.253 0 01-5.51-9.977c-42.829-91.793 109.206-215.38 56.045-303.424-19.312-31.925-59.536-42.782-101.882-42.528-29.491.203-53.774 10.642-79.672 22.02-48.062 21.218-85.227 41.824-149.414 47.282-24.19 2.028-48.678.128-74.194.699-61.716 1.394-112.837.888-141.19 3.308-71.315 6.158-126.22-14.955-169.135-53.83-48.41-43.944-71.53-103.064-80.864-128.762" stroke="url(#paint10_linear_204_7)"/><path d="M1440.39 1014.55c-46.62 20.4-106.94 48.89-180.84 63.57-76.46 15.23-296.671 59.41-392.188-11.35a114.862 114.862 0 01-27.942-29.79c-27.917-42.678-18.313-91.817-14.678-142.416 4.422-61.298 9.675-115.929-38.46-162.079-67.096-64.384-177.267-32.329-217.819-93.566a69.778 69.778 0 01-5.556-9.865c-42.91-91.441 108.393-215.593 54.905-302.547-19.577-31.908-60.109-41.408-103.216-40.568-29.628.532-54.24 10.834-80.517 21.73-49.344 20.426-86.957 38.394-150.478 42.259-24.259 1.419-48.781-1.012-74.62-.446-61.78 1.237-112.792 2.325-141.782 5.963-71.09 9.025-126.455-9.44-170.107-47.787-48.738-42.852-72.136-102.543-81.927-129.463" stroke="url(#paint11_linear_204_7)"/><path d="M1449.08 1005.92c-47.07 20.08-107.16 48.21-180.44 62.45-79.79 15.52-296.631 57.17-390.471-13.29a115.083 115.083 0 01-27.654-29.86c-27.353-42.632-18.042-91.378-15.305-141.835 3.232-60.764 6.786-114.104-41.493-158.831-67.532-62.566-177.08-30.766-217.525-91.637a69.449 69.449 0 01-5.558-9.867c-43.039-90.978 107.313-215.783 53.765-301.667-19.81-31.811-60.728-39.925-104.526-38.663-29.743.806-54.675 11.104-81.366 21.441-50.724 19.719-88.203 35.357-151.632 37.455-24.303.755-48.863-2.209-75.054-1.725-61.811 1.161-112.637 3.81-142.373 8.618-70.553 11.444-126.66-3.849-170.997-41.641-49.093-41.842-72.849-102.067-83.042-130.186" stroke="url(#paint12_linear_204_7)"/><path d="M1457.8 997.235c-47.39 19.955-107.42 47.595-180.06 61.385-83.06 15.78-296.677 54.96-388.82-15.24a113.412 113.412 0 01-27.31-29.91c-27.307-42.743-17.714-91.241-15.911-141.314 2.119-60.26 4.062-112.21-44.666-155.704-67.959-60.618-176.761-29.215-217.234-89.71a86.844 86.844 0 01-5.524-9.788c-43.066-90.604 106.308-216.009 52.7-300.822-20.096-31.738-61.322-38.497-105.911-36.728-29.781 1.049-55.121 11.242-82.269 21.129-52.006 18.927-89.703 32.153-152.686 32.566-24.374.145-48.969-3.348-75.512-2.947-61.898 1.058-112.483 5.292-142.91 11.296-70.303 13.934-126.92 1.717-172.157-35.612-49.453-40.831-73.651-101.693-84.105-130.889" stroke="url(#paint13_linear_204_7)"/><path d="M1466.55 988.636c-47.85 19.624-107.69 46.834-179.94 60.344-86.35 16.07-296.596 52.73-387.087-17.1a114.74 114.74 0 01-26.998-30.04c-26.822-42.673-17.33-91.084-16.538-140.74 1.007-59.759 1.359-110.373-47.621-152.49-68.261-58.807-176.496-27.684-216.865-87.814a73.468 73.468 0 01-5.546-9.733c-43.173-90.194 105.284-216.178 51.537-299.887-20.308-31.697-61.919-37.069-107.201-34.879-29.916 1.379-55.609 11.488-83.113 20.84-53.366 18.166-91.204 28.946-153.844 27.762-24.44-.464-49.104-4.568-75.693-4.055-61.94.848-112.415 6.675-143.503 13.951-69.873 16.306-127.078 7.197-172.966-29.501-49.64-40.07-73.925-101.033-85.166-131.588" stroke="url(#paint14_linear_204_7)"/><path d="M1475.03 979.916c-48.25 19.337-107.99 46.124-179.42 59.074-89.67 16.3-296.566 50.36-385.449-18.99a113.173 113.173 0 01-26.656-30.089c-26.424-42.7-16.944-90.924-17.143-140.219-.128-59.201-1.388-108.423-50.684-149.318-68.666-56.912-176.145-26.054-216.596-85.83a85.463 85.463 0 01-5.571-9.679c-43.167-89.742 104.338-216.38 50.532-299.018-20.597-31.624-62.516-35.642-108.731-33.067-30 1.731-56.045 11.758-83.93 20.63-54.701 17.35-92.781 25.772-154.953 22.846-24.509-1.072-49.208-5.706-76.37-5.369a614.067 614.067 0 00-144.04 16.63C6.498 346.227-51.318 340.283-97.89 304.138c-50.11-38.784-74.858-100.65-86.61-132.451" stroke="url(#paint15_linear_204_7)"/><path d="M1483.97 971.336c-48.62 19.112-108.23 45.444-178.99 58.024-92.93 16.55-296.64 48.2-383.778-21a114.879 114.879 0 01-26.078-30.239c-26.047-42.67-16.675-90.487-17.769-139.64-1.343-58.61-4.091-106.584-53.749-146.146-69.047-55.073-175.935-24.547-216.492-83.917a85.437 85.437 0 01-5.539-9.6c-43.273-89.335 103.258-216.574 49.391-298.139-20.885-31.552-63.112-34.213-109.955-31.062-30.091 1.951-56.544 11.872-84.808 20.263-56.061 16.589-94.234 22.454-155.888 18.133-24.533-1.79-49.293-6.901-76.751-6.624a536.142 536.142 0 00-144.631 19.285C9.732 341.71-48.586 338.976-95.971 303.394c-50.338-37.781-75.52-100.151-87.33-133.203" stroke="url(#paint16_linear_204_7)"/><path d="M1492.71 962.723c-49.08 18.859-108.53 44.677-178.52 56.937-96.2 16.79-296.49 46-382.013-22.914a113.996 113.996 0 01-26.078-30.236c-25.728-42.666-16.391-90.24-18.374-139.12-2.432-58.162-6.838-104.635-56.837-142.919-69.428-53.232-175.669-23.018-215.878-81.984a66.809 66.809 0 01-5.594-9.624c-43.334-89.037 102.232-216.744 48.227-297.206-21.096-31.51-63.615-33.005-111.242-29.213-30.206 2.226-56.978 12.143-85.732 20.007-57.397 15.771-95.767 19.171-157.163 13.151-24.766-2.468-49.51-7.767-77.23-7.792a475.665 475.665 0 00-145.169 21.963c-68.892 23.23-127.678 23.784-175.902-11.181-50.617-36.802-76.132-99.761-88.483-133.685" stroke="url(#paint17_linear_204_7)"/><path d="M1501.41 954.108c-49.48 18.558-108.64 43.984-178.07 55.832-99.49 16.97-296.64 43.87-380.38-24.816a114.228 114.228 0 01-25.749-30.097c-25.284-42.803-16.053-89.969-19.002-138.543-3.545-57.658-9.542-102.795-59.879-139.803-69.854-51.282-175.304-21.576-215.609-80.001a76.006 76.006 0 01-5.561-9.546c-43.407-88.552 101.174-216.991 47.164-296.36-21.384-31.437-64.28-31.412-112.63-27.277-30.321 2.5-57.446 12.335-86.525 19.74-58.765 14.88-97.352 15.864-158.24 8.316-24.535-3.018-49.533-9.259-77.61-9.048a431.452 431.452 0 00-145.706 24.643c-68.66 25.455-127.858 29.319-176.842-5.061-50.952-35.844-76.849-99.285-89.555-134.518" stroke="url(#paint18_linear_204_7)"/><path d="M1510.15 945.499c-49.86 18.27-109.03 43.11-177.97 54.711-102.85 17.12-296.52 41.41-378.681-26.747a113.06 113.06 0 01-25.368-30.391c-24.954-42.665-15.713-89.698-19.772-138.089-4.601-57.132-12.288-100.846-62.909-136.554-70.237-49.441-175.188-19.848-215.318-78.073a71.661 71.661 0 01-5.563-9.545c-43.534-88.09 100.072-217.13 45.916-295.529-21.673-31.363-64.877-29.982-113.941-25.373-30.436 2.777-57.913 12.527-87.37 19.452-60.182 14.095-98.886 12.581-159.429 3.433-24.701-3.86-49.638-10.399-78.068-10.268a398.674 398.674 0 00-145.963 27.113c-68.271 27.617-128.04 34.853-177.785 1.061-51.177-34.842-77.507-98.786-90.616-135.218" stroke="url(#paint19_linear_204_7)"/><path d="M1518.91 936.572c-50.17 17.761-109.33 42.406-177.55 53.535-106.17 17.343-296.52 39.093-377.026-28.702a112.17 112.17 0 01-25.025-30.439c-24.68-42.553-15.375-89.429-20.069-137.378-5.715-56.629-14.99-99.006-65.974-133.382-70.452-47.532-174.868-18.295-214.949-76.177a66.445 66.445 0 01-5.608-9.435c-43.617-87.738 99.014-217.378 44.94-294.581-21.94-31.346-65.449-28.61-115.282-23.547-30.551 3.05-58.382 12.719-88.296 19.194-61.37 13.083-100.56 9.173-160.618-1.447-24.846-4.438-49.718-11.596-78.444-11.525a369.332 369.332 0 00-146.945 29.931c-67.971 29.676-128.224 40.389-178.781 7.158-51.457-33.863-78.167-98.288-91.624-135.897" stroke="url(#paint20_linear_204_7)"/><path d="M1527.62 928.216c-50.61 17.572-109.63 41.571-177.26 52.364-109.41 17.54-296.43 36.87-375.26-30.607a111.923 111.923 0 01-24.738-30.515c-24.235-42.688-15.013-89.213-20.861-136.868-6.828-56.126-17.55-97.045-69.038-130.212-71.162-45.828-174.602-16.767-214.656-74.25a69.635 69.635 0 01-5.553-9.413c-43.668-87.306 97.911-217.515 43.799-293.7-22.228-31.274-66.046-27.182-116.616-21.589-30.666 3.326-58.825 12.856-89.12 18.851-62.853 12.464-101.926 5.957-161.639-6.261-24.915-5.046-49.824-12.735-78.925-12.692a345.097 345.097 0 00-147.482 32.608C22.5 317.758-38.11 331.802-89.375 299.18c-51.264-32.62-78.803-97.843-92.85-136.666" stroke="url(#paint21_linear_204_7)"/><path d="M1536.31 919.586c-51.04 17.394-109.93 40.737-176.86 51.243-112.67 17.469-296.42 34.551-373.402-32.413a114.729 114.729 0 01-24.372-30.619c-23.891-42.739-14.509-88.873-21.465-136.347-7.964-55.568-20.44-95.22-72.171-126.875-71.402-43.865-174.275-15.083-214.333-72.245a83.211 83.211 0 01-5.575-9.357c-43.774-86.9 96.784-217.598 42.681-292.878-22.461-31.177-66.641-25.753-117.981-19.706-30.725 3.622-59.26 13.125-89.912 18.583-64.222 11.571-103.491 2.597-163.014-11.156-24.992-5.789-49.961-13.953-79.374-13.783a325.599 325.599 0 00-148.074 35.265C25.002 312.995-35.944 330.319-88.01 298.072c-52.066-32.246-79.348-97.62-93.911-137.368" stroke="url(#paint22_linear_204_7)"/><path d="M1545.03 910.9c-51.48 17.214-110.19 39.986-176.48 50.175-116.07 17.794-296.34 32.201-371.968-34.455a113.124 113.124 0 01-24.028-30.67c-23.516-42.711-14.556-88.764-22.093-135.769-9.241-55.135-23.096-93.49-75.168-123.869-71.727-42.002-174.064-13.575-213.961-70.349a80.923 80.923 0 01-5.654-9.326c-43.824-86.469 95.851-217.988 41.628-291.898-22.805-31.126-67.191-24.435-119.323-17.881-30.841 3.897-59.782 13.294-90.836 18.327-65.535 10.7-104.999-.743-163.851-15.956-25.037-6.451-50.087-15.037-79.761-15.168a309.406 309.406 0 00-148.611 37.941c-67.435 35.965-128.721 56.887-181.695 25.422-52.972-31.463-79.979-96.723-94.972-138.07" stroke="url(#paint23_linear_204_7)"/><path d="M1553.78 902.302c-51.92 17.026-110.48 39.153-176.19 49.004-119.35 17.908-296.23 29.923-370.21-36.367a111.863 111.863 0 01-23.734-30.74c-23.142-42.684-13.944-88.38-22.697-135.25-10.158-54.485-25.868-91.486-78.256-120.643-72.109-40.16-173.799-12.045-213.67-68.419a81.573 81.573 0 01-5.622-9.248c-43.852-86.094 94.725-218.073 40.51-291.077-23.038-31.028-67.786-23.005-120.656-15.92-30.93 4.116-60.271 13.541-91.683 18.039-66.958 9.783-106.54-4.161-165.037-20.837-25.084-7.117-50.115-16.211-80.11-16.348a294.656 294.656 0 00-149.203 40.598C29.814 303.004-31.91 327.29-85.414 296.637c-52.529-30.053-80.813-96.426-96.066-138.849" stroke="url(#paint24_linear_204_7)"/><path d="M1562.58 893.724c-52.2 16.907-110.73 38.339-175.78 47.884-122.68 18.003-296.21 27.545-368.56-38.322a112.629 112.629 0 01-23.391-30.793c-22.799-42.733-13.604-88.108-23.325-134.671-11.449-53.863-28.757-89.661-81.594-117.585-72.49-38.32-173.535-10.518-213.379-66.494a74.254 74.254 0 01-5.62-9.247c-43.959-85.685 93.62-218.21 39.369-290.197-23.326-30.957-68.36-21.634-121.967-14.018-31.045 4.392-60.602 13.405-92.53 17.751-68.216 8.933-108.104-7.523-166.17-25.698-25.129-7.78-50.22-17.349-80.566-17.568A283.052 283.052 0 0099.491 258.11C32.33 298.058-29.47 325.927-83.922 295.844c-52.731-29.106-81.45-95.982-97.184-139.572" stroke="url(#paint25_linear_204_7)"/><path d="M1571.22 885.075c-52.85 16.639-111.08 37.484-175.43 46.741-126.11 18.308-296.15 25.244-366.87-40.199a112.944 112.944 0 01-23.08-30.921c-22.427-42.706-13.27-87.838-23.935-134.151-12.326-53.456-31.26-87.674-84.35-114.222-72.849-36.535-173.27-8.987-213.01-64.597a67.597 67.597 0 01-5.644-9.193c-44.084-85.223 92.518-218.346 38.263-289.24-23.592-30.939-68.934-20.26-123.334-12.136-31.137 4.611-61.137 13.761-93.377 17.46-69.67 7.94-109.565-10.969-167.302-30.555-25.183-8.575-50.301-18.546-80.946-18.824-62.773-.402-111.855 21.874-150.332 45.931-67.102 41.972-129.095 73.243-184.574 43.764-52.769-28.089-82.164-95.507-98.3-140.297" stroke="url(#paint26_linear_204_7)"/><path d="M1579.93 876.394c-53.12 16.203-111.35 36.723-175.05 45.674-129.32 18.126-296.07 22.893-365.21-42.152a111.714 111.714 0 01-22.74-30.971c-22.029-42.734-12.88-87.545-24.562-133.574-13.384-52.93-33.963-85.837-87.393-111.105-73.251-34.64-173.051-7.348-212.52-62.523a72.746 72.746 0 01-5.726-8.84c-44.114-84.848 91.195-218.577 37.144-288.418-23.903-30.811-69.506-18.886-124.697-10.254-31.252 4.884-61.658 13.929-94.279 17.149-71.008 7.124-113.606-8.401-168.403-35.337a183.094 183.094 0 00-81.404-20.047c-62.828-.425-111.883 23.022-150.869 48.608-67.022 43.942-129.506 78.555-185.548 49.809-53.112-27.267-82.879-95.031-99.361-140.999" stroke="url(#paint27_linear_204_7)"/><path d="M1588.62 867.765c-53.53 15.97-111.67 35.814-174.7 44.533-132.62 18.166-295.91 20.507-363.45-44.062a112.083 112.083 0 01-22.45-31.043c-21.68-42.783-12.51-87.331-25.16-133.053-14.499-52.427-36.691-83.942-90.427-107.856-73.577-32.775-172.731-5.795-212.393-60.663a68.317 68.317 0 01-5.612-9.116c-44.22-84.44 90.256-218.645 36.113-287.492-24.245-30.76-70.101-17.459-126.008-8.351-31.421 5.138-62.102 14.067-95.147 16.914-72.408 6.155-115.189-12.027-169.513-40.249a177.677 177.677 0 00-81.807-21.247c-62.876-.769-111.988 24.203-151.515 51.241-66.964 45.966-129.312 84.117-186.49 55.93-53.479-26.387-83.459-94.564-100.423-141.7" stroke="url(#paint28_linear_204_7)"/><path d="M1597.38 859.164c-54 15.64-111.92 34.998-174.34 43.325-135.92 18.215-295.92 18.375-361.82-45.959a114.346 114.346 0 01-22.08-31.149c-21.31-42.756-12.17-87.059-25.79-132.475-15.648-51.681-39.803-81.114-93.546-104.707-73.431-32.201-172.357-4.221-212.077-58.791a71.624 71.624 0 01-5.673-8.818c-44.269-84.011 89.1-218.808 34.92-286.638-24.481-30.665-70.653-16.139-127.375-6.47-31.456 5.381-62.491 14.228-95.916 16.594-73.777 5.26-116.848-15.621-170.669-45.052a171.594 171.594 0 00-82.24-22.525c-62.909-.847-112.049 25.274-152.053 53.919-66.96 47.965-129.47 89.598-187.157 62.164-53.823-25.562-84.175-94.088-101.76-142.514" stroke="url(#paint29_linear_204_7)"/><path d="M1606.11 850.426c-54.34 15.437-112.18 34.251-173.96 42.325-139.27 18.171-295.76 15.797-360.12-47.895-9-9.084-16.37-19.644-21.8-31.222-20.87-42.704-11.77-86.766-26.39-131.953-16.64-51.321-42.137-80.155-96.609-101.537-74.284-29.072-172.17-2.658-211.754-56.784a66.856 66.856 0 01-5.672-8.818c-44.374-83.602 87.996-218.946 33.779-285.759-24.769-30.592-71.227-14.766-128.683-4.566-31.574 5.655-63.015 14.396-97.061 16.245-75.069 4.334-118.299-19.258-171.726-49.943a166.607 166.607 0 00-82.641-23.726c-62.996-.947-112.156 26.456-152.614 56.653-66.933 49.913-132.08 100.182-188.404 68.093-51.436-29.274-84.824-93.456-102.657-143.147" stroke="url(#paint30_linear_204_7)"/><path d="M1614.85 841.884c-54.82 15.108-112.53 33.33-173.67 41.088-142.59 18.275-295.79 13.407-358.42-49.762a113.14 113.14 0 01-21.46-31.272c-20.53-42.755-11.41-86.552-27.02-131.378-17.51-50.781-44.73-78.268-99.672-98.364-74.665-27.232-171.906-1.129-211.408-54.834a73.438 73.438 0 01-5.672-8.818c-44.526-83.087 86.816-219.052 32.693-284.858-25.134-30.486-72.095-13.453-130.049-2.685-31.756 6.094-63.457 14.533-97.688 16.048-76.466 3.363-117.226-28.164-172.88-54.749-25.428-12.161-50.865-24.456-83.098-24.946-63.028-1.025-112.216 27.527-153.183 59.254C46.503 268.567-18.87 322.16-76.079 290.799c-51.86-28.098-85.437-93.068-103.718-143.848" stroke="url(#paint31_linear_204_7)"/><path d="M1623.54 833.255c-55.16 14.904-112.74 32.471-173.28 40.032-145.92 18.163-295.5 11.003-356.75-51.78a111.264 111.264 0 01-21.11-31.323c-20.21-42.75-11.03-86.258-27.65-130.8-18.76-50.402-47.545-76.476-102.684-95.171-75.102-25.415-171.665.455-211.149-52.984a70.14 70.14 0 01-5.672-8.818c-44.362-83.017 85.712-219.189 31.608-283.957-25.368-30.39-72.371-12.02-131.36-.781-31.81 6.073-64.121 14.58-98.534 15.759-77.812 2.415-118.557-31.62-173.967-59.716-25.506-12.904-50.994-25.542-83.501-26.147-63.115-1.126-112.432 28.662-153.775 61.909C48.68 263.347-16.513 320.37-74.65 289.845c-52.137-27.437-86.107-92.701-104.813-144.626" stroke="url(#paint32_linear_204_7)"/><path d="M1632.23 824.624c-55.56 14.605-113.03 31.636-172.87 38.911-149.4 18.003-295.4 8.597-355.07-53.653a114.65 114.65 0 01-20.8-31.45c-19.81-42.779-10.63-85.966-28.25-130.28-19.85-49.82-50.22-74.558-105.772-91.945-75.406-23.605-171.4 1.986-210.856-51.056a65.858 65.858 0 01-5.672-8.818c-44.583-82.334 84.584-219.273 30.466-283.078-25.749-30.097-73.273-10.783-132.67 1.123-31.947 6.402-64.258 14.909-99.381 15.47-79.157 1.466-120.041-35.014-175.144-64.465-25.506-13.677-51.076-26.738-83.936-27.426-63.202-1.226-112.514 29.791-154.311 64.589-67.143 55.823-132.297 116.152-191.342 86.411-52.494-26.427-86.766-92.204-105.873-145.329" stroke="url(#paint33_linear_204_7)"/><path d="M1641 815.972c-56.03 14.34-113.38 30.782-172.48 37.648-152.62 18.018-295.32 6.249-353.43-55.548a114.521 114.521 0 01-20.46-31.5c-19.44-42.75-10.27-85.75-28.88-129.705-20.88-49.347-52.91-72.717-108.81-88.825-75.786-21.767-171.158 3.569-210.431-49.138a71.742 71.742 0 01-5.673-8.818c-44.664-81.983 83.428-219.435 29.405-282.233-26.077-30.234-73.901-9.432-134.057 3.061-32.041 6.621-64.845 14.921-100.284 15.158-80.504.516-121.427-38.495-176.199-69.357-25.607-14.364-51.204-27.822-84.348-28.758-63.212-1.359-112.652 30.893-154.848 67.266-67.194 57.801-132.2 121.483-192.337 92.511-52.83-25.47-87.427-91.706-106.771-145.962" stroke="url(#paint34_linear_204_7)"/><path d="M1649.7 807.341c-56.37 14.071-113.63 29.966-172.18 36.616-155.83 17.966-295.08 3.829-351.67-57.459-8.43-9.33-15.25-20-20.17-31.573-19.09-42.8-9.85-85.512-29.48-129.182-21.94-48.823-55.62-70.88-111.972-85.437-76.167-19.924-170.838 5.123-210.163-47.155a68.636 68.636 0 01-5.616-8.794c-44.716-81.552 82.246-219.539 28.241-281.298-26.079-30.235-74.507-8.138-135.345 4.909-32.209 6.873-65.313 15.114-101.13 14.868-81.85-.431-122.891-41.944-177.402-74.049-25.88-15.253-51.317-29.096-84.795-29.848-63.298-1.461-112.868 32.027-155.495 69.897C55.256 248.671-7.561 310.815-70.701 287.491c-54.929-20.284-88.141-91.229-108.107-146.777" stroke="url(#paint35_linear_204_7)"/><path d="M1658.45 798.741c-56.84 13.808-113.93 29.002-171.84 35.465-159.3 17.806-294.97 1.424-350.01-59.41a113.255 113.255 0 01-19.82-31.623c-18.72-42.772-9.57-85.264-30.15-128.683-22.99-48.297-58.32-69.041-114.961-82.43-76.306-18.047-170.464 6.696-209.817-45.204a74.973 74.973 0 01-5.616-8.794c-44.82-81.145 81.065-219.646 27.178-280.451-26.679-30.035-75.189-6.812-136.765 6.766-32.269 7.17-65.756 15.251-101.945 14.658-83.227-1.458-124.33-45.449-178.465-79.075-25.629-15.857-51.421-30.235-85.252-31.07-63.331-1.539-113.006 33.132-156.032 72.576C57.556 243.309-5.516 308.702-69.266 286.219c-55.163-19.415-88.8-90.73-109.17-147.478" stroke="url(#paint36_linear_204_7)"/><path d="M1667.16 790.058c-57.25 13.575-114.16 28.199-171.44 34.41-162.66 17.631-294.81-1.023-348.36-61.558a114.692 114.692 0 01-19.51-31.753c-18.32-42.799-9.1-85.003-30.44-127.969-24.05-47.77-61.04-67.147-118.051-79.203-77.016-16.345-170.278 8.257-209.469-43.253a65.741 65.741 0 01-5.616-8.794c-44.927-80.738 79.883-219.754 25.969-279.41-26.989-29.905-75.764-5.436-138.1 8.726-32.337 7.336-66.176 15.333-102.713 14.337-84.571-2.406-125.771-48.952-179.676-83.9-25.353-16.518-51.394-31.386-85.577-32.304-63.417-1.639-113.222 34.268-156.647 75.287-67.504 63.8-130.34 132.644-195.194 110.798-55.373-18.6-89.437-90.288-110.231-148.18" stroke="url(#paint37_linear_204_7)"/><path d="M1675.85 781.429c-57.59 13.305-114.58 27.314-171.04 33.288-165.99 17.466-294.68-3.486-346.68-63.246a115.856 115.856 0 01-19-31.734c-17.93-42.826-8.68-84.763-31.35-127.506-25.08-47.3-63.74-65.308-120.943-76.284-77.287-14.459-170.091 9.82-209.232-41.349a68.41 68.41 0 01-5.561-8.771c-44.955-80.362 78.812-219.811 24.897-278.695-27.223-29.809-76.367-4.141-139.386 10.574-32.508 7.588-66.644 15.526-103.693 14.059-85.771-3.553-127.157-52.432-180.731-88.792-25.665-17.162-51.577-32.493-86.056-33.47-63.428-1.772-113.361 35.37-157.162 77.909C62.225 233.199-.518 305.372-66.222 284.33c-55.587-17.785-90.153-89.812-111.348-148.904" stroke="url(#paint38_linear_204_7)"/><path d="M1684.61 772.828c-58.05 12.987-114.81 26.444-170.69 31.951-169.25 17.265-294.22-5.809-344.91-65.152a114.363 114.363 0 01-18.94-31.898c-17.6-42.823-8.26-84.527-31.97-126.93-26.12-46.83-66.45-63.469-124.319-72.985-77.644-12.672-169.824 11.35-208.884-39.397a75.73 75.73 0 01-5.561-8.771c-45.083-79.901 77.576-219.942 23.811-277.795-27.589-29.705-77.05-2.815-140.55 12.282-32.622 7.862-67.144 15.64-104.54 13.768-87.253-4.17-128.619-55.88-181.887-93.595-25.593-18.101-51.656-33.69-86.435-34.725-63.701-1.886-113.608 36.429-157.753 80.565C64.142 227.998 1.274 303.408-65.174 283.217c-55.841-16.859-90.742-89.476-112.386-149.66" stroke="url(#paint39_linear_204_7)"/><path d="M1693.27 764.258c-58.42 12.826-115.04 25.639-170.37 31.049-172.64 17.015-294.26-8.339-343.25-67.104a115.617 115.617 0 01-18.54-31.925c-17.21-42.849-7.85-84.288-32.58-126.409-27.15-46.357-69.17-61.574-127.19-69.665-77.944-10.865-169.571 13.065-208.589-37.471a73.27 73.27 0 01-5.563-8.77c-45.133-79.47 76.428-219.969 22.727-276.893-27.9-29.576-77.655-1.518-142.084 14.415-32.769 8.058-67.565 15.721-105.387 13.48-88.561-5.364-129.981-59.417-182.997-98.51-25.594-18.875-51.876-34.555-86.893-35.948-63.678-1.94-113.768 37.586-158.312 83.298C66.404 223.659 3.576 302.374-63.888 282.92c-55.984-16.208-91.37-88.9-113.435-150.548" stroke="url(#paint40_linear_204_7)"/><path d="M1702.07 755.548c-58.87 12.508-115.36 24.73-170.02 29.909-176.04 16.819-294.06-10.841-341.63-69.011a119.115 119.115 0 01-18.17-32.03c-16.83-42.822-7.43-84.049-33.21-125.832-28.19-45.886-71.79-59.768-130.25-66.496-78.328-9.023-169.262 14.487-208.314-35.353a67.425 67.425 0 01-5.698-8.443c-45.161-79.094 75.269-220.129 21.641-275.991-28.268-29.471-78.248-.41-143.428 16.242-32.882 8.333-68.032 15.914-106.288 13.168-89.852-6.289-131.366-62.898-184.098-103.29-25.593-19.65-51.899-36.048-87.294-37.15-63.632-2.05-114.018 38.645-158.883 85.9C68.218 218.996 5.672 301.055-62.643 282.408c-56.25-15.418-92.084-88.425-114.643-151.053" stroke="url(#paint41_linear_204_7)"/><path d="M1710.76 746.919c-59.26 12.22-115.59 23.861-169.66 28.767-179.3 16.422-293.92-13.04-339.88-70.919a118.392 118.392 0 01-17.88-32.103c-16.43-42.85-7.07-83.834-33.81-125.311-29.19-45.337-74.57-57.896-133.32-63.324-78.75-7.073-168.962 16.093-207.893-33.568a67.6 67.6 0 01-5.7-8.441c-45.265-78.687 74.043-220.126 20.547-275.223-28.514-29.189-79.034 1.323-145.025 18.218-32.952 8.498-68.455 15.996-107.136 12.878-91.151-7.345-132.753-66.377-185.207-108.203-25.616-20.368-52.004-37.188-87.753-38.371-63.608-2.106-114.231 39.78-159.473 88.554C70.154 213.742 7.67 299.051-61.497 281.208c-56.462-14.603-92.745-87.926-115.683-151.809" stroke="url(#paint42_linear_204_7)"/><path d="M1719.46 738.29c-59.61 11.951-115.85 22.915-169.27 27.645-182.66 16.117-293.63-15.754-338.22-72.874a118.536 118.536 0 01-17.54-32.152c-16.11-42.845-6.65-83.596-34.43-124.734-30.23-44.867-77.28-56.058-136.17-60.061-79.063-5.398-168.587 17.669-207.603-31.64a74.072 74.072 0 01-5.667-8.364c-45.316-78.257 72.862-220.233 19.384-274.289-28.89-29.217-79.571 2.453-146.125 20.081-33.067 8.772-68.99 16.352-107.928 12.613-92.553-8.318-134.138-69.86-186.363-113.008-25.616-21.142-52.108-38.327-88.13-39.626-63.589-2.161-114.503 40.892-160.09 91.265-68.6 75.855-130.981 164.625-200.988 147.401-56.671-13.787-93.403-87.428-116.885-152.634" stroke="url(#paint43_linear_204_7)"/><path d="M1728.23 729.634a1615.006 1615.006 0 01-168.95 26.549c-186.04 15.737-293.38-18.168-336.39-74.753a119.3 119.3 0 01-17.25-32.227c-15.63-42.906-6.23-83.357-35.02-124.268-31.26-44.396-79.98-54.217-139.47-56.926-79.422-3.613-168.38 19.175-207.232-29.745a66.09 66.09 0 01-5.691-8.309c-45.421-77.848 71.657-220.284 18.275-273.333-29.256-29.111-80.208 3.673-147.469 21.908-33.18 9.047-69.317 16.216-108.887 12.597-93.852-9.376-135.501-73.393-187.473-117.92-25.615-21.915-52.213-39.467-88.612-40.793-63.838-2.333-114.696 41.971-160.718 94.163-68.83 77.95-131.056 169.753-201.928 153.521-56.94-12.995-94.094-87.006-117.837-153.289" stroke="url(#paint44_linear_204_7)"/><path d="M1736.92 721.005a1637.482 1637.482 0 01-168.59 25.407c-189.36 15.321-293.13-20.64-334.82-76.678a121.237 121.237 0 01-16.89-32.332c-15.25-42.875-5.82-83.117-35.67-123.636-32.29-43.925-82.73-52.402-142.47-53.731-79.842-1.85-168.177 20.682-206.947-27.817a72.57 72.57 0 01-5.714-8.255c-45.504-77.494 70.398-220.356 16.992-272.576-29.589-28.929-80.812 4.967-148.8 23.865-33.328 9.245-69.786 16.408-109.768 12.232-95.142-10.302-136.968-76.523-188.572-122.703-25.561-22.666-52.318-40.607-88.991-42.048-63.971-2.322-114.748 43.177-161.196 96.544-69.038 79.994-131.07 175.037-202.926 159.621-57.126-12.237-94.754-86.508-118.953-154.014" stroke="url(#paint45_linear_204_7)"/><path d="M1745.68 712.406a1666.338 1666.338 0 01-168.26 24.255c-192.7 14.897-292.86-23.108-333.1-78.604a121.708 121.708 0 01-16.6-32.405c-14.86-42.903-5.4-82.88-36.27-123.114-33.47-43.445-85.46-50.508-145.55-50.56-80.215-.01-167.927 22.266-206.672-25.834a67.678 67.678 0 01-5.658-8.232c-45.554-77.065 69.195-220.407 16.018-271.63-29.902-28.801-81.441 6.318-150.111 25.77-33.42 9.464-70.23 16.545-110.591 11.887-96.488-11.25-138.239-80.277-189.706-127.56-25.515-23.55-52.424-41.747-89.449-43.271-64.004-2.4-115.182 44.22-161.731 99.221C78.676 194.398 16.675 292.614-55.947 278.103c-57.314-11.475-95.39-86.062-119.991-154.77" stroke="url(#paint46_linear_204_7)"/><path d="M1754.39 703.725a1677.92 1677.92 0 01-167.86 23.199c-196.06 14.394-292.52-25.354-331.55-80.345a124.898 124.898 0 01-16.21-32.565c-14.38-42.831-5.02-82.72-36.9-122.538-34.37-42.983-88.14-48.724-148.61-47.389-80.577 1.775-167.634 23.874-206.304-23.937a60.713 60.713 0 01-5.682-8.178c-45.463-76.51 67.968-220.403 14.907-270.673-30.322-28.719-82.1 7.59-151.452 27.597a271.2 271.2 0 01-111.415 11.541c-97.986-12.454-139.454-84.009-190.84-132.419-25.559-24.213-52.503-42.943-89.85-44.47C248.558.991 197.007 48.81 150.3 105.424 80.738 189.456 18.876 290.893-54.564 277.266c-57.612-10.761-96.105-85.588-121.108-155.495" stroke="url(#paint47_linear_204_7)"/><path d="M1763.08 695.092c-61.66 10.707-117.34 18.483-167.46 22.078-199.28 13.95-292.33-28.115-329.75-82.496a124.188 124.188 0 01-15.98-32.474c-14.31-42.993-4.33-82.367-37.53-121.96-35.38-42.567-90.85-47.017-151.77-43.997-80.939 3.428-167.365 25.403-205.954-21.988a71.967 71.967 0 01-5.758-8.145c-45.602-76.18 66.84-220.488 13.845-269.828-30.657-28.533-82.729 8.941-152.787 29.556a265.75 265.75 0 01-112.293 11.177c-99.065-13.423-140.854-87.303-191.917-137.256-25.504-24.965-52.555-44.06-90.504-45.84C251.068-8.737 199.443 40.34 152.36 98.475 82.568 184.604 20.815 289.18-53.501 276.414c-57.823-9.946-96.741-85.145-121.895-156.081" stroke="url(#paint48_linear_204_7)"/><path d="M1771.61 686.394c-62.33 10.299-117.56 17.624-167.16 20.917-202.72 13.356-291.97-30.543-328.07-84.374a129.63 129.63 0 01-15.39-32.674c-13.71-42.877-4.32-82.367-38.08-121.417-36.43-42.041-93.57-45.124-154.75-40.992-81.306 5.214-167.077 27.011-205.671-20.059a71.338 71.338 0 01-5.704-8.122c-45.762-75.796 65.614-220.483 12.761-268.925-31.046-28.375-83.489 10.299-154.152 31.436a258.476 258.476 0 01-113.117 10.834c-100.41-14.372-142.183-90.762-193.05-142.116-25.503-25.738-52.769-45.247-90.686-46.949-64.218-2.81-116.05 47.534-163.454 107.211C85.011 179.367 23.365 287.087-51.771 275.201c-58.065-9.209-97.345-84.621-123.232-156.894" stroke="url(#paint49_linear_204_7)"/><path d="M1780.43 678.087c-62.28 10.187-117.78 16.753-166.76 19.784-206.09 12.789-291.69-33.066-326.41-86.325a129.723 129.723 0 01-15.31-32.706c-13.37-42.926-3.67-82.091-38.71-120.84-37.51-41.46-96.28-43.283-157.8-37.875-81.704 7.111-166.696 28.587-205.264-18.085a66.23 66.23 0 01-5.749-8.012c-45.922-75.412 64.41-220.536 11.621-268.049-31.359-28.246-84.057 11.355-155.736 33.227a254.544 254.544 0 01-113.997 10.465c-101.642-15.593-143.57-94.24-194.237-146.995-25.394-26.467-52.797-46.418-91.067-48.204-63.816-3.16-116.023 48.708-163.693 109.948-70.339 90.223-131.82 201.106-207.775 190.105-58.389-8.439-98.062-84.145-124.405-157.643" stroke="url(#paint50_linear_204_7)"/><path d="M1789.42 668.937c-335.48 52.558-450.13-4.649-491.15-69.565-35.65-56.289-9.37-105.048-54.33-153.096-89.71-95.818-298.425 30.231-365.751-50.762-59.886-72.081 59.452-226.733 4.855-275.322-46.683-41.287-139.468 66.721-271.609 45.554-154.845-24.71-171.54-195.83-286.86-201.204-158.947-7.459-244.38 325.754-373.286 308.583-58.577-7.68-98.719-83.648-125.466-158.344" stroke="url(#paint51_linear_204_7)"/></g><defs><linearGradient id="paint0_linear_204_7" x1="934.54" y1="1106.61" x2="1301.62" y2="1186.2" gradientUnits="userSpaceOnUse"><stop stop-color="#94C6FF"/><stop offset="1" stop-color="#fff" stop-opacity="0"/></linearGradient><linearGradient id="paint1_linear_204_7" x1="942.861" y1="1096.17" x2="1581.63" y2="1166.31" gradientUnits="userSpaceOnUse"><stop stop-color="#94C6FF"/><stop offset="1" stop-color="#fff" stop-opacity="0"/></linearGradient><linearGradient id="paint2_linear_204_7" x1="951.108" y1="1085.79" x2="1591.17" y2="1153.28" gradientUnits="userSpaceOnUse"><stop stop-color="#94C6FF"/><stop offset="1" stop-color="#fff" stop-opacity="0"/></linearGradient><linearGradient id="paint3_linear_204_7" x1="959.32" y1="1075.37" x2="1600.74" y2="1140.14" gradientUnits="userSpaceOnUse"><stop stop-color="#94C6FF"/><stop offset="1" stop-color="#fff" stop-opacity="0"/></linearGradient><linearGradient id="paint4_linear_204_7" x1="967.79" y1="1065.01" x2="1610.19" y2="1127.03" gradientUnits="userSpaceOnUse"><stop stop-color="#94C6FF"/><stop offset="1" stop-color="#fff" stop-opacity="0"/></linearGradient><linearGradient id="paint5_linear_204_7" x1="975.94" y1="1054.49" x2="1619.76" y2="1113.65" gradientUnits="userSpaceOnUse"><stop stop-color="#94C6FF"/><stop offset="1" stop-color="#fff" stop-opacity="0"/></linearGradient><linearGradient id="paint6_linear_204_7" x1="984.179" y1="1044" x2="1629.22" y2="1100.26" gradientUnits="userSpaceOnUse"><stop stop-color="#94C6FF"/><stop offset="1" stop-color="#fff" stop-opacity="0"/></linearGradient><linearGradient id="paint7_linear_204_7" x1="992.599" y1="1033.61" x2="1638.6" y2="1086.95" gradientUnits="userSpaceOnUse"><stop stop-color="#94C6FF"/><stop offset="1" stop-color="#fff" stop-opacity="0"/></linearGradient><linearGradient id="paint8_linear_204_7" x1="1000.8" y1="1023.08" x2="1647.99" y2="1073.38" gradientUnits="userSpaceOnUse"><stop stop-color="#94C6FF"/><stop offset="1" stop-color="#fff" stop-opacity="0"/></linearGradient><linearGradient id="paint9_linear_204_7" x1="1008.97" y1="1012.96" x2="1657.22" y2="1060.18" gradientUnits="userSpaceOnUse"><stop stop-color="#94C6FF"/><stop offset="1" stop-color="#fff" stop-opacity="0"/></linearGradient><linearGradient id="paint10_linear_204_7" x1="1017.53" y1="1002.02" x2="1666.64" y2="1046.14" gradientUnits="userSpaceOnUse"><stop stop-color="#94C6FF"/><stop offset="1" stop-color="#fff" stop-opacity="0"/></linearGradient><linearGradient id="paint11_linear_204_7" x1="1025.82" y1="991.639" x2="1675.86" y2="1032.55" gradientUnits="userSpaceOnUse"><stop stop-color="#94C6FF"/><stop offset="1" stop-color="#fff" stop-opacity="0"/></linearGradient><linearGradient id="paint12_linear_204_7" x1="1034.12" y1="981.119" x2="1685.02" y2="1018.74" gradientUnits="userSpaceOnUse"><stop stop-color="#94C6FF"/><stop offset="1" stop-color="#fff" stop-opacity="0"/></linearGradient><linearGradient id="paint13_linear_204_7" x1="1042.38" y1="970.559" x2="1694.18" y2="1004.84" gradientUnits="userSpaceOnUse"><stop stop-color="#94C6FF"/><stop offset="1" stop-color="#fff" stop-opacity="0"/></linearGradient><linearGradient id="paint14_linear_204_7" x1="1050.73" y1="960.274" x2="1703.14" y2="991.187" gradientUnits="userSpaceOnUse"><stop stop-color="#94C6FF"/><stop offset="1" stop-color="#fff" stop-opacity="0"/></linearGradient><linearGradient id="paint15_linear_204_7" x1="1058.76" y1="949.445" x2="1712.05" y2="976.804" gradientUnits="userSpaceOnUse"><stop stop-color="#94C6FF"/><stop offset="1" stop-color="#fff" stop-opacity="0"/></linearGradient><linearGradient id="paint16_linear_204_7" x1="1067.43" y1="939.023" x2="1721.13" y2="962.934" gradientUnits="userSpaceOnUse"><stop stop-color="#94C6FF"/><stop offset="1" stop-color="#fff" stop-opacity="0"/></linearGradient><linearGradient id="paint17_linear_204_7" x1="1075.77" y1="928.5" x2="1730.05" y2="948.757" gradientUnits="userSpaceOnUse"><stop stop-color="#94C6FF"/><stop offset="1" stop-color="#fff" stop-opacity="0"/></linearGradient><linearGradient id="paint18_linear_204_7" x1="1084.09" y1="918.116" x2="1738.72" y2="934.64" gradientUnits="userSpaceOnUse"><stop stop-color="#94C6FF"/><stop offset="1" stop-color="#fff" stop-opacity="0"/></linearGradient><linearGradient id="paint19_linear_204_7" x1="1092.37" y1="907.583" x2="1747.54" y2="920.349" gradientUnits="userSpaceOnUse"><stop stop-color="#94C6FF"/><stop offset="1" stop-color="#fff" stop-opacity="0"/></linearGradient><linearGradient id="paint20_linear_204_7" x1="1100.78" y1="896.705" x2="1756.22" y2="905.616" gradientUnits="userSpaceOnUse"><stop stop-color="#94C6FF"/><stop offset="1" stop-color="#fff" stop-opacity="0"/></linearGradient><linearGradient id="paint21_linear_204_7" x1="1109.07" y1="886.438" x2="1764.78" y2="891.393" gradientUnits="userSpaceOnUse"><stop stop-color="#94C6FF"/><stop offset="1" stop-color="#fff" stop-opacity="0"/></linearGradient><linearGradient id="paint22_linear_204_7" x1="1117.35" y1="875.961" x2="1773.17" y2="876.809" gradientUnits="userSpaceOnUse"><stop stop-color="#94C6FF"/><stop offset="1" stop-color="#fff" stop-opacity="0"/></linearGradient><linearGradient id="paint23_linear_204_7" x1="1125.67" y1="865.404" x2="1781.55" y2="862.202" gradientUnits="userSpaceOnUse"><stop stop-color="#94C6FF"/><stop offset="1" stop-color="#fff" stop-opacity="0"/></linearGradient><linearGradient id="paint24_linear_204_7" x1="1134.01" y1="854.912" x2="1789.85" y2="847.51" gradientUnits="userSpaceOnUse"><stop stop-color="#94C6FF"/><stop offset="1" stop-color="#fff" stop-opacity="0"/></linearGradient><linearGradient id="paint25_linear_204_7" x1="1142.42" y1="844.444" x2="1798.08" y2="832.753" gradientUnits="userSpaceOnUse"><stop stop-color="#94C6FF"/><stop offset="1" stop-color="#fff" stop-opacity="0"/></linearGradient><linearGradient id="paint26_linear_204_7" x1="1150.62" y1="833.966" x2="1806.05" y2="817.915" gradientUnits="userSpaceOnUse"><stop stop-color="#94C6FF"/><stop offset="1" stop-color="#fff" stop-opacity="0"/></linearGradient><linearGradient id="paint27_linear_204_7" x1="1158.93" y1="823.539" x2="1813.83" y2="802.882" gradientUnits="userSpaceOnUse"><stop stop-color="#94C6FF"/><stop offset="1" stop-color="#fff" stop-opacity="0"/></linearGradient><linearGradient id="paint28_linear_204_7" x1="1167.24" y1="812.979" x2="1821.71" y2="787.907" gradientUnits="userSpaceOnUse"><stop stop-color="#94C6FF"/><stop offset="1" stop-color="#fff" stop-opacity="0"/></linearGradient><linearGradient id="paint29_linear_204_7" x1="1175.52" y1="802.602" x2="1829.36" y2="772.83" gradientUnits="userSpaceOnUse"><stop stop-color="#94C6FF"/><stop offset="1" stop-color="#fff" stop-opacity="0"/></linearGradient><linearGradient id="paint30_linear_204_7" x1="1183.77" y1="792.065" x2="1836.9" y2="757.488" gradientUnits="userSpaceOnUse"><stop stop-color="#94C6FF"/><stop offset="1" stop-color="#fff" stop-opacity="0"/></linearGradient><linearGradient id="paint31_linear_204_7" x1="1192.09" y1="781.712" x2="1844.28" y2="742.334" gradientUnits="userSpaceOnUse"><stop stop-color="#94C6FF"/><stop offset="1" stop-color="#fff" stop-opacity="0"/></linearGradient><linearGradient id="paint32_linear_204_7" x1="1200.37" y1="771.265" x2="1851.52" y2="727.028" gradientUnits="userSpaceOnUse"><stop stop-color="#94C6FF"/><stop offset="1" stop-color="#fff" stop-opacity="0"/></linearGradient><linearGradient id="paint33_linear_204_7" x1="1208.6" y1="760.882" x2="1858.56" y2="711.634" gradientUnits="userSpaceOnUse"><stop stop-color="#94C6FF"/><stop offset="1" stop-color="#fff" stop-opacity="0"/></linearGradient><linearGradient id="paint34_linear_204_7" x1="1217.01" y1="750.369" x2="1865.66" y2="696.23" gradientUnits="userSpaceOnUse"><stop stop-color="#94C6FF"/><stop offset="1" stop-color="#fff" stop-opacity="0"/></linearGradient><linearGradient id="paint35_linear_204_7" x1="1225.15" y1="740.114" x2="1872.26" y2="680.667" gradientUnits="userSpaceOnUse"><stop stop-color="#94C6FF"/><stop offset="1" stop-color="#fff" stop-opacity="0"/></linearGradient><linearGradient id="paint36_linear_204_7" x1="1233.26" y1="730.166" x2="1879.06" y2="665.988" gradientUnits="userSpaceOnUse"><stop stop-color="#94C6FF"/><stop offset="1" stop-color="#fff" stop-opacity="0"/></linearGradient><linearGradient id="paint37_linear_204_7" x1="1237.63" y1="729.241" x2="1887" y2="667.898" gradientUnits="userSpaceOnUse"><stop stop-color="#94C6FF"/><stop offset="1" stop-color="#fff" stop-opacity="0"/></linearGradient><linearGradient id="paint38_linear_204_7" x1="1242.04" y1="728.022" x2="1895" y2="669.416" gradientUnits="userSpaceOnUse"><stop stop-color="#94C6FF"/><stop offset="1" stop-color="#fff" stop-opacity="0"/></linearGradient><linearGradient id="paint39_linear_204_7" x1="1246.35" y1="727.015" x2="1902.91" y2="670.997" gradientUnits="userSpaceOnUse"><stop stop-color="#94C6FF"/><stop offset="1" stop-color="#fff" stop-opacity="0"/></linearGradient><linearGradient id="paint40_linear_204_7" x1="1250.5" y1="726.531" x2="1910.6" y2="673.386" gradientUnits="userSpaceOnUse"><stop stop-color="#94C6FF"/><stop offset="1" stop-color="#fff" stop-opacity="0"/></linearGradient><linearGradient id="paint41_linear_204_7" x1="1254.7" y1="725.972" x2="1918.23" y2="675.488" gradientUnits="userSpaceOnUse"><stop stop-color="#94C6FF"/><stop offset="1" stop-color="#fff" stop-opacity="0"/></linearGradient><linearGradient id="paint42_linear_204_7" x1="1259.03" y1="724.806" x2="1926.06" y2="676.996" gradientUnits="userSpaceOnUse"><stop stop-color="#94C6FF"/><stop offset="1" stop-color="#fff" stop-opacity="0"/></linearGradient><linearGradient id="paint43_linear_204_7" x1="1263.39" y1="723.947" x2="1933.66" y2="678.818" gradientUnits="userSpaceOnUse"><stop stop-color="#94C6FF"/><stop offset="1" stop-color="#fff" stop-opacity="0"/></linearGradient><linearGradient id="paint44_linear_204_7" x1="1267.59" y1="723.416" x2="1941.32" y2="681.188" gradientUnits="userSpaceOnUse"><stop stop-color="#94C6FF"/><stop offset="1" stop-color="#fff" stop-opacity="0"/></linearGradient><linearGradient id="paint45_linear_204_7" x1="1271.88" y1="722.334" x2="1948.85" y2="682.486" gradientUnits="userSpaceOnUse"><stop stop-color="#94C6FF"/><stop offset="1" stop-color="#fff" stop-opacity="0"/></linearGradient><linearGradient id="paint46_linear_204_7" x1="1276.25" y1="721.478" x2="1956.4" y2="684.228" gradientUnits="userSpaceOnUse"><stop stop-color="#94C6FF"/><stop offset="1" stop-color="#fff" stop-opacity="0"/></linearGradient><linearGradient id="paint47_linear_204_7" x1="1280.52" y1="720.635" x2="1963.79" y2="685.844" gradientUnits="userSpaceOnUse"><stop stop-color="#94C6FF"/><stop offset="1" stop-color="#fff" stop-opacity="0"/></linearGradient><linearGradient id="paint48_linear_204_7" x1="1284.76" y1="719.891" x2="1971.14" y2="687.617" gradientUnits="userSpaceOnUse"><stop stop-color="#94C6FF"/><stop offset="1" stop-color="#fff" stop-opacity="0"/></linearGradient><linearGradient id="paint49_linear_204_7" x1="1289.07" y1="718.537" x2="1978.49" y2="688.75" gradientUnits="userSpaceOnUse"><stop stop-color="#94C6FF"/><stop offset="1" stop-color="#fff" stop-opacity="0"/></linearGradient><linearGradient id="paint50_linear_204_7" x1="1293.41" y1="717.961" x2="1985.92" y2="690.508" gradientUnits="userSpaceOnUse"><stop stop-color="#94C6FF"/><stop offset="1" stop-color="#fff" stop-opacity="0"/></linearGradient><linearGradient id="paint51_linear_204_7" x1="1298.03" y1="716.521" x2="1993.52" y2="691.558" gradientUnits="userSpaceOnUse"><stop stop-color="#94C6FF"/><stop offset="1" stop-color="#fff" stop-opacity="0"/></linearGradient><clipPath id="clip0_204_7"><path fill="#fff" d="M0 0h1256v450H0z"/></clipPath></defs></svg>