<svg width="1800" height="802" fill="none" xmlns="http://www.w3.org/2000/svg"><g clip-path="url(#clip0_204_84)" stroke-width=".5" stroke-miterlimit="10"><path d="M204.168 967.353c-.017-44.075 6.986-90.924 20.86-139.596 9.717-34.095 76.426-267.643 208.625-335.805 106.551-54.926 157.075 49.341 278.339-12.605 99.303-50.823 120.066-146.117 198.154-173.293 94.134-32.762 116.164 88.363 217.134 48.251 16.88-6.946 33.55-16.685 48.69-28.44 15.13-11.757 28.32-25.207 38.5-39.282 39.71-57.404-21.9-76.397-3.62-157.707 15.2-67.687 75.76-132.352 98.09-156.064 114.69-121.897 263.21-168.937 286.96-176.179" stroke="url(#paint0_linear_204_84)"/><path d="M207.142 973.913c.137-43.979 7.391-90.751 21.605-139.339 9.913-33.237 65.839-224.173 172.755-310.353 11.372-9.228 23.763-17.342 36.575-23.951 47.493-24.291 83.702-16.988 120.517-7.732 45.297 11.536 90.35 26.869 156.478-7.641 93.188-48.549 116.546-136.96 185.817-168.737a125.134 125.134 0 0110.645-4.277c93.856-32.839 116.756 87.525 216.936 47.394 16.9-7.156 33.52-17.106 48.51-29.043 14.99-11.936 27.92-25.523 37.76-39.656 14.67-21.651 15.46-37.953 12.03-54.369-5.7-27.626-23.45-54.284-10.76-104.903 4.49-17.288 11.72-35.223 21.52-53.346 24.65-46.387 60.04-85.678 75.86-103.46 43.11-47.983 97.39-90.654 156.05-122.669 42.08-23.381 85.21-41.977 127.58-55.009" stroke="url(#paint1_linear_204_84)"/><path d="M210.185 980.449c.294-43.879 7.779-90.57 22.282-139.058 11.031-35.703 67.401-224.327 173.57-309.113 11.348-9.151 23.704-17.177 36.464-23.69 47.308-24.007 83.426-16.814 120.337-8.204 45.598 10.485 90.048 24.817 155.221-9.797 91.861-48.78 115.233-136.804 184.168-168.498a113.895 113.895 0 0110.537-4.269c93.506-32.89 117.386 86.955 216.616 46.663 33.18-13.465 66.99-41.921 85.28-69.771 14.43-21.711 15.39-38.239 12.67-55.056-4.63-28.539-20.47-55.299-6.47-105.763 5.07-17.483 12.69-35.519 22.69-53.704 24.72-46.41 58.76-85.758 73.97-103.844 40.76-48.078 93.78-91.2 151.68-123.373 42.49-23.966 86.16-42.898 129.01-55.929" stroke="url(#paint2_linear_204_84)"/><path d="M213.181 986.98c.532-43.819 8.27-90.428 23.043-138.811 12.113-38.13 69.047-224.312 174.271-307.808 11.368-9.062 23.705-17.005 36.43-23.455 47.153-23.705 83.139-16.579 120.147-8.616 45.603 9.729 89.744 22.765 154.152-12.238 90.489-48.969 113.874-136.607 182.474-168.218a113.634 113.634 0 0110.538-4.269c93.264-32.95 117.954 86.235 216.504 45.72 33.21-13.64 66.05-42.392 84.66-70.906 14.23-21.813 15.33-38.525 13.27-55.701-3.56-29.452-17.4-56.399-2.14-106.665 5.69-17.661 13.69-35.773 23.85-54.003 24.84-46.478 57.55-85.862 72.14-104.27 38.31-48.11 90.04-91.701 147.22-124.051 42.63-24.46 86.6-43.667 129.69-56.658" stroke="url(#paint3_linear_204_84)"/><path d="M216.154 993.539c1.595-33.03 4.459-79.534 23.774-138.544 13.281-40.589 70.824-224.372 175.103-306.578 11.353-8.973 23.65-16.826 36.318-23.194 46.968-23.42 82.82-16.361 119.975-9.147 45.693 8.89 89.515 20.69 152.989-14.535 89.456-49.494 112.51-136.352 180.573-167.729 3.499-1.63 7.01-3.062 10.503-4.285 93.021-33.011 118.641 85.505 216.351 44.879 33.23-13.817 65.15-42.85 83.39-71.55 14.03-21.914 15.3-38.853 13.78-56.262-2.48-30.423-14.29-57.539 2.36-107.482 6.29-17.853 14.66-36.07 24.98-54.376 25.06-46.495 56.19-85.918 70.33-104.68 41.02-55.099 92.64-95.01 142.8-124.714 42.91-24.989 87.3-44.51 130.75-57.511" stroke="url(#paint4_linear_204_84)"/><path d="M219.164 1000.06c1.923-33.304 4.988-79.707 24.484-138.247 14.566-43.219 72.557-224.442 175.922-305.339 11.325-8.901 23.59-16.669 36.208-22.936 46.858-23.159 82.459-16.101 119.828-9.6 45.825 8.007 89.22 18.579 151.825-16.834C815.417 457.37 838.618 370.968 906.6 339.421a111.258 111.258 0 0110.469-4.302c92.701-33.044 119.171 84.826 216.111 44.064 33.3-14.036 64.25-43.307 82.59-72.712 13.8-21.974 15.28-39.122 14.51-57.033-1.38-31.32-11.26-58.598 6.48-108.427 6.92-18.016 15.67-36.315 26.14-54.676 25.25-46.586 55.05-85.93 68.46-105.122 33.44-47.984 82.62-92.524 138.46-125.401 43.16-25.536 87.96-45.367 131.77-58.323" stroke="url(#paint5_linear_204_84)"/><path d="M222.193 1006.61c2.301-33.632 5.156-79.627 25.175-137.981 15.59-45.542 74.283-224.51 176.692-304.056 11.322-8.83 23.561-16.523 36.14-22.717 46.672-22.875 82.14-15.884 119.682-10.055 45.922 7.108 89.05 16.595 150.619-19.089 86.709-50.067 109.83-135.94 177.485-167.461a131.127 131.127 0 0110.437-4.32c92.387-33.079 119.747 84.106 215.877 43.247 33.39-14.178 63.38-43.746 81.69-73.673 13.6-22.075 15.26-39.45 15.11-57.679-.26-32.331-8.14-59.738 10.78-109.344 7.55-18.185 16.69-36.58 27.33-55.017 25.33-46.611 53.76-85.892 66.51-105.424 30.92-47.826 78.81-92.862 134.03-126.06 43.47-26.219 88.79-46.485 133.06-59.504" stroke="url(#paint6_linear_204_84)"/><path d="M225.167 1013.17c2.735-33.968 5.848-79.967 25.991-137.746 16.71-48.007 75.928-224.493 177.4-302.807 11.317-8.742 23.529-16.341 36.062-22.439 46.52-22.573 81.684-15.482 119.5-10.526 46.047 6.284 88.616 14.475 149.459-21.389 85.388-50.356 108.506-135.725 175.834-167.223a130.224 130.224 0 0110.394-4.276c92.063-33.115 120.323 83.384 215.683 42.389 33.42-14.355 62.27-43.995 80.76-74.652 13.4-22.176 15.2-39.794 15.68-58.34.85-33.287-5.04-60.879 15.17-110.213 8.16-18.304 17.62-36.749 28.3-55.225 25.48-46.66 52.49-85.835 64.78-105.916 28.45-47.614 75.03-93.15 129.66-126.764 57.82-36.318 112.86-53.687 133.85-59.989" stroke="url(#paint7_linear_204_84)"/><path d="M228.178 1019.69c3.096-34.223 6.376-80.14 26.701-137.448 17.829-50.472 77.66-224.562 178.346-301.695 11.315-8.663 23.503-16.187 35.994-22.221 46.376-22.33 81.618-15.515 119.352-10.98 46.145 5.386 88.246 12.389 148.263-23.704C820.935 473.014 843.9 388.197 911.01 356.716a129.515 129.515 0 0110.328-4.31c91.822-33.174 120.972 82.638 215.472 41.59 33.53-14.615 61.59-44.661 79.89-75.729 13.18-22.219 15.14-40.081 16.27-58.928 2-34.282-1.93-62.02 19.47-111.132 8.77-18.498 18.65-37.096 29.59-55.707 25.63-46.71 51.09-85.849 62.87-106.317 12.85-23.43 30.58-46.801 52.12-68.705 21.53-21.902 46.43-41.886 73.19-58.746 57.01-36.666 112.75-54.184 134.86-60.801" stroke="url(#paint8_linear_204_84)"/><path d="M231.068 1026.22c3.479-34.598 6.942-80.347 27.295-137.279 19.019-52.96 79.38-224.573 178.994-300.287 11.288-8.594 23.442-16.033 35.884-21.962 46.223-22.028 81.172-15.173 119.173-11.452 46.275 4.504 87.973 10.356 147.03-26.035 82.816-50.902 105.818-135.254 172.585-166.595a119.295 119.295 0 0110.328-4.311c91.513-33.267 121.583 81.876 215.243 40.715 33.47-14.648 60.51-44.89 79-76.69 12.94-22.279 15.14-40.391 16.87-59.631 3.11-35.237 1.18-63.103 23.8-112.034 8.37-18.335 20.17-36.828 30.71-55.963 25.74-46.777 49.93-85.744 61.03-106.744 28.67-54.34 71.24-95.869 121.1-128.322 56.51-36.862 112.72-54.705 135.97-61.697" stroke="url(#paint9_linear_204_84)"/><path d="M234.18 1032.79c3.889-34.905 7.502-80.504 28.16-136.944 20.188-55.418 81.074-224.55 179.809-298.94 11.282-8.522 23.413-15.887 35.815-21.743 46.037-21.742 80.811-14.914 119.025-11.907 46.332 3.648 87.713 8.263 145.935-28.299 81.463-51.209 104.429-135.075 170.759-166.382a125.931 125.931 0 0110.286-4.269c91.201-33.303 122.251 81.011 215.011 39.899 33.65-14.934 59.82-45.557 78.14-77.693 12.74-22.38 15.12-40.719 17.47-60.276 4.27-36.293 4.26-64.32 28.03-112.988 8.98-18.341 21.19-36.943 31.91-56.303 25.89-46.828 48.65-85.63 59.15-107.128 26.33-54.071 67.02-95.925 116.48-128.834 55.86-37.123 112.65-55.183 137.02-62.491" stroke="url(#paint10_linear_204_84)"/><path d="M237.138 1039.36c4.287-35.2 8.186-80.734 28.921-136.698 21.426-57.9 82.878-224.642 180.524-297.75 11.277-8.433 23.382-15.703 35.738-21.466 45.901-21.558 80.491-14.696 118.845-12.377 46.454 2.823 87.283 6.336 144.77-30.597 80.176-51.483 103.065-134.819 169.144-166.128 3.4-1.634 6.817-3.073 10.219-4.303 90.951-33.361 122.781 80.392 214.821 39.042 33.75-15.135 58.98-45.98 77.17-78.689 12.54-22.481 15.18-41.071 18.07-60.92 5.46-37.272 7.73-65.663 32.46-113.839 9.49-18.398 22.14-37.031 33-56.637 26.05-46.877 47.5-85.584 57.31-107.554 23.97-53.876 62.77-96.056 112.14-129.519 55.14-37.362 112.5-55.639 138.03-63.303" stroke="url(#paint11_linear_204_84)"/><path d="M240.149 1045.88c4.737-35.55 8.82-80.912 29.631-136.399 22.654-60.426 84.632-224.636 181.299-296.469 11.275-8.356 23.352-15.551 35.669-21.247 45.621-21.13 80.029-14.488 118.663-12.849 46.554 1.925 87.107 4.159 143.534-32.871 78.931-51.797 101.749-134.663 167.493-165.888a109.694 109.694 0 0110.22-4.304c90.642-33.454 123.402 79.571 214.622 38.184 33.78-15.311 58.08-46.436 76.24-79.666 12.38-22.566 15.15-41.399 18.67-61.567 6.62-38.326 10.67-66.635 36.76-114.756 10.04-18.439 23.12-37.104 34.2-56.978 26.12-46.9 46.26-85.453 55.47-107.98 21.83-53.446 58.45-96.162 107.67-130.14 54.51-37.623 112.45-56.176 139.1-64.156" stroke="url(#paint12_linear_204_84)"/><path d="M243.193 1052.42c4.977-35.79 9.418-81.112 30.306-136.123 23.878-62.897 86.392-224.685 182.113-295.227 11.248-8.286 23.292-15.395 35.558-20.987 45.689-21.096 79.777-14.237 118.517-13.304 46.643 1.085 86.803 2.109 142.454-35.252 77.58-52.104 100.384-134.407 165.844-165.65a137.36 137.36 0 0110.143-4.278c90.362-33.472 124.022 78.807 214.422 37.384 33.84-15.528 57.21-46.876 75.32-80.701 12.2-22.593 15.24-41.737 19.31-62.255 7.81-39.306 13.86-67.801 41.08-115.599 10.55-18.498 24.07-37.194 35.36-57.335 26.24-46.97 45.03-85.324 53.6-108.365 19.75-53.235 54.16-96.311 103.42-130.968 53.86-37.887 112.49-56.782 140.11-64.969" stroke="url(#paint13_linear_204_84)"/><path d="M246.151 1058.99c5.442-36.15 10.137-81.324 31.08-136.043 25.083-65.394 88.117-224.644 182.825-293.93 11.263-8.197 23.291-15.223 35.523-20.751 45.419-20.728 79.483-13.944 118.335-13.774 46.734.245 86.536.072 141.209-37.467 76.283-52.319 99.061-134.194 164.186-165.354a116.092 116.092 0 0110.11-4.294c90.081-33.55 124.601 78.027 214.191 36.509 33.9-15.689 56.35-47.316 74.43-81.664 11.99-22.693 15.25-42.105 19.9-62.898 9.01-40.344 17.05-68.968 45.38-116.519 11.06-18.553 25.09-37.308 36.32-57.483 26.42-47.003 43.9-85.26 51.76-108.792 17.69-52.888 49.9-96.383 98.95-131.529 53.34-38.022 112.09-56.983 141.13-65.78" stroke="url(#paint14_linear_204_84)"/><path d="M249.328 1065.35c5.839-36.45 10.821-81.556 31.852-135.661 26.359-67.914 89.973-224.64 183.601-292.702 11.238-8.126 23.232-15.065 35.411-20.491 45.267-20.426 79.188-13.65 118.19-14.229 46.789-.612 86.198-1.996 140.044-39.765 74.964-52.609 97.621-133.913 162.503-165.132a135.504 135.504 0 0110.077-4.312c89.724-33.542 125.174 77.308 213.944 35.753 33.97-15.907 55.48-47.756 73.67-82.809 11.75-22.754 15.23-42.434 20.43-63.52 10.23-41.365 20.24-70.193 49.74-117.403 11.57-18.611 26.03-37.397 37.65-58.009 21.35-36.811 38.09-73.46 49.88-109.175 15.64-52.6 45.62-96.532 94.53-132.191 52.54-38.37 112.2-57.689 142.44-66.885" stroke="url(#paint15_linear_204_84)"/><path d="M252.19 1072.06c6.18-36.74 11.468-81.746 32.49-135.342 27.584-70.385 91.712-224.715 184.46-291.452 11.239-7.96 23.177-14.748 35.276-20.055 45.079-20.139 78.726-13.441 118.007-14.699 46.854-1.528 85.928-4.031 138.881-42.063 73.679-52.882 96.339-133.74 160.947-165.036a135.78 135.78 0 0110.002-4.288c89.447-33.618 125.797 76.487 213.747 34.896 34.04-16.126 54.62-48.197 72.62-83.721 11.62-22.821 15.36-42.811 21.1-64.19 11.43-42.403 23.5-71.324 53.88-118.154 12.14-18.635 27.01-37.471 38.8-58.308 21.53-37.087 37.69-73.961 48.05-109.6 13.66-52.339 41.33-96.623 90.15-132.895 51.84-38.532 112.09-58.186 143.35-67.437" stroke="url(#paint16_linear_204_84)"/><path d="M255.164 1078.62c6.582-37.09 12.21-81.985 33.147-134.996 28.822-72.865 93.384-224.625 185.194-290.129 11.234-7.97 23.176-14.759 35.276-20.055 44.936-19.897 78.407-13.224 117.861-15.154 46.977-2.351 85.591-6.099 137.685-44.379 72.391-53.154 95.015-133.524 159.152-164.554a106.277 106.277 0 0110.044-4.328c89.247-33.662 126.377 75.706 213.517 34.019 34.11-16.284 53.89-48.567 71.73-84.681 11.45-22.906 15.34-43.138 21.71-64.893 12.65-43.425 26.75-72.516 58.36-119.165 12.79-18.818 27.79-37.644 39.94-58.682 21.72-37.37 37.3-74.473 46.16-109.986 11.8-52.084 37.08-96.695 85.78-133.599 51.19-38.735 112.05-58.647 144.23-68.316" stroke="url(#paint17_linear_204_84)"/><path d="M258.159 1085.15c6.994-37.39 12.801-82.07 33.818-134.662 30.133-75.368 95.129-224.757 185.986-288.911 11.169-7.868 23.02-14.57 35.022-19.803 44.85-19.562 78.045-12.966 117.68-15.626 47.066-3.191 85.322-8.135 136.556-46.66 71.039-53.462 93.716-133.235 157.469-164.332a120.723 120.723 0 019.969-4.304c88.891-33.714 127.041 74.901 213.321 33.22 34.17-16.502 52.91-49.058 70.8-85.717 11.29-22.991 15.39-43.493 22.26-65.498 13.96-44.47 30.07-73.748 62.66-120.025 13.12-18.646 28.98-37.673 41.09-58.98 21.89-37.665 36.87-75.002 44.29-110.37 9.94-51.889 32.78-96.784 81.35-134.26 50.58-38.981 111.99-59.186 145.36-69.136" stroke="url(#paint18_linear_204_84)"/><path d="M261.132 1091.71c7.391-37.69 13.665-82.38 34.663-134.604 31.479-77.91 97.019-224.683 186.763-287.631 11.208-7.798 23.086-14.405 35.088-19.518 44.596-19.31 77.682-12.705 117.658-16.205 47.114-3.989 84.984-10.203 135.316-48.932 69.754-53.736 92.303-133.132 155.821-164.095a113.977 113.977 0 019.968-4.305c88.581-33.806 127.631 74.063 213.211 32.28 34.24-16.721 52.05-49.499 69.87-86.696 11.12-23.075 15.44-43.845 22.86-66.141 15.2-45.552 33.33-74.941 67.03-120.969 13.86-18.781 29.93-37.764 42.26-59.339 21.98-37.892 36.38-75.389 42.44-110.544 8.07-51.575 28.5-96.874 76.94-134.922 49.89-39.143 111.88-59.682 146.38-69.948" stroke="url(#paint19_linear_204_84)"/><path d="M264.349 1098.27c7.923-37.92 14.349-82.61 35.405-134.284 32.756-80.429 98.851-224.702 187.583-286.393 11.186-7.719 23.028-14.239 34.976-19.257 44.388-19.101 77.322-12.447 117.227-16.426 47.204-4.829 84.713-12.237 134.153-51.23 68.341-53.883 90.936-132.876 154.162-163.798a106.133 106.133 0 019.901-4.338c88.344-33.866 128.284 73.258 212.884 31.548 34.34-16.924 51.22-49.922 69.02-87.699 10.96-23.16 15.5-44.198 23.47-66.846 16.52-46.463 36.75-76.24 71.4-121.914 14.38-18.895 30.91-37.835 43.42-59.636 22.23-38.338 36.07-76.206 40.65-111.264 6.3-51.329 24.21-96.965 72.55-135.624 49.24-39.348 111.79-60.179 147.36-70.719" stroke="url(#paint20_linear_204_84)"/><path d="M267.134 1104.81c8.268-38.26 15.139-82.84 36.204-134.076 34.013-82.884 100.563-224.653 188.314-285.07 11.181-7.649 22.999-14.095 34.91-19.04 44.301-18.764 76.994-12.169 117.171-17.022 47.293-5.669 84.286-14.163 132.991-53.528 67.306-54.407 89.613-132.66 152.513-163.559a111.314 111.314 0 019.859-4.296c88.024-33.901 128.884 72.419 212.694 30.689 34.41-17.142 50.35-50.361 68.05-88.693 10.79-23.245 15.59-44.534 24.1-67.475 17.66-47.594 39.89-77.305 75.65-122.73 14.89-18.954 31.85-37.925 44.55-60.011 22.42-38.682 35.66-76.811 38.77-111.65 4.52-51.157 19.95-97.035 68.13-136.227 48.17-39.19 111.71-60.658 148.5-71.656" stroke="url(#paint21_linear_204_84)"/><path d="M270.145 1111.33c8.598-38.59 15.929-83.07 36.913-133.779 35.495-85.358 102.391-224.67 188.928-283.678 11.19-7.527 22.972-13.874 34.833-18.763 44.189-18.504 76.504-11.784 117.023-17.476 47.35-6.527 84.109-16.34 131.727-55.877 65.861-54.572 88.141-132.398 150.789-163.297 3.265-1.59 6.547-3.03 9.825-4.312 87.747-33.977 129.437 71.564 212.527 29.848 34.44-17.318 49.48-50.801 67.17-89.713 10.58-23.288 15.56-44.862 24.66-68.078 18.96-48.641 43.22-78.522 80.12-123.817 15.5-19.018 32.87-38.039 45.6-60.361 22.59-39.049 35.25-77.457 36.93-112.075 2.91-50.903 15.89-97.007 64.12-136.803 48.24-39.796 111.78-61.07 149.53-72.468" stroke="url(#paint22_linear_204_84)"/><path d="M273.19 1117.87c8.929-38.92 16.633-83.28 37.589-133.501 36.728-87.938 104.209-224.627 189.911-282.604 11.165-7.454 22.915-13.716 34.722-18.503 44.004-18.218 76.439-11.818 116.842-17.947 47.567-7.493 83.905-18.341 130.665-58.125 64.534-54.803 86.859-132.225 149.129-162.998a131.054 131.054 0 019.835-4.372c87.427-34.012 130.157 70.852 212.217 29.058 34.55-17.579 48.68-51.208 66.31-90.717 10.42-23.373 15.66-45.256 25.27-68.781 20.22-49.645 46.52-79.696 84.27-124.493 16.05-19.059 33.78-38.145 46.87-60.668 22.74-39.417 34.79-78.091 35.05-112.459 1.11-50.867 11.4-97.199 59.41-137.677 48.01-40.477 111.34-61.54 150.54-73.279" stroke="url(#paint23_linear_204_84)"/><path d="M276.148 1124.44c9.273-39.26 17.422-83.51 38.387-133.293 38.072-90.425 105.961-224.564 190.651-281.286 11.152-7.395 22.881-13.585 34.651-18.283 43.818-17.934 75.868-11.35 116.696-18.401 47.454-8.182 83.536-20.427 129.469-60.441 63.246-55.076 85.535-132.01 147.478-162.76a131.813 131.813 0 019.76-4.347c87.15-34.03 130.71 69.997 212.06 28.216 34.57-17.754 47.81-51.646 65.35-91.711 10.28-23.438 15.67-45.624 25.86-69.426 21.57-50.733 49.89-80.895 88.64-125.436 16.59-19.1 34.72-38.176 47.95-60.942 22.94-39.816 34.41-78.785 33.22-112.886-.44-50.83 7.39-97.464 54.99-138.338 46.7-40.128 111.47-62.171 151.63-74.116" stroke="url(#paint24_linear_204_84)"/><path d="M279.068 1131.05c9.49-39.48 18.173-83.71 39.096-133 39.452-92.95 107.827-224.567 191.471-280.047 11.138-7.299 22.825-13.397 34.542-18.024 43.707-17.674 75.504-11.091 116.514-18.873 47.528-9.157 83.359-22.604 128.516-62.948 61.959-55.349 84.213-131.796 145.83-162.522 3.24-1.616 6.5-3.068 9.759-4.346 86.874-34.107 131.304 69.158 211.864 27.358 34.64-17.972 46.98-52.07 64.42-92.689 10.11-23.524 15.93-45.877 26.46-70.071 22.79-51.696 53.23-82.112 92.98-126.339 17.13-19.14 35.66-38.265 49.11-61.299 23.01-40.17 33.82-79.368 31.21-113.144-2.16-50.626 2.88-97.286 50.45-138.875 46.04-40.272 111.39-62.65 152.69-74.97" stroke="url(#paint25_linear_204_84)"/><path d="M282.116 1137.53c9.986-39.97 19.001-83.98 39.843-132.74 40.714-95.552 109.621-224.547 192.218-278.787 11.148-7.218 22.82-13.235 34.507-17.788 43.521-17.389 75.143-10.832 116.368-19.328 47.591-9.819 82.885-24.487 127.066-65.011 60.707-55.605 82.889-131.581 144.172-162.225a109.252 109.252 0 019.726-4.364c86.564-34.198 131.894 68.32 211.594 26.527 34.74-18.174 46.15-52.493 63.53-93.71 9.98-23.592 15.88-46.28 27.06-70.717 24.21-52.807 56.59-83.25 97.31-127.24 17.78-19.187 36.64-38.337 50.27-61.598 27.77-47.645 31.66-84.702 29.5-113.696-3.78-50.563-1.35-97.34 46.19-139.702 45.26-40.294 111.34-63.189 153.75-75.824" stroke="url(#paint26_linear_204_84)"/><path d="M285.159 1144.06c10.447-40.17 19.719-84.19 40.519-132.45 42.262-97.998 111.442-224.512 193.034-277.552 11.125-7.143 22.763-13.074 34.396-17.528 43.37-17.088 74.741-10.53 116.188-19.8 47.638-10.617 82.617-26.521 125.937-67.292 59.387-55.895 81.499-131.402 142.321-161.836a119.392 119.392 0 019.482-4.423c86.274-34.218 132.654 67.314 211.434 25.685 34.78-18.41 45.31-52.916 62.64-94.729 9.82-23.676 15.98-46.674 27.7-71.404 25.44-53.83 56.33-86.295 101.56-128.117 21.21-19.252 38.82-40.46 51.44-61.956 27.82-47.687 30.77-84.714 27.62-114.08-5.37-50.485-5.36-97.606 41.85-140.39 44.76-40.546 111.27-63.726 154.77-76.635" stroke="url(#paint27_linear_204_84)"/><path d="M288.17 1150.58c10.81-40.49 20.579-84.44 41.265-132.2 43.677-100.498 113.257-224.405 193.771-276.222 11.118-7.07 22.731-12.926 34.326-17.31 43.258-16.827 74.413-10.254 116.041-20.253 47.728-11.459 82.314-28.575 124.698-69.566 58.058-56.126 80.134-131.145 140.797-161.724 3.2-1.623 6.427-3.073 9.651-4.338 86.001-34.294 133.121 66.6 211.151 24.91 34.89-18.668 44.45-53.355 61.71-95.706 9.69-23.803 16.06-47.011 28.27-72.066 26.82-54.9 59.88-87.527 105.93-129.002 21.71-19.216 39.74-40.577 52.56-62.272 28.11-47.727 29.88-84.783 25.82-114.547-6.99-50.424-9.83-97.411 37.43-141.052 44.22-40.818 111.16-64.163 155.79-77.448" stroke="url(#paint28_linear_204_84)"/><path d="M291.129 1157.16c11.275-40.85 21.332-84.64 42.06-131.94 45.078-103.001 114.944-224.436 194.554-275.005 11.122-6.951 22.7-12.708 34.25-17.031 43.072-16.543 74.05-9.995 115.859-20.725 47.642-12.325 81.443-30.913 123.577-71.906 57.541-56.011 78.727-130.848 139.181-161.468a117.534 117.534 0 019.442-4.382c85.688-34.328 133.758 65.722 210.998 24.012 34.92-18.846 43.65-53.763 60.83-96.727 9.51-23.828 16.1-47.304 28.86-72.652 28.12-55.948 63.44-88.818 110.22-129.921 22.27-19.162 40.75-40.697 53.75-62.613 28.19-47.752 29.07-84.82 23.95-114.932-8.57-50.403-14.09-97.484 32.8-141.503 43.72-41.071 111.1-64.702 157.02-78.469" stroke="url(#paint29_linear_204_84)"/><path d="M294.206 1163.71c11.587-41.11 22.034-84.84 42.687-131.67C383.471 926.504 453.8 807.712 532.231 758.316c11.107-6.907 22.668-12.594 34.182-16.814 42.842-16.214 73.647-9.693 115.711-21.179 47.791-13.071 81.708-32.676 122.415-74.204 55.444-56.63 77.412-130.692 137.455-161.204a109.65 109.65 0 019.442-4.382c85.404-34.404 134.344 64.883 210.804 23.154 34.98-19.064 42.81-54.186 59.9-97.704 9.34-23.914 16.2-47.7 29.63-73.524 29.42-56.935 66.95-89.95 114.55-130.765 22.77-19.103 41.7-40.8 54.87-62.927 28.31-47.82 28.18-84.892 22.04-115.334-10.12-50.366-21.31-99.373 28.66-142.399 45.61-39.292 110.88-65.19 157.91-79.156" stroke="url(#paint30_linear_204_84)"/><path d="M297.13 1170.26c12.05-41.47 22.91-85.11 43.534-131.45 47.944-108.054 118.802-224.367 196.069-272.455 11.093-6.804 22.612-12.4 34.071-16.555 42.733-15.954 73.32-9.416 115.532-21.649 47.745-13.728 81.352-34.629 121.25-76.502 54.159-56.904 76.089-130.478 135.765-160.925a120.373 120.373 0 019.442-4.382c85.067-34.514 134.947 63.986 210.567 22.338 35.06-19.341 42.16-54.834 59.01-98.724 9.08-24.049 16.29-48.036 30.06-74.002 30.8-58.005 73.51-89.213 118.85-131.683 20.72-19.405 41.55-38.816 56.04-63.284 28.38-47.845 27.36-84.928 20.23-115.744-11.79-50.261-25.5-99.412 24.29-143.102 44.86-39.605 110.84-65.652 158.92-79.968" stroke="url(#paint31_linear_204_84)"/><path d="M300.14 1176.78c12.363-41.73 23.681-85.28 44.196-131.16 49.492-110.587 120.578-224.176 196.933-271.208 11.069-6.736 22.553-12.246 33.961-16.294 42.589-15.711 72.915-9.115 115.35-22.121 47.994-14.676 81.168-36.747 120.046-78.758 52.915-57.219 74.733-130.281 134.19-160.712a115.145 115.145 0 019.442-4.381c84.942-34.39 135.532 63.147 210.332 21.522 35.09-19.518 41.15-55.031 58.08-99.703 9.12-24.089 16.54-48.538 30.66-74.646 32.13-59.035 76.82-90.254 123.24-132.551 21.34-19.471 42.47-38.924 57.17-63.601 28.5-47.911 26.55-85.082 18.39-116.17-13.2-50.41-29.69-99.392 19.83-143.781 44.47-39.808 110.85-66.156 160.02-80.804" stroke="url(#paint32_linear_204_84)"/><path d="M303.152 1183.3c12.774-42.04 24.47-85.51 44.904-130.86 51.139-113.229 122.431-224.12 197.673-269.945 11.084-6.625 22.547-12.052 33.926-16.059 42.437-15.41 72.511-8.814 115.203-22.576 48.008-15.492 80.822-38.756 118.85-81.072 51.619-57.435 73.409-130.068 132.54-160.473a107.714 107.714 0 019.442-4.382c84.5-34.552 136.1 62.29 210.14 20.662 35.02-19.803 40.56-55.704 57.15-100.68 8.92-24.19 16.34-48.639 31.26-75.291 33.47-60.064 80.15-91.41 127.5-133.486 21.95-19.477 43.45-38.997 58.37-63.942 28.61-47.978 25.7-85.134 16.51-116.553-14.69-50.474-33.82-99.398 15.49-144.469 43.82-40.07 110.74-66.652 161.04-81.615" stroke="url(#paint33_linear_204_84)"/><path d="M306.143 1189.89c13.19-42.4 25.297-85.79 45.732-130.59 52.536-115.666 124.248-224.069 198.453-268.713 11.065-6.534 22.489-11.872 33.815-15.798 42.25-15.125 72.183-8.539 115.024-23.047 48.087-16.273 80.55-40.791 117.718-83.355 50.334-57.707 72.053-129.869 130.84-160.134a118.231 118.231 0 019.442-4.382c84.253-34.61 136.733 61.412 209.933 19.865 35.28-20.054 39.77-56.169 56.23-101.716 8.79-24.26 16.58-49.085 31.9-75.979 34.81-61.094 83.5-92.492 131.83-134.33 22.54-19.559 44.36-39.103 59.6-64.266 28.72-47.986 24.89-85.229 14.63-116.938-16.23-50.495-38.07-99.277 11.11-145.17 43.21-40.317 110.63-67.15 161.93-82.303" stroke="url(#paint34_linear_204_84)"/><path d="M309.154 1196.41c13.551-42.66 26.05-85.98 46.413-130.36 53.98-118.105 126.056-223.918 199.191-267.397 11.054-6.481 22.458-11.745 33.746-15.58 42.14-14.864 71.813-8.22 114.876-23.501 48.136-17.072 80.282-42.826 116.423-85.72 49.047-57.981 70.687-129.614 129.158-159.914a112.541 112.541 0 019.399-4.339c83.94-34.645 137.33 60.514 209.71 18.99 35.27-20.056 39.01-56.618 55.33-102.678 8.66-24.386 16.63-49.438 32.5-76.624 36.14-62.124 86.86-93.633 136.05-135.283 23.37-19.774 45.42-39.2 60.66-64.615 28.84-48.053 24.09-85.383 12.84-117.406-17.81-50.532-39.39-97.667 6.64-145.79 40.05-41.865 110.58-67.687 163.16-83.323" stroke="url(#paint35_linear_204_84)"/><path d="M312.113 1202.98c13.966-43.02 26.943-86.22 47.173-130.11 55.627-120.748 127.909-223.861 200.006-266.158 11.035-6.388 22.401-11.565 33.636-15.321 41.953-14.579 71.493-8.002 114.77-23.997 48.184-17.869 80.012-44.86 115.36-87.967 47.625-58.069 69.281-129.316 127.466-159.633a122.267 122.267 0 019.399-4.339c83.667-34.722 137.927 59.615 209.497 18.19 35.38-20.509 38.27-57.124 54.49-103.74 8.46-24.428 16.72-49.773 33.02-77.243 37.56-63.179 90.27-94.756 140.49-136.134 23.73-19.589 46.36-39.289 61.82-64.973 28.92-48.078 23.28-85.478 10.96-117.79-19.33-50.615-43.36-97.916 2.27-146.494 39.46-42.035 110.47-68.184 164.18-84.136" stroke="url(#paint36_linear_204_84)"/><path d="M315.156 1209.52c14.33-43.34 27.681-86.41 47.834-129.83 57.232-123.287 129.766-223.746 200.977-264.913 11.043-6.302 22.394-11.397 33.602-15.084 41.8-14.277 71.08-7.643 114.336-24.217 48.23-18.668 79.709-46.913 114.163-90.282 46.593-58.594 67.968-129.161 125.774-159.354 3.114-1.62 6.256-3.07 9.399-4.338 83.389-34.799 138.529 58.718 209.209 17.281 35.41-20.743 37.43-57.548 53.52-104.735 8.36-24.479 16.85-50.092 33.61-77.83 38.9-64.206 93.66-95.879 144.83-137.094 24.13-19.386 47.26-39.279 62.94-65.23 29.03-48.145 22.47-85.632 9.09-118.233-20.84-50.678-47.7-97.77-2.08-147.18 38.91-42.188 110.4-68.663 165.19-84.948" stroke="url(#paint37_linear_204_84)"/><path d="M318.167 1216.04c14.69-43.6 28.56-86.73 48.543-129.53 58.822-125.826 131.654-223.675 201.577-263.661 10.99-6.146 22.254-11.11 33.364-14.699 41.648-13.974 70.71-7.324 114.366-24.898 48.312-19.448 79.439-48.946 113.126-92.453 45.221-58.783 66.651-129.005 124.166-159.156a111.669 111.669 0 019.357-4.297c83.104-34.817 139.044 57.904 209.114 16.473 35.44-20.919 36.67-57.994 52.62-105.695 8.24-24.605 16.9-50.444 34.27-78.576 40.32-65.126 97.01-96.961 149.15-137.937 24.77-19.628 48.21-39.427 64.06-65.604 29.15-48.154 21.67-85.728 7.25-118.601-22.32-50.8-51.85-97.792-6.5-147.841 38.36-42.342 110.33-69.202 166.25-85.802" stroke="url(#paint38_linear_204_84)"/><path d="M321.126 1222.61c15.14-43.94 29.345-86.91 49.443-129.27 60.409-128.306 133.288-223.348 202.308-262.336 11.026-6.161 22.33-11.11 33.465-14.65 41.504-13.73 70.34-7.006 114.185-25.368 48.394-20.23 79.17-50.982 111.998-94.988 43.968-59.038 65.328-128.789 122.474-158.875a123.49 123.49 0 019.357-4.297c82.794-34.91 139.694 56.965 208.874 15.658 35.52-21.197 35.93-58.502 51.79-106.564 8.06-24.69 17.02-50.823 34.86-79.222 41.46-66.256 100.38-98.101 153.45-138.856 25.48-19.581 49.19-39.498 65.22-65.902 29.36-48.363 20.94-85.906 5.41-119.027-23.89-50.898-55.92-97.956-10.91-148.562 37.74-42.527 110.33-69.647 167.31-86.596" stroke="url(#paint39_linear_204_84)"/><path d="M324.101 1229.11c15.433-44.23 30.083-87.09 50.018-129.04 62.086-130.873 135.3-223.396 203.124-261.094 10.995-6.039 22.243-10.884 33.311-14.346 41.352-13.43 69.97-6.689 114.039-25.824 48.474-21.012 78.865-53.033 110.631-97.134 42.674-59.253 63.864-128.586 120.826-158.638a120.107 120.107 0 019.357-4.298c82.473-34.944 140.213 56.094 208.643 14.843 35.55-21.432 35.16-58.95 50.77-107.71 7.97-24.8 17.15-51.142 35.46-79.867 42.97-67.26 103.76-99.165 157.81-139.741 26.1-19.589 49.97-39.672 66.39-66.26 29.39-48.345 20.1-86.018 3.5-119.428-25.47-50.879-60.13-97.879-15.26-149.249 37.29-42.63 110.15-70.118 168.47-87.4" stroke="url(#paint40_linear_204_84)"/><path d="M327.127 1235.71c15.882-44.58 30.943-87.34 50.764-128.78 63.729-133.456 137.192-223.271 203.921-259.88 10.993-5.913 22.205-10.661 33.233-14.069 41.166-13.144 69.599-6.37 113.858-26.294 48.554-21.794 78.588-55.009 109.47-99.434 41.387-59.526 62.606-128.336 119.033-158.408a112.545 112.545 0 019.157-4.398c82.197-34.963 140.847 55.213 208.407 14.026 35.63-21.71 34.55-59.389 49.92-108.714 7.8-24.883 17.19-51.494 36.1-80.552 44.26-68.249 107.11-100.248 162.07-140.619 26.7-19.595 51.15-39.702 67.51-66.575 29.45-48.312 19.37-86.198 1.69-119.838-26.86-51.144-64.28-97.9-19.68-149.911 36.78-42.824 110.09-70.656 169.39-88.321" stroke="url(#paint41_linear_204_84)"/><path d="M330.138 1242.23c16.279-44.87 31.728-87.52 51.511-128.52 65.468-135.936 138.865-223.184 204.656-258.561 10.983-5.85 22.174-10.524 33.164-13.85 41.014-12.843 69.272-6.094 113.712-26.75C781.74 792 811.506 757.447 841.488 712.817c40.033-59.832 61.208-128.098 117.441-158.076a112.872 112.872 0 019.156-4.399c81.915-35.038 141.385 54.282 208.275 13.203 35.52-21.895 33.53-59.972 49.06-109.909 7.71-24.935 17.32-51.815 36.7-81.199 45.67-69.244 110.47-101.33 166.43-141.504 27.29-19.618 52.11-39.791 68.68-66.933 29.49-48.294 18.56-86.35-.15-120.263-28.38-51.283-68.39-97.964-24.05-150.614 36.22-42.978 109.98-71.152 170.44-89.116" stroke="url(#paint42_linear_204_84)"/><path d="M333.148 1248.75c16.639-45.13 32.585-87.72 52.22-128.22 67.178-138.49 140.88-222.987 205.476-257.326 10.962-5.761 22.114-10.346 33.054-13.591 40.869-12.599 68.901-5.776 113.53-27.219 48.641-23.332 78.057-59.138 106.974-103.862 38.849-60.056 59.801-127.8 115.793-157.839 3.004-1.6 6.038-3.062 9.081-4.374 81.604-35.073 141.984 53.385 208.044 12.328 35.7-22.18 32.87-60.369 48.07-110.728 7.54-25.019 17.27-52.218 37.26-81.802 47.05-70.315 113.82-102.411 170.73-142.422 27.89-19.625 53.05-39.881 69.83-67.231 29.52-48.28 17.81-86.547-2.02-120.708-29.87-51.405-72.66-97.978-28.44-151.259 35.68-43.131 109.88-71.648 171.62-90.036" stroke="url(#paint43_linear_204_84)"/><path d="M336.141 1255.34c15.076-42.25 32.749-84.98 52.947-127.99 68.959-141.066 142.679-222.827 206.161-255.959 10.955-5.682 22.082-10.193 32.987-13.373 40.708-12.238 68.53-5.457 113.417-27.658 48.721-24.111 77.785-61.171 105.946-106.344 37.596-60.312 58.52-127.628 114.133-157.541a110.522 110.522 0 019.05-4.391c81.318-35.149 142.548 52.47 207.778 11.495 35.78-22.457 32.19-60.842 47.21-111.731 7.37-25.104 17.52-52.468 37.69-82.531 48.46-71.311 117.21-103.477 175.09-143.308 28.51-19.631 54-39.97 70.97-67.606 29.77-48.471 17.04-86.684-4.03-121.16-31.43-51.56-76.68-97.99-32.86-151.919 35.17-43.327 109.84-72.169 172.55-90.765" stroke="url(#paint44_linear_204_84)"/><path d="M339.151 1261.86c15.381-42.19 33.308-84.83 53.694-127.74 70.737-143.574 144.52-222.647 206.993-254.774 10.948-5.572 22.042-9.987 32.909-13.095 40.52-11.953 68.159-5.139 113.202-28.146 48.802-24.892 77.559-63.248 104.741-108.6 36.385-60.61 57.239-127.456 112.484-157.303a121.37 121.37 0 019.016-4.408c81.08-35.209 143.16 51.514 207.74 10.528 35.78-22.709 31.43-61.289 46.25-112.725 7.28-25.214 17.58-52.822 38.36-83.203 49.75-72.297 120.33-104.616 179.35-144.183 29.08-19.596 54.95-40.06 72.12-67.905 29.82-48.571 16.12-86.713-5.69-121.5-32.95-51.702-80.85-97.955-37.24-152.625 34.65-43.462 109.74-72.666 173.61-91.618" stroke="url(#paint45_linear_204_84)"/><path d="M342.11 1268.43c15.703-42.13 33.871-84.68 54.455-127.49 72.537-146.124 146.352-222.471 207.763-253.493 10.938-5.491 22.008-9.833 32.84-12.877 40.368-11.65 67.79-4.821 113.055-28.599 48.934-25.776 77.255-65.3 103.578-110.9 35.099-60.883 55.883-127.258 110.801-157.081a113.325 113.325 0 018.974-4.366c80.764-35.243 143.724 50.6 207.424 9.796 35.81-22.944 30.63-61.754 45.32-113.703 7.15-25.281 17.66-53.157 38.99-83.83 51.09-73.327 123.84-105.613 183.68-145.085 29.75-19.57 55.89-40.15 73.29-68.264 29.89-48.596 15.48-87.033-7.58-121.884-34.46-51.9-84.87-98.103-41.65-153.345 34.13-43.598 109.67-73.144 174.67-92.412" stroke="url(#paint46_linear_204_84)"/><path d="M345.152 1274.96c15.956-42.05 34.359-84.51 55.117-127.19 74.4-148.677 147.974-222.233 208.457-252.333 10.946-5.37 21.994-9.608 32.797-12.583 40.098-11.282 67.495-4.528 112.874-29.071 48.965-26.456 77.019-67.318 102.415-113.197 33.847-61.139 54.484-127.019 109.143-156.784 2.95-1.627 5.94-3.093 8.94-4.383 80.285-35.169 144.255 49.669 207.155 8.962 35.93-23.263 29.92-62.244 44.46-114.705 6.59-27.169 20.09-55.936 39.63-84.459 52.69-74.474 127.32-106.568 188.01-145.988 30.3-19.608 56.87-40.22 74.41-68.578 30.04-48.645 14.84-87.355-9.42-122.312-35.9-52.063-88.92-98.132-46.03-153.988 33.69-43.818 109.6-73.682 175.72-93.266" stroke="url(#paint47_linear_204_84)"/><path d="M348.164 1281.49c18.522-46.71 36.742-88.9 55.826-126.91 76.163-151.12 150.071-222.107 209.367-250.975 10.894-5.314 21.888-9.497 32.628-12.416 40.197-11.232 66.914-4 112.693-29.542 49.079-27.22 76.857-69.361 101.119-115.564 32.701-61.402 53.16-126.804 107.451-156.503a121.07 121.07 0 018.948-4.441c80.084-35.272 144.814 48.813 206.944 8.163 35.94-23.515 29.13-62.709 43.51-115.701 6.58-27.372 20.32-56.403 40.3-85.128 53.93-75.302 130.53-107.659 192.3-146.848 30.86-19.573 57.77-40.269 75.77-69.087 30.16-48.712 14-87.467-11.29-122.695-37.46-52.22-93-98.18-50.42-154.693 33.15-43.971 109.54-74.161 176.54-93.868" stroke="url(#paint48_linear_204_84)"/><path d="M351.302 1287.88c19.136-47.22 37.512-89.07 56.61-126.68 78.134-153.74 151.829-221.86 210.113-249.722 10.889-5.119 21.837-9.146 32.525-11.963 39.845-10.778 66.914-4 112.504-29.955 49.126-28.018 76.555-71.412 100.056-117.809 31.449-61.66 51.762-126.567 105.802-156.267a120.262 120.262 0 018.907-4.4c79.851-35.389 145.351 47.883 206.711 7.349 35.98-23.81 28.39-63.275 42.61-116.721 6.5-27.55 20.48-56.842 40.93-85.757 55.27-76.331 133.85-108.698 196.64-147.75 31.47-19.579 58.8-40.442 76.73-69.234 30.31-48.763 13.24-87.663-13.13-123.122-38.98-52.418-97.05-98.268-54.8-155.396 32.67-44.149 109.39-74.616 177.76-94.891" stroke="url(#paint49_linear_204_84)"/><path d="M353.998 1294.51c19.204-47.18 38.298-89.25 57.334-126.4 80.055-156.3 153.696-221.662 210.927-248.476 10.89-5.1 21.833-9.105 32.516-11.904 39.734-10.519 66.408-3.498 112.323-30.426 49.141-28.834 76.284-73.447 98.927-120.091 30.128-61.95 50.354-126.269 104.068-155.945a111.87 111.87 0 018.839-4.433c79.618-35.508 145.918 46.968 206.518 6.49 36.01-24.045 27.81-63.696 41.89-117.907 6.51-27.758 20.74-57.314 41.61-86.427 56.77-77.277 137.2-109.781 201-148.694 32.01-19.502 59.74-40.473 77.89-69.534 30.41-48.461 12.31-87.633-15.19-123.28-40.45-52.6-101.09-98.297-59.18-156.04 32.21-44.387 109.32-75.154 178.87-95.786" stroke="url(#paint50_linear_204_84)"/><path d="M357.292 1301.25c105.261-254.16 200.573-341.67 269.76-373.363 60.029-27.547 87.027-8.028 144.622-42.566 114.881-68.917 106.677-226.228 200.065-278.028 83.101-46.077 152.981 43.15 215.221 1.292 53.01-35.789 8.34-105.27 82.85-205.742 87.24-117.735 229.63-131.892 284.31-219.461C1629.54 62.684 1403.87.74 1473.81-97.243c31.69-44.524 109.22-75.65 179.89-96.598" stroke="url(#paint51_linear_204_84)"/></g><defs><linearGradient id="paint0_linear_204_84" x1="385.747" y1="656.245" x2="315.368" y2="969.869" gradientUnits="userSpaceOnUse"><stop stop-color="#94C6FF"/><stop offset="1" stop-color="#fff" stop-opacity="0"/></linearGradient><linearGradient id="paint1_linear_204_84" x1="390.343" y1="662.469" x2="338.599" y2="1176.37" gradientUnits="userSpaceOnUse"><stop stop-color="#94C6FF"/><stop offset="1" stop-color="#fff" stop-opacity="0"/></linearGradient><linearGradient id="paint2_linear_204_84" x1="394.93" y1="668.638" x2="345.64" y2="1182.26" gradientUnits="userSpaceOnUse"><stop stop-color="#94C6FF"/><stop offset="1" stop-color="#fff" stop-opacity="0"/></linearGradient><linearGradient id="paint3_linear_204_84" x1="399.567" y1="674.78" x2="352.759" y2="1188.13" gradientUnits="userSpaceOnUse"><stop stop-color="#94C6FF"/><stop offset="1" stop-color="#fff" stop-opacity="0"/></linearGradient><linearGradient id="paint4_linear_204_84" x1="404.039" y1="681.118" x2="359.713" y2="1193.9" gradientUnits="userSpaceOnUse"><stop stop-color="#94C6FF"/><stop offset="1" stop-color="#fff" stop-opacity="0"/></linearGradient><linearGradient id="paint5_linear_204_84" x1="408.782" y1="687.212" x2="367.018" y2="1199.71" gradientUnits="userSpaceOnUse"><stop stop-color="#94C6FF"/><stop offset="1" stop-color="#fff" stop-opacity="0"/></linearGradient><linearGradient id="paint6_linear_204_84" x1="413.457" y1="693.373" x2="374.264" y2="1205.41" gradientUnits="userSpaceOnUse"><stop stop-color="#94C6FF"/><stop offset="1" stop-color="#fff" stop-opacity="0"/></linearGradient><linearGradient id="paint7_linear_204_84" x1="417.977" y1="699.673" x2="381.326" y2="1211.07" gradientUnits="userSpaceOnUse"><stop stop-color="#94C6FF"/><stop offset="1" stop-color="#fff" stop-opacity="0"/></linearGradient><linearGradient id="paint8_linear_204_84" x1="422.695" y1="705.809" x2="388.686" y2="1216.66" gradientUnits="userSpaceOnUse"><stop stop-color="#94C6FF"/><stop offset="1" stop-color="#fff" stop-opacity="0"/></linearGradient><linearGradient id="paint9_linear_204_84" x1="427.112" y1="711.916" x2="395.73" y2="1222.13" gradientUnits="userSpaceOnUse"><stop stop-color="#94C6FF"/><stop offset="1" stop-color="#fff" stop-opacity="0"/></linearGradient><linearGradient id="paint10_linear_204_84" x1="432.004" y1="718.322" x2="403.239" y2="1227.72" gradientUnits="userSpaceOnUse"><stop stop-color="#94C6FF"/><stop offset="1" stop-color="#fff" stop-opacity="0"/></linearGradient><linearGradient id="paint11_linear_204_84" x1="436.574" y1="724.52" x2="410.492" y2="1233.13" gradientUnits="userSpaceOnUse"><stop stop-color="#94C6FF"/><stop offset="1" stop-color="#fff" stop-opacity="0"/></linearGradient><linearGradient id="paint12_linear_204_84" x1="441.246" y1="730.732" x2="417.874" y2="1238.46" gradientUnits="userSpaceOnUse"><stop stop-color="#94C6FF"/><stop offset="1" stop-color="#fff" stop-opacity="0"/></linearGradient><linearGradient id="paint13_linear_204_84" x1="445.971" y1="736.906" x2="425.315" y2="1243.77" gradientUnits="userSpaceOnUse"><stop stop-color="#94C6FF"/><stop offset="1" stop-color="#fff" stop-opacity="0"/></linearGradient><linearGradient id="paint14_linear_204_84" x1="450.436" y1="743.157" x2="432.491" y2="1248.93" gradientUnits="userSpaceOnUse"><stop stop-color="#94C6FF"/><stop offset="1" stop-color="#fff" stop-opacity="0"/></linearGradient><linearGradient id="paint15_linear_204_84" x1="455.472" y1="749.157" x2="440.352" y2="1253.97" gradientUnits="userSpaceOnUse"><stop stop-color="#94C6FF"/><stop offset="1" stop-color="#fff" stop-opacity="0"/></linearGradient><linearGradient id="paint16_linear_204_84" x1="459.906" y1="755.647" x2="447.488" y2="1259.19" gradientUnits="userSpaceOnUse"><stop stop-color="#94C6FF"/><stop offset="1" stop-color="#fff" stop-opacity="0"/></linearGradient><linearGradient id="paint17_linear_204_84" x1="464.567" y1="761.881" x2="454.979" y2="1264.21" gradientUnits="userSpaceOnUse"><stop stop-color="#94C6FF"/><stop offset="1" stop-color="#fff" stop-opacity="0"/></linearGradient><linearGradient id="paint18_linear_204_84" x1="469.125" y1="768.104" x2="462.389" y2="1269.02" gradientUnits="userSpaceOnUse"><stop stop-color="#94C6FF"/><stop offset="1" stop-color="#fff" stop-opacity="0"/></linearGradient><linearGradient id="paint19_linear_204_84" x1="473.819" y1="774.295" x2="469.917" y2="1273.94" gradientUnits="userSpaceOnUse"><stop stop-color="#94C6FF"/><stop offset="1" stop-color="#fff" stop-opacity="0"/></linearGradient><linearGradient id="paint20_linear_204_84" x1="478.723" y1="780.59" x2="477.687" y2="1278.72" gradientUnits="userSpaceOnUse"><stop stop-color="#94C6FF"/><stop offset="1" stop-color="#fff" stop-opacity="0"/></linearGradient><linearGradient id="paint21_linear_204_84" x1="483.204" y1="786.789" x2="485.07" y2="1283.39" gradientUnits="userSpaceOnUse"><stop stop-color="#94C6FF"/><stop offset="1" stop-color="#fff" stop-opacity="0"/></linearGradient><linearGradient id="paint22_linear_204_84" x1="487.854" y1="792.979" x2="492.69" y2="1287.87" gradientUnits="userSpaceOnUse"><stop stop-color="#94C6FF"/><stop offset="1" stop-color="#fff" stop-opacity="0"/></linearGradient><linearGradient id="paint23_linear_204_84" x1="492.548" y1="799.203" x2="500.27" y2="1292.38" gradientUnits="userSpaceOnUse"><stop stop-color="#94C6FF"/><stop offset="1" stop-color="#fff" stop-opacity="0"/></linearGradient><linearGradient id="paint24_linear_204_84" x1="497.181" y1="805.443" x2="507.854" y2="1296.79" gradientUnits="userSpaceOnUse"><stop stop-color="#94C6FF"/><stop offset="1" stop-color="#fff" stop-opacity="0"/></linearGradient><linearGradient id="paint25_linear_204_84" x1="501.764" y1="811.738" x2="515.405" y2="1301.13" gradientUnits="userSpaceOnUse"><stop stop-color="#94C6FF"/><stop offset="1" stop-color="#fff" stop-opacity="0"/></linearGradient><linearGradient id="paint26_linear_204_84" x1="506.45" y1="817.869" x2="523.064" y2="1305.26" gradientUnits="userSpaceOnUse"><stop stop-color="#94C6FF"/><stop offset="1" stop-color="#fff" stop-opacity="0"/></linearGradient><linearGradient id="paint27_linear_204_84" x1="511.048" y1="824.081" x2="530.753" y2="1309.16" gradientUnits="userSpaceOnUse"><stop stop-color="#94C6FF"/><stop offset="1" stop-color="#fff" stop-opacity="0"/></linearGradient><linearGradient id="paint28_linear_204_84" x1="515.749" y1="830.296" x2="538.372" y2="1313.25" gradientUnits="userSpaceOnUse"><stop stop-color="#94C6FF"/><stop offset="1" stop-color="#fff" stop-opacity="0"/></linearGradient><linearGradient id="paint29_linear_204_84" x1="520.317" y1="836.493" x2="545.997" y2="1317.07" gradientUnits="userSpaceOnUse"><stop stop-color="#94C6FF"/><stop offset="1" stop-color="#fff" stop-opacity="0"/></linearGradient><linearGradient id="paint30_linear_204_84" x1="525.027" y1="842.661" x2="553.781" y2="1320.78" gradientUnits="userSpaceOnUse"><stop stop-color="#94C6FF"/><stop offset="1" stop-color="#fff" stop-opacity="0"/></linearGradient><linearGradient id="paint31_linear_204_84" x1="529.558" y1="848.889" x2="561.333" y2="1324.42" gradientUnits="userSpaceOnUse"><stop stop-color="#94C6FF"/><stop offset="1" stop-color="#fff" stop-opacity="0"/></linearGradient><linearGradient id="paint32_linear_204_84" x1="534.185" y1="855.078" x2="568.966" y2="1327.94" gradientUnits="userSpaceOnUse"><stop stop-color="#94C6FF"/><stop offset="1" stop-color="#fff" stop-opacity="0"/></linearGradient><linearGradient id="paint33_linear_204_84" x1="538.779" y1="861.238" x2="576.608" y2="1331.3" gradientUnits="userSpaceOnUse"><stop stop-color="#94C6FF"/><stop offset="1" stop-color="#fff" stop-opacity="0"/></linearGradient><linearGradient id="paint34_linear_204_84" x1="543.399" y1="867.53" x2="584.151" y2="1334.78" gradientUnits="userSpaceOnUse"><stop stop-color="#94C6FF"/><stop offset="1" stop-color="#fff" stop-opacity="0"/></linearGradient><linearGradient id="paint35_linear_204_84" x1="547.934" y1="873.618" x2="591.804" y2="1337.76" gradientUnits="userSpaceOnUse"><stop stop-color="#94C6FF"/><stop offset="1" stop-color="#fff" stop-opacity="0"/></linearGradient><linearGradient id="paint36_linear_204_84" x1="552.242" y1="879.683" x2="598.843" y2="1341.14" gradientUnits="userSpaceOnUse"><stop stop-color="#94C6FF"/><stop offset="1" stop-color="#fff" stop-opacity="0"/></linearGradient><linearGradient id="paint37_linear_204_84" x1="551.059" y1="882.994" x2="596.068" y2="1348.15" gradientUnits="userSpaceOnUse"><stop stop-color="#94C6FF"/><stop offset="1" stop-color="#fff" stop-opacity="0"/></linearGradient><linearGradient id="paint38_linear_204_84" x1="550.093" y1="886.328" x2="593.549" y2="1355.17" gradientUnits="userSpaceOnUse"><stop stop-color="#94C6FF"/><stop offset="1" stop-color="#fff" stop-opacity="0"/></linearGradient><linearGradient id="paint39_linear_204_84" x1="549.002" y1="889.591" x2="590.976" y2="1362.09" gradientUnits="userSpaceOnUse"><stop stop-color="#94C6FF"/><stop offset="1" stop-color="#fff" stop-opacity="0"/></linearGradient><linearGradient id="paint40_linear_204_84" x1="547.57" y1="892.734" x2="587.875" y2="1368.96" gradientUnits="userSpaceOnUse"><stop stop-color="#94C6FF"/><stop offset="1" stop-color="#fff" stop-opacity="0"/></linearGradient><linearGradient id="paint41_linear_204_84" x1="546.174" y1="895.918" x2="584.918" y2="1375.72" gradientUnits="userSpaceOnUse"><stop stop-color="#94C6FF"/><stop offset="1" stop-color="#fff" stop-opacity="0"/></linearGradient><linearGradient id="paint42_linear_204_84" x1="545.198" y1="899.196" x2="582.358" y2="1382.64" gradientUnits="userSpaceOnUse"><stop stop-color="#94C6FF"/><stop offset="1" stop-color="#fff" stop-opacity="0"/></linearGradient><linearGradient id="paint43_linear_204_84" x1="543.973" y1="902.493" x2="579.524" y2="1389.4" gradientUnits="userSpaceOnUse"><stop stop-color="#94C6FF"/><stop offset="1" stop-color="#fff" stop-opacity="0"/></linearGradient><linearGradient id="paint44_linear_204_84" x1="542.551" y1="905.681" x2="576.343" y2="1396.31" gradientUnits="userSpaceOnUse"><stop stop-color="#94C6FF"/><stop offset="1" stop-color="#fff" stop-opacity="0"/></linearGradient><linearGradient id="paint45_linear_204_84" x1="541.532" y1="908.922" x2="573.87" y2="1402.93" gradientUnits="userSpaceOnUse"><stop stop-color="#94C6FF"/><stop offset="1" stop-color="#fff" stop-opacity="0"/></linearGradient><linearGradient id="paint46_linear_204_84" x1="540.296" y1="912.231" x2="571.029" y2="1409.65" gradientUnits="userSpaceOnUse"><stop stop-color="#94C6FF"/><stop offset="1" stop-color="#fff" stop-opacity="0"/></linearGradient><linearGradient id="paint47_linear_204_84" x1="539.093" y1="915.465" x2="568.293" y2="1416.2" gradientUnits="userSpaceOnUse"><stop stop-color="#94C6FF"/><stop offset="1" stop-color="#fff" stop-opacity="0"/></linearGradient><linearGradient id="paint48_linear_204_84" x1="537.826" y1="918.675" x2="565.443" y2="1422.76" gradientUnits="userSpaceOnUse"><stop stop-color="#94C6FF"/><stop offset="1" stop-color="#fff" stop-opacity="0"/></linearGradient><linearGradient id="paint49_linear_204_84" x1="537.007" y1="921.939" x2="563.044" y2="1429.31" gradientUnits="userSpaceOnUse"><stop stop-color="#94C6FF"/><stop offset="1" stop-color="#fff" stop-opacity="0"/></linearGradient><linearGradient id="paint50_linear_204_84" x1="535.562" y1="925.23" x2="560.106" y2="1435.87" gradientUnits="userSpaceOnUse"><stop stop-color="#94C6FF"/><stop offset="1" stop-color="#fff" stop-opacity="0"/></linearGradient><linearGradient id="paint51_linear_204_84" x1="534.68" y1="928.719" x2="557.615" y2="1442.63" gradientUnits="userSpaceOnUse"><stop stop-color="#94C6FF"/><stop offset="1" stop-color="#fff" stop-opacity="0"/></linearGradient><clipPath id="clip0_204_84"><path fill="#fff" d="M0 0h1800v802H0z"/></clipPath></defs></svg>