<svg width="44" height="60" fill="none" xmlns="http://www.w3.org/2000/svg"><path d="M31.388 44.834v9.258l4.435 1.846v-13.53a25.159 25.159 0 01-4.435 2.426zM7.43 42.408v13.438L11.866 54v-9.166a25.148 25.148 0 01-4.436-2.426zm14.197 4.396c-2.095 0-4.181-.26-6.21-.776V60l6.21-2.585L27.837 60V46.028a25.14 25.14 0 01-6.21.776zm0-46.804C9.702 0 0 9.702 0 21.627c0 11.925 9.702 21.627 21.627 21.627 11.925 0 21.627-9.702 21.627-21.627C43.254 9.702 33.552 0 21.627 0zm0 38.684c-9.454 0-17.146-7.692-17.146-17.146S12.173 4.393 21.627 4.393s17.145 7.691 17.145 17.145-7.691 17.146-17.145 17.146zm0-30.74c-7.497 0-13.595 6.098-13.595 13.594 0 7.497 6.098 13.595 13.595 13.595 7.496 0 13.595-6.098 13.595-13.595 0-7.496-6.099-13.595-13.595-13.595zm5.587 21.529l-5.587-2.938-5.588 2.938 1.067-6.222-4.52-4.406 6.247-.908 2.794-5.661 2.793 5.66 6.248.909-4.52 4.406 1.066 6.222z" fill="#1478FA"/></svg>