<svg width="174" height="175" fill="none" xmlns="http://www.w3.org/2000/svg"><path d="M40.283 55.467V40.033H0v15.434h9.242v33.014H0v15.435h40.283V88.482h-9.242V55.466h9.242zm44.455 9.078c-2.49-.724-15.3-4.391-17.52-5.116-2.217-.724-4.028-1.765-4.028-3.078s2.037-2.716 6.157-2.716c12.992 0 19.234 8.013 19.234 8.013s.703.937.939 1.273h12.535V41.06H88.598v3.977c-1.028-.71-8.616-5.662-20.383-5.662-15.528 0-24.174 8.058-24.174 20.1 0 12.042 10.91 17.021 13.943 18.289 3.033 1.267 14.894 4.617 19.964 6.202 5.07 1.584 6.926 2.716 6.926 3.53 0 .816-2.218 2.943-8.556 2.943-11.04 0-16.725-6.51-17.722-7.77v-.01c-.318-.425-.69-.928-.816-1.118a92.646 92.646 0 00-.721-1.041H44.524v23.345h14.072V98.97c1.637 1.089 10.018 6.318 20.076 6.318 11.227 0 25.532-4.889 25.532-20.145S87.228 65.269 84.738 64.545zm55.197-25.385c-18.716 0-34.065 9.358-34.065 33.245 0 23.886 16.663 32.834 34.147 32.834 17.484 0 33.983-8.866 33.983-32.588s-16.498-33.49-34.065-33.49zm.164 50.154c-6.403 0-10.507-1.477-10.507-16.991s3.038-17.156 10.753-17.156c4.679 0 10.343.328 10.343 16.663s-4.186 17.484-10.589 17.484zM26.842 32.988a70.498 70.498 0 0115.312-16.293 62.056 62.056 0 007.627 4.815c-4.49 5.005-8.513 10.55-9.18 11.478h2.695c1.617-2.18 4.962-6.564 8.489-10.45a69.885 69.885 0 0012.227 4.625 92.414 92.414 0 00-2.503 5.825h2.341a93.008 93.008 0 012.31-5.268 78.146 78.146 0 0017.012 2.193v3.075h2.173v-3.065a78.555 78.555 0 0016.92-1.946 93.1 93.1 0 012.187 5.011h2.341a92.007 92.007 0 00-2.37-5.54 70.435 70.435 0 0012.459-4.507c3.392 3.784 6.563 7.943 8.125 10.047h2.693c-.645-.9-4.46-6.159-8.795-11.048a62.34 62.34 0 008.447-5.245 70.474 70.474 0 0115.312 16.293h2.614C132.426 13.152 110.097 0 84.753 0 59.408 0 37.08 13.152 24.227 32.988h2.615zm38.14-7.812a68.033 68.033 0 01-11.646-4.3c.5-.52.999-1.023 1.493-1.499 5.036-4.857 13.32-10.19 15.136-11.338a26.822 26.822 0 004.792 2.037 140.54 140.54 0 00-6.777 9.764 63.415 63.415 0 00-2.998 5.336zm18.19 2.563a76.118 76.118 0 01-16.027-2.015 59.666 59.666 0 012.67-4.721c3.273-5.167 6.226-9.047 7.21-10.309 1.962.461 4.024.753 6.147.848v16.197zm2.173.01V11.568a33.927 33.927 0 006.105-.652 136.505 136.505 0 017.037 10.088 60.405 60.405 0 012.796 4.967 76.493 76.493 0 01-15.938 1.78zm18.117-2.294c-.919-1.84-1.975-3.777-3.14-5.615a141.307 141.307 0 00-6.562-9.48 27.87 27.87 0 005.114-1.98c2.549 1.634 9.953 6.516 14.6 10.997.616.595 1.242 1.23 1.866 1.89a68.589 68.589 0 01-11.878 4.188zm22.071-10.118a60.583 60.583 0 01-8.141 4.938 65.8 65.8 0 00-2.41-2.462c-4.346-4.191-10.818-8.588-13.988-10.653a19.886 19.886 0 002.94-2.31 69.68 69.68 0 0121.599 10.487zM84.753 2.173c5.739 0 11.315.7 16.655 2.01-4.052 3.292-10.124 5.223-16.654 5.223-6.56 0-12.616-1.925-16.663-5.22a69.807 69.807 0 0116.663-2.013zm-19.18 2.676a19.502 19.502 0 002.345 1.918c-2.873 1.848-9.948 6.564-14.596 11.046a62.705 62.705 0 00-2.017 2.043 60.324 60.324 0 01-7.33-4.52A69.667 69.667 0 0165.572 4.85zm77.095 106.305a70.51 70.51 0 01-14.937 16.002 62.176 62.176 0 00-8.822-5.531c3.76-4.242 7.129-8.762 8.376-10.471h-2.706c-1.668 2.227-4.588 6.006-7.694 9.471a70.314 70.314 0 00-12.459-4.509 93.413 93.413 0 002.142-4.962h-2.348a92.52 92.52 0 01-1.954 4.436c-5.431-1.241-11.113-1.902-16.92-1.944v-2.492h-2.174v2.502a78.133 78.133 0 00-17.014 2.19 92.903 92.903 0 01-2.075-4.692h-2.348a92.791 92.791 0 002.276 5.248 69.83 69.83 0 00-12.23 4.625c-3.239-3.571-6.323-7.559-8.057-9.873h-2.706c1.288 1.765 4.847 6.539 8.763 10.903a62.137 62.137 0 00-8.006 5.098 70.468 70.468 0 01-14.936-16.002h-2.61c12.853 19.836 35.18 32.988 60.525 32.988 25.344 0 47.672-13.151 60.524-32.988l-2.61.001zm-39.205 6.956a68.441 68.441 0 0111.88 4.189 61.1 61.1 0 01-1.869 1.892c-4.632 4.467-12.013 9.337-14.581 10.984a27.628 27.628 0 00-5.121-1.982 141.19 141.19 0 006.55-9.465c1.165-1.839 2.222-3.777 3.141-5.618zm-18.118-2.291c5.468.04 10.817.644 15.939 1.776a60.151 60.151 0 01-2.798 4.97 136.321 136.321 0 01-7.031 10.081 34.277 34.277 0 00-6.11-.644v-16.183zm-2.173.011v16.195a33.589 33.589 0 00-6.155.84c-.99-1.272-3.934-5.14-7.201-10.3a59.438 59.438 0 01-2.673-4.724 76.044 76.044 0 0116.03-2.011zm-18.191 2.56a63.432 63.432 0 002.999 5.338 140.312 140.312 0 006.774 9.759 26.527 26.527 0 00-4.792 2.04c-1.823-1.153-10.1-6.482-15.133-11.336a54.31 54.31 0 01-1.494-1.5 68 68 0 0111.646-4.301zm-21.4 10.128a60.077 60.077 0 017.72-4.809c.673.712 1.35 1.4 2.02 2.046 4.646 4.481 11.72 9.196 14.593 11.045a19.28 19.28 0 00-2.786 2.36 69.72 69.72 0 01-21.547-10.642zm41.172 13.451a69.778 69.778 0 01-17.18-2.139c4.016-3.528 10.391-5.668 17.18-5.668 6.781 0 13.163 2.141 17.178 5.668a69.762 69.762 0 01-17.178 2.139zm19.624-2.809a19.58 19.58 0 00-3.369-2.762c3.176-2.068 9.634-6.458 13.974-10.643.8-.772 1.609-1.603 2.411-2.463a60.536 60.536 0 018.533 5.226 69.691 69.691 0 01-21.549 10.642zM4.145 167.187c.096 1.798.79 3.041 2.081 3.728.663.362 1.411.543 2.244.543 1.556 0 2.883-.648 3.981-1.945 1.098-1.297 1.876-3.93 2.335-7.899-.724 1.146-1.62 1.951-2.688 2.415a8.538 8.538 0 01-3.447.697c-2.497 0-4.473-.777-5.927-2.331-1.454-1.555-2.18-3.556-2.18-6.002 0-2.35.718-4.417 2.153-6.201 1.436-1.784 3.553-2.676 6.352-2.676 3.776 0 6.382 1.7 7.818 5.1.796 1.869 1.194 4.208 1.194 7.017 0 3.171-.477 5.98-1.43 8.428-1.58 4.075-4.258 6.112-8.034 6.112-2.534 0-4.459-.664-5.773-1.991C1.509 170.855.85 169.19.85 167.188h3.294v-.001zm8.478-6.594c1.068-.849 1.602-2.334 1.602-4.454 0-1.903-.48-3.321-1.44-4.255-.958-.933-2.18-1.4-3.664-1.4-1.592 0-2.856.533-3.791 1.599-.935 1.066-1.403 2.491-1.403 4.273 0 1.687.41 3.027 1.231 4.021.82.993 2.13 1.49 3.927 1.49 1.291 0 2.47-.425 3.538-1.274zm24.512-8.896c1.158 2.135 1.737 5.061 1.737 8.777 0 3.522-.525 6.436-1.574 8.74-1.52 3.306-4.006 4.959-7.456 4.959-3.113 0-5.43-1.351-6.95-4.054-1.266-2.256-1.9-5.284-1.9-9.084 0-2.944.38-5.471 1.14-7.583 1.424-3.933 4-5.899 7.728-5.899 3.354 0 5.779 1.381 7.275 4.144zm-3.278 17.264c1.003-1.496 1.504-4.283 1.504-8.361 0-2.944-.363-5.366-1.087-7.266-.725-1.9-2.133-2.85-4.224-2.85-1.921 0-3.326.902-4.214 2.706-.889 1.804-1.333 4.46-1.333 7.971 0 2.642.284 4.766.852 6.37.87 2.45 2.357 3.674 4.46 3.674 1.691 0 3.038-.748 4.042-2.244zm23.89-17.264c1.158 2.135 1.737 5.061 1.737 8.777 0 3.522-.525 6.436-1.574 8.74-1.52 3.306-4.006 4.959-7.456 4.959-3.113 0-5.43-1.351-6.95-4.054-1.266-2.256-1.9-5.284-1.9-9.084 0-2.944.38-5.471 1.14-7.583 1.424-3.933 4-5.899 7.728-5.899 3.354 0 5.779 1.381 7.275 4.144zm-3.278 17.264c1.003-1.496 1.504-4.283 1.504-8.361 0-2.944-.363-5.366-1.087-7.266-.726-1.9-2.134-2.85-4.224-2.85-1.922 0-3.326.902-4.214 2.706-.889 1.804-1.333 4.46-1.333 7.971 0 2.642.284 4.766.852 6.37.87 2.45 2.357 3.674 4.459 3.674 1.692 0 3.04-.748 4.043-2.244zm10.136-13.844v-2.497c2.353-.23 3.993-.612 4.922-1.15.93-.536 1.623-1.806 2.082-3.809h2.57v25.806h-3.475v-18.35h-6.099zm21.173-.778h3.783v3.945h-3.783v-3.945zm0 15.183h3.783v3.945h-3.783v-3.945zm8.732-1.882c.802-1.653 2.367-3.155 4.696-4.506l3.474-2.009c1.557-.905 2.648-1.678 3.276-2.318.989-1.004 1.484-2.152 1.484-3.445 0-1.511-.453-2.711-1.357-3.599-.905-.889-2.112-1.333-3.62-1.333-2.232 0-3.776.847-4.632 2.541-.459.908-.712 2.166-.76 3.775h-3.312c.036-2.256.452-4.096 1.248-5.519 1.412-2.51 3.903-3.765 7.474-3.765 2.968 0 5.137.803 6.506 2.407 1.369 1.605 2.054 3.39 2.054 5.357 0 2.075-.73 3.849-2.189 5.32-.845.857-2.36 1.894-4.543 3.113l-2.479 1.375c-1.183.652-2.111 1.273-2.787 1.864-1.207 1.05-1.967 2.214-2.28 3.493h14.151v3.076H93.126c.12-2.232.581-4.174 1.384-5.827zm35.37-15.943c1.158 2.135 1.737 5.061 1.737 8.777 0 3.522-.525 6.436-1.574 8.74-1.52 3.306-4.006 4.959-7.456 4.959-3.113 0-5.429-1.351-6.949-4.054-1.267-2.256-1.9-5.284-1.9-9.084 0-2.944.38-5.471 1.14-7.583 1.423-3.933 3.999-5.899 7.727-5.899 3.353 0 5.778 1.381 7.275 4.144zm-3.278 17.264c1.003-1.496 1.504-4.283 1.504-8.361 0-2.944-.363-5.366-1.088-7.266-.725-1.9-2.133-2.85-4.223-2.85-1.922 0-3.326.902-4.214 2.706-.889 1.804-1.333 4.46-1.333 7.971 0 2.642.284 4.766.852 6.37.87 2.45 2.357 3.674 4.459 3.674 1.692 0 3.039-.748 4.043-2.244zm10.136-13.844v-2.497c2.353-.23 3.993-.612 4.922-1.15.929-.536 1.623-1.806 2.081-3.809h2.57v25.806h-3.475v-18.35h-6.098zm21.643 11.745c.218 1.858 1.08 3.143 2.588 3.855.773.361 1.666.543 2.679.543 1.93 0 3.36-.616 4.289-1.847.929-1.23 1.394-2.593 1.394-4.089 0-1.81-.552-3.209-1.656-4.199-1.104-.989-2.428-1.484-3.972-1.484-1.123 0-2.085.217-2.887.652a6.182 6.182 0 00-2.054 1.809l-2.823-.163 1.973-13.952h13.463v3.149h-11.021l-1.104 7.202c.604-.458 1.177-.802 1.719-1.031.966-.398 2.082-.597 3.348-.597 2.377 0 4.392.766 6.044 2.298 1.653 1.532 2.48 3.475 2.48 5.827 0 2.449-.758 4.609-2.271 6.479-1.515 1.87-3.931 2.805-7.248 2.805-2.112 0-3.979-.595-5.601-1.783-1.623-1.188-2.531-3.013-2.724-5.474h3.384z" fill="#1478FA"/></svg>