<svg width="24" height="26" fill="none" xmlns="http://www.w3.org/2000/svg"><path fill-rule="evenodd" clip-rule="evenodd" d="M2.826 2.826a9.648 9.648 0 000 13.645 9.648 9.648 0 0013.645 0 9.648 9.648 0 000-13.645 9.648 9.648 0 00-13.645 0zm11.37 11.37A6.432 6.432 0 115.1 5.1a6.432 6.432 0 019.097 9.097z" fill="#D2D6E7"/><path d="M14.197 18.745a2.412 2.412 0 013.411-3.411l5.686 5.685a2.412 2.412 0 11-3.412 3.411l-5.685-5.685zm-7.546-7.339a1.608 1.608 0 010-3.216h6.433a1.608 1.608 0 010 3.216H6.65z" fill="#D2D6E7"/><path d="M8.26 6.582a1.608 1.608 0 013.215 0v6.432a1.608 1.608 0 11-3.216 0V6.582z" fill="#D2D6E7"/></svg>