<svg width="1800" height="802" viewBox="0 0 1800 802" fill="none" xmlns="http://www.w3.org/2000/svg">
<g clip-path="url(#clip0_204_84)">
<path d="M204.168 967.353C204.151 923.278 211.154 876.429 225.028 827.757C234.745 793.662 301.454 560.114 433.653 491.952C540.204 437.026 590.728 541.293 711.992 479.347C811.295 428.524 832.058 333.23 910.146 306.054C1004.28 273.292 1026.31 394.417 1127.28 354.305C1144.16 347.359 1160.83 337.62 1175.97 325.865C1191.1 314.108 1204.29 300.658 1214.47 286.583C1254.18 229.179 1192.57 210.186 1210.85 128.876C1226.05 61.1886 1286.61 -3.4765 1308.94 -27.1881C1423.63 -149.085 1572.15 -196.125 1595.9 -203.367" stroke="url(#paint0_linear_204_84)" stroke-width="0.5" stroke-miterlimit="10"/>
<path d="M207.142 973.913C207.279 929.934 214.533 883.162 228.747 834.574C238.66 801.337 294.586 610.401 401.502 524.221C412.874 514.993 425.265 506.879 438.077 500.27C485.57 475.979 521.779 483.282 558.594 492.538C603.891 504.074 648.944 519.407 715.072 484.897C808.26 436.348 831.618 347.937 900.889 316.16C904.438 314.545 907.995 313.116 911.534 311.883C1005.39 279.044 1028.29 399.408 1128.47 359.277C1145.37 352.121 1161.99 342.171 1176.98 330.234C1191.97 318.298 1204.9 304.711 1214.74 290.578C1229.41 268.927 1230.2 252.625 1226.77 236.209C1221.07 208.583 1203.32 181.925 1216.01 131.306C1220.5 114.018 1227.73 96.083 1237.53 77.9604C1262.18 31.5734 1297.57 -7.71837 1313.39 -25.4992C1356.5 -73.4834 1410.78 -116.154 1469.44 -148.169C1511.52 -171.55 1554.65 -190.146 1597.02 -203.178" stroke="url(#paint1_linear_204_84)" stroke-width="0.5" stroke-miterlimit="10"/>
<path d="M210.185 980.449C210.479 936.57 217.964 889.879 232.467 841.391C243.498 805.688 299.868 617.064 406.037 532.278C417.385 523.127 429.741 515.101 442.501 508.588C489.809 484.581 525.927 491.774 562.838 500.384C608.436 510.869 652.886 525.201 718.059 490.587C809.92 441.807 833.292 353.783 902.227 322.089C905.738 320.462 909.262 319.035 912.764 317.82C1006.27 284.93 1030.15 404.775 1129.38 364.483C1162.56 351.018 1196.37 322.562 1214.66 294.712C1229.09 273.001 1230.05 256.473 1227.33 239.656C1222.7 211.117 1206.86 184.357 1220.86 133.893C1225.93 116.41 1233.55 98.374 1243.55 80.1888C1268.27 33.7784 1302.31 -5.56878 1317.52 -23.6548C1358.28 -71.7332 1411.3 -114.855 1469.2 -147.028C1511.69 -170.994 1555.36 -189.926 1598.21 -202.957" stroke="url(#paint2_linear_204_84)" stroke-width="0.5" stroke-miterlimit="10"/>
<path d="M213.181 986.98C213.713 943.161 221.451 896.552 236.224 848.169C248.337 810.039 305.271 623.857 410.495 540.361C421.863 531.299 434.2 523.356 446.925 516.906C494.078 493.201 530.064 500.327 567.072 508.29C612.675 518.019 656.816 531.055 721.224 496.052C811.713 447.083 835.098 359.445 903.698 327.834C907.21 326.207 910.733 324.779 914.236 323.565C1007.5 290.615 1032.19 409.8 1130.74 369.285C1163.95 355.645 1196.79 326.893 1215.4 298.379C1229.63 276.566 1230.73 259.854 1228.67 242.678C1225.11 213.226 1211.27 186.279 1226.53 136.013C1232.22 118.352 1240.22 100.24 1250.38 82.01C1275.22 35.5324 1307.93 -3.85181 1322.52 -22.26C1360.83 -70.3708 1412.56 -113.961 1469.74 -146.311C1512.37 -170.771 1556.34 -189.978 1599.43 -202.969" stroke="url(#paint3_linear_204_84)" stroke-width="0.5" stroke-miterlimit="10"/>
<path d="M216.154 993.539C217.749 960.509 220.613 914.005 239.928 854.995C253.209 814.406 310.752 630.623 415.031 548.417C426.384 539.444 438.681 531.591 451.349 525.223C498.317 501.803 534.169 508.862 571.324 516.076C617.017 524.966 660.839 536.766 724.313 501.541C813.769 452.047 836.823 365.189 904.886 333.812C908.385 332.182 911.896 330.75 915.389 329.527C1008.41 296.516 1034.03 415.032 1131.74 374.406C1164.97 360.589 1196.89 331.556 1215.13 302.856C1229.16 280.942 1230.43 264.003 1228.91 246.594C1226.43 216.171 1214.62 189.055 1231.27 139.112C1237.56 121.259 1245.93 103.042 1256.25 84.7357C1281.31 38.241 1312.44 -1.18157 1326.58 -19.9447C1367.6 -75.0427 1419.22 -114.954 1469.38 -144.658C1512.29 -169.647 1556.68 -189.168 1600.13 -202.169" stroke="url(#paint4_linear_204_84)" stroke-width="0.5" stroke-miterlimit="10"/>
<path d="M219.164 1000.06C221.087 966.756 224.152 920.353 243.648 861.813C258.214 818.594 316.205 637.371 419.57 556.474C430.895 547.573 443.16 539.805 455.778 533.538C502.636 510.379 538.237 517.437 575.606 523.938C621.431 531.945 664.826 542.517 727.431 507.104C815.417 457.37 838.618 370.968 906.6 339.421C910.085 337.781 913.586 336.343 917.069 335.119C1009.77 302.075 1036.24 419.945 1133.18 379.183C1166.48 365.147 1197.43 335.876 1215.77 306.471C1229.57 284.497 1231.05 267.349 1230.28 249.438C1228.9 218.118 1219.02 190.84 1236.76 141.011C1243.68 122.995 1252.43 104.696 1262.9 86.3352C1288.15 39.7489 1317.95 0.404819 1331.36 -18.7872C1364.8 -66.7713 1413.98 -111.311 1469.82 -144.188C1512.98 -169.724 1557.78 -189.555 1601.59 -202.511" stroke="url(#paint5_linear_204_84)" stroke-width="0.5" stroke-miterlimit="10"/>
<path d="M222.193 1006.61C224.494 972.978 227.349 926.983 247.368 868.629C262.958 823.087 321.651 644.119 424.06 564.573C435.382 555.743 447.621 548.05 460.2 541.856C506.872 518.981 542.34 525.972 579.882 531.801C625.804 538.909 668.932 548.396 730.501 512.712C817.21 462.645 840.331 376.772 907.986 345.251C911.462 343.636 914.949 342.194 918.423 340.931C1010.81 307.852 1038.17 425.037 1134.3 384.178C1167.69 370 1197.68 340.432 1215.99 310.505C1229.59 288.43 1231.25 271.055 1231.1 252.826C1230.84 220.495 1222.96 193.088 1241.88 143.482C1249.43 125.297 1258.57 106.902 1269.21 88.4654C1294.54 41.8539 1322.97 2.57259 1335.72 -16.9591C1366.64 -64.7854 1414.53 -109.821 1469.75 -143.019C1513.22 -169.238 1558.54 -189.504 1602.81 -202.523" stroke="url(#paint6_linear_204_84)" stroke-width="0.5" stroke-miterlimit="10"/>
<path d="M225.167 1013.17C227.902 979.202 231.015 933.203 251.158 875.424C267.868 827.417 327.086 650.931 428.558 572.617C439.875 563.875 452.087 556.276 464.62 550.178C511.14 527.605 546.304 534.696 584.12 539.652C630.167 545.936 672.736 554.127 733.579 518.263C818.967 467.907 842.085 382.538 909.413 351.04C912.875 349.441 916.348 348.012 919.807 346.764C1011.87 313.649 1040.13 430.148 1135.49 389.153C1168.91 374.798 1197.76 345.158 1216.25 314.501C1229.65 292.325 1231.45 274.707 1231.93 256.161C1232.78 222.874 1226.89 195.282 1247.1 145.948C1255.26 127.644 1264.72 109.199 1275.4 90.7235C1300.88 44.0631 1327.89 4.88759 1340.18 -15.1926C1368.63 -62.807 1415.21 -108.343 1469.84 -141.957C1527.66 -178.275 1582.7 -195.644 1603.69 -201.946" stroke="url(#paint7_linear_204_84)" stroke-width="0.5" stroke-miterlimit="10"/>
<path d="M228.178 1019.69C231.274 985.467 234.554 939.55 254.879 882.242C272.708 831.77 332.539 657.68 433.225 580.547C444.54 571.884 456.728 564.36 469.219 558.326C515.595 535.996 550.837 542.811 588.571 547.346C634.716 552.732 676.817 559.735 736.834 523.642C820.935 473.014 843.9 388.197 911.01 356.716C914.448 355.107 917.899 353.666 921.338 352.406C1013.16 319.232 1042.31 435.044 1136.81 393.996C1170.34 379.381 1198.4 349.335 1216.7 318.267C1229.88 296.048 1231.84 278.186 1232.97 259.339C1234.97 225.057 1231.04 197.319 1252.44 148.207C1261.21 129.709 1271.09 111.111 1282.03 92.4997C1307.66 45.7898 1333.12 6.6512 1344.9 -13.8165C1357.75 -37.2477 1375.48 -60.6184 1397.02 -82.5217C1418.55 -104.424 1443.45 -124.408 1470.21 -141.268C1527.22 -177.934 1582.96 -195.452 1605.07 -202.069" stroke="url(#paint8_linear_204_84)" stroke-width="0.5" stroke-miterlimit="10"/>
<path d="M231.068 1026.22C234.547 991.622 238.01 945.873 258.363 888.941C277.382 835.981 337.743 664.368 437.357 588.654C448.645 580.06 460.799 572.621 473.241 566.692C519.464 544.664 554.413 551.519 592.414 555.24C638.689 559.744 680.387 565.596 739.444 529.205C822.26 478.303 845.262 393.951 912.029 362.61C915.467 360.985 918.918 359.545 922.357 358.299C1013.87 325.032 1043.94 440.175 1137.6 399.014C1171.07 384.366 1198.11 354.124 1216.6 322.324C1229.54 300.045 1231.74 281.933 1233.47 262.693C1236.58 227.456 1234.65 199.59 1257.27 150.659C1265.64 132.324 1277.44 113.831 1287.98 94.6957C1313.72 47.9187 1337.91 8.95154 1349.01 -12.0484C1377.68 -66.3881 1420.25 -107.917 1470.11 -140.37C1526.62 -177.232 1582.83 -195.075 1606.08 -202.067" stroke="url(#paint9_linear_204_84)" stroke-width="0.5" stroke-miterlimit="10"/>
<path d="M234.18 1032.79C238.069 997.885 241.682 952.286 262.34 895.846C282.528 840.428 343.414 671.296 442.149 596.906C453.431 588.384 465.562 581.019 477.964 575.163C524.001 553.421 558.775 560.249 596.989 563.256C643.321 566.904 684.702 571.519 742.924 534.957C824.387 483.748 847.353 399.882 913.683 368.575C917.108 366.976 920.545 365.549 923.969 364.306C1015.17 331.003 1046.22 445.317 1138.98 404.205C1172.63 389.271 1198.8 358.648 1217.12 326.512C1229.86 304.132 1232.24 285.793 1234.59 266.236C1238.86 229.943 1238.85 201.916 1262.62 153.248C1271.6 134.907 1283.81 116.305 1294.53 96.9446C1320.42 50.1171 1343.18 11.3142 1353.68 -10.1829C1380.01 -64.2543 1420.7 -106.108 1470.16 -139.017C1526.02 -176.14 1582.81 -194.2 1607.18 -201.508" stroke="url(#paint10_linear_204_84)" stroke-width="0.5" stroke-miterlimit="10"/>
<path d="M237.138 1039.36C241.425 1004.16 245.324 958.626 266.059 902.662C287.485 844.762 348.937 678.02 446.583 604.912C457.86 596.479 469.965 589.209 482.321 583.446C528.222 561.888 562.812 568.75 601.166 571.069C647.62 573.892 688.449 577.405 745.936 540.472C826.112 488.989 849.001 405.653 915.08 374.344C918.48 372.71 921.897 371.271 925.299 370.041C1016.25 336.68 1048.08 450.433 1140.12 409.083C1173.87 393.948 1199.1 363.103 1217.29 330.394C1229.83 307.913 1232.47 289.323 1235.36 269.474C1240.82 232.202 1243.09 203.811 1267.82 155.635C1277.31 137.237 1289.96 118.604 1300.82 98.9984C1326.87 52.1212 1348.32 13.4145 1358.13 -8.55613C1382.1 -62.4319 1420.9 -104.612 1470.27 -138.075C1525.41 -175.437 1582.77 -193.714 1608.3 -201.378" stroke="url(#paint11_linear_204_84)" stroke-width="0.5" stroke-miterlimit="10"/>
<path d="M240.149 1045.88C244.886 1010.33 248.969 964.968 269.78 909.481C292.434 849.055 354.412 684.845 451.079 613.012C462.354 604.656 474.431 597.461 486.748 591.765C532.369 570.635 566.777 577.277 605.411 578.916C651.965 580.841 692.518 583.075 748.945 546.045C827.876 494.248 850.694 411.382 916.438 380.157C919.837 378.523 923.255 377.083 926.658 375.853C1017.3 342.399 1050.06 455.424 1141.28 414.037C1175.06 398.726 1199.36 367.601 1217.52 334.371C1229.9 311.805 1232.67 292.972 1236.19 272.804C1242.81 234.478 1246.86 206.169 1272.95 158.048C1282.99 139.609 1296.07 120.944 1307.15 101.07C1333.27 54.1691 1353.41 15.6172 1362.62 -6.90937C1384.45 -60.3562 1421.07 -103.072 1470.29 -137.05C1524.8 -174.673 1582.74 -193.226 1609.39 -201.206" stroke="url(#paint12_linear_204_84)" stroke-width="0.5" stroke-miterlimit="10"/>
<path d="M243.193 1052.42C248.17 1016.63 252.611 971.308 273.499 916.297C297.377 853.4 359.891 691.612 455.612 621.07C466.86 612.784 478.904 605.675 491.17 600.083C536.859 578.987 570.947 585.846 609.687 586.779C656.33 587.864 696.49 588.888 752.141 551.527C829.721 499.423 852.525 417.12 917.985 385.877C921.361 384.293 924.749 382.865 928.128 381.599C1018.49 348.127 1052.15 460.406 1142.55 418.983C1176.39 403.455 1199.76 372.107 1217.87 338.282C1230.07 315.689 1233.11 296.545 1237.18 276.027C1244.99 236.721 1251.04 208.226 1278.26 160.428C1288.81 141.93 1302.33 123.234 1313.62 103.093C1339.86 56.1239 1358.65 17.7687 1367.22 -5.27158C1386.97 -58.5074 1421.38 -101.583 1470.64 -136.24C1524.5 -174.127 1583.13 -193.022 1610.75 -201.209" stroke="url(#paint13_linear_204_84)" stroke-width="0.5" stroke-miterlimit="10"/>
<path d="M246.151 1058.99C251.593 1022.84 256.288 977.666 277.231 922.947C302.314 857.553 365.348 698.303 460.056 629.017C471.319 620.82 483.347 613.794 495.579 608.266C540.998 587.538 575.062 594.322 613.914 594.492C660.648 594.737 700.45 594.564 755.123 557.025C831.406 504.706 854.184 422.831 919.309 391.671C922.671 390.055 926.051 388.619 929.419 387.377C1019.5 353.827 1054.02 465.404 1143.61 423.886C1177.51 408.197 1199.96 376.57 1218.04 342.222C1230.03 319.529 1233.29 300.117 1237.94 279.324C1246.95 238.98 1254.99 210.356 1283.32 162.805C1294.38 144.252 1308.41 125.497 1319.64 105.322C1346.06 58.3192 1363.54 20.0622 1371.4 -3.46951C1389.09 -56.3576 1421.3 -99.8531 1470.35 -134.999C1523.69 -173.021 1582.44 -191.982 1611.48 -200.779" stroke="url(#paint14_linear_204_84)" stroke-width="0.5" stroke-miterlimit="10"/>
<path d="M249.328 1065.35C255.167 1028.9 260.149 983.794 281.18 929.689C307.539 861.775 371.153 705.049 464.781 636.987C476.019 628.861 488.013 621.922 500.192 616.496C545.459 596.07 579.38 602.846 618.382 602.267C665.171 601.655 704.58 600.271 758.426 562.502C833.39 509.893 856.047 428.589 920.929 397.37C924.281 395.775 927.648 394.334 931.006 393.058C1020.73 359.516 1056.18 470.366 1144.95 428.811C1178.92 412.904 1200.43 381.055 1218.62 346.002C1230.37 323.248 1233.85 303.568 1239.05 282.482C1249.28 241.117 1259.29 212.289 1288.79 165.079C1300.36 146.468 1314.82 127.682 1326.44 107.07C1347.79 70.2587 1364.53 33.6107 1376.32 -2.10511C1391.96 -54.7059 1421.94 -98.6372 1470.85 -134.296C1523.39 -172.666 1583.05 -191.985 1613.29 -201.181" stroke="url(#paint15_linear_204_84)" stroke-width="0.5" stroke-miterlimit="10"/>
<path d="M252.19 1072.06C258.37 1035.32 263.658 990.314 284.68 936.718C312.264 866.333 376.392 712.003 469.14 645.266C480.379 637.306 492.317 630.518 504.416 625.211C549.495 605.072 583.142 611.77 622.423 610.512C669.277 608.984 708.351 606.481 761.304 568.449C834.983 515.567 857.643 434.709 922.251 403.413C925.578 401.828 928.918 400.397 932.253 399.125C1021.7 365.507 1058.05 475.612 1146 434.021C1180.04 417.895 1200.62 385.824 1218.62 350.3C1230.24 327.479 1233.98 307.489 1239.72 286.11C1251.15 243.707 1263.22 214.786 1293.6 167.956C1305.74 149.321 1320.61 130.485 1332.4 109.648C1353.93 72.5614 1370.09 35.6866 1380.45 0.0473256C1394.11 -52.2905 1421.78 -96.5747 1470.6 -132.847C1522.44 -171.379 1582.69 -191.033 1613.95 -200.284" stroke="url(#paint16_linear_204_84)" stroke-width="0.5" stroke-miterlimit="10"/>
<path d="M255.164 1078.62C261.746 1041.53 267.374 996.635 288.311 943.624C317.133 870.759 381.695 718.999 473.505 653.495C484.739 645.525 496.681 638.736 508.781 633.44C553.717 613.543 587.188 620.216 626.642 618.286C673.619 615.935 712.233 612.187 764.327 573.907C836.718 520.753 859.342 440.383 923.479 409.353C926.816 407.711 930.175 406.263 933.523 405.025C1022.77 371.363 1059.9 480.731 1147.04 439.044C1181.15 422.76 1200.93 390.477 1218.77 354.363C1230.22 331.457 1234.11 311.225 1240.48 289.47C1253.13 246.045 1267.23 216.954 1298.84 170.305C1311.63 151.487 1326.63 132.661 1338.78 111.623C1360.5 74.2539 1376.08 37.1498 1384.94 1.63746C1396.74 -50.4469 1422.02 -95.0576 1470.72 -131.962C1521.91 -170.697 1582.77 -190.609 1614.95 -200.278" stroke="url(#paint17_linear_204_84)" stroke-width="0.5" stroke-miterlimit="10"/>
<path d="M258.159 1085.15C265.153 1047.76 270.96 1003.08 291.977 950.488C322.11 875.12 387.106 725.731 477.963 661.577C489.132 653.709 500.983 647.007 512.985 641.774C557.835 622.212 591.03 628.808 630.665 626.148C677.731 622.957 715.987 618.013 767.221 579.488C838.26 526.026 860.937 446.253 924.69 415.156C928.003 413.548 931.335 412.11 934.659 410.852C1023.55 377.138 1061.7 485.753 1147.98 444.072C1182.15 427.57 1200.89 395.014 1218.78 358.355C1230.07 335.364 1234.17 314.862 1241.04 292.857C1255 248.387 1271.11 219.109 1303.7 172.832C1316.82 154.186 1332.68 135.159 1344.79 113.852C1366.68 76.1875 1381.66 38.85 1389.08 3.48183C1399.02 -48.4068 1421.86 -93.3021 1470.43 -130.778C1521.01 -169.759 1582.42 -189.964 1615.79 -199.914" stroke="url(#paint18_linear_204_84)" stroke-width="0.5" stroke-miterlimit="10"/>
<path d="M261.132 1091.71C268.523 1054.02 274.797 1009.33 295.795 957.106C327.274 879.196 392.814 732.423 482.558 669.475C493.766 661.677 505.644 655.07 517.646 649.957C562.242 630.647 595.328 637.252 635.304 633.752C682.418 629.763 720.288 623.549 770.62 584.82C840.374 531.084 862.923 451.688 926.441 420.725C929.753 419.106 933.086 417.668 936.409 416.42C1024.99 382.614 1064.04 490.483 1149.62 448.7C1183.86 431.979 1201.67 399.201 1219.49 362.004C1230.61 338.929 1234.93 318.159 1242.35 295.863C1257.55 250.311 1275.68 220.922 1309.38 174.894C1323.24 156.113 1339.31 137.13 1351.64 115.555C1373.62 77.6635 1388.02 40.1662 1394.08 5.01073C1402.15 -46.5639 1422.58 -91.8632 1471.02 -129.911C1520.91 -169.054 1582.9 -189.593 1617.4 -199.859" stroke="url(#paint19_linear_204_84)" stroke-width="0.5" stroke-miterlimit="10"/>
<path d="M264.349 1098.27C272.272 1060.35 278.698 1015.66 299.754 963.986C332.51 883.557 398.605 739.284 487.337 677.593C498.523 669.874 510.365 663.354 522.313 658.336C566.701 639.235 599.635 645.889 639.54 641.91C686.744 637.081 724.253 629.673 773.693 590.68C842.034 536.797 864.629 457.804 927.855 426.882C931.141 425.242 934.452 423.791 937.756 422.544C1026.1 388.678 1066.04 495.802 1150.64 454.092C1184.98 437.168 1201.86 404.17 1219.66 366.393C1230.62 343.233 1235.16 322.195 1243.13 299.547C1259.65 253.084 1279.88 223.307 1314.53 177.633C1328.91 158.738 1345.44 139.798 1357.95 117.997C1380.18 79.659 1394.02 41.7911 1398.6 6.73297C1404.9 -44.5958 1422.81 -90.2317 1471.15 -128.891C1520.39 -168.239 1582.94 -189.07 1618.51 -199.61" stroke="url(#paint20_linear_204_84)" stroke-width="0.5" stroke-miterlimit="10"/>
<path d="M267.134 1104.81C275.402 1066.55 282.273 1021.97 303.338 970.734C337.351 887.85 403.901 746.081 491.652 685.664C502.833 678.015 514.651 671.569 526.562 666.624C570.863 647.86 603.556 654.455 643.733 649.602C691.026 643.933 728.019 635.439 776.724 596.074C844.03 541.667 866.337 463.414 929.237 432.515C932.51 430.9 935.807 429.463 939.096 428.219C1027.12 394.318 1067.98 500.638 1151.79 458.908C1186.2 441.766 1202.14 408.547 1219.84 370.215C1230.63 346.97 1235.43 325.681 1243.94 302.74C1261.6 255.146 1283.83 225.435 1319.59 180.01C1334.48 161.056 1351.44 142.085 1364.14 119.999C1386.56 81.3169 1399.8 43.1879 1402.91 8.34981C1407.43 -42.8083 1422.86 -88.6861 1471.04 -127.878C1519.21 -167.068 1582.75 -188.536 1619.54 -199.534" stroke="url(#paint21_linear_204_84)" stroke-width="0.5" stroke-miterlimit="10"/>
<path d="M270.145 1111.33C278.743 1072.74 286.074 1028.26 307.058 977.551C342.553 892.193 409.449 752.881 495.986 693.873C507.176 686.346 518.958 679.999 530.819 675.11C575.008 656.606 607.323 663.326 647.842 657.634C695.192 651.107 731.951 641.294 779.569 601.757C845.43 547.185 867.71 469.359 930.358 438.46C933.623 436.87 936.905 435.43 940.183 434.148C1027.93 400.171 1069.62 505.712 1152.71 463.996C1187.15 446.678 1202.19 413.195 1219.88 374.283C1230.46 350.995 1235.44 329.421 1244.54 306.205C1263.5 257.564 1287.76 227.683 1324.66 182.388C1340.16 163.37 1357.53 144.349 1370.26 122.027C1392.85 82.9784 1405.51 44.5702 1407.19 9.95246C1410.1 -40.9509 1423.08 -87.0555 1471.31 -126.851C1519.55 -166.647 1583.09 -187.921 1620.84 -199.319" stroke="url(#paint22_linear_204_84)" stroke-width="0.5" stroke-miterlimit="10"/>
<path d="M273.19 1117.87C282.119 1078.95 289.823 1034.59 310.779 984.369C347.507 896.431 414.988 759.742 500.69 701.765C511.855 694.311 523.605 688.049 535.412 683.262C579.416 665.044 611.851 671.444 652.254 665.315C699.821 657.822 736.159 646.974 782.919 607.19C847.453 552.387 869.778 474.965 932.048 444.192C935.314 442.579 938.6 441.118 941.883 439.82C1029.31 405.808 1072.04 510.672 1154.1 468.878C1188.65 451.299 1202.78 417.67 1220.41 378.161C1230.83 354.788 1236.07 332.905 1245.68 309.38C1265.9 259.735 1292.2 229.684 1329.95 184.887C1346 165.828 1363.73 146.742 1376.82 124.219C1399.56 84.8024 1411.61 46.1278 1411.87 11.7601C1412.98 -39.1068 1423.27 -85.4389 1471.28 -125.917C1519.29 -166.394 1582.62 -187.457 1621.82 -199.196" stroke="url(#paint23_linear_204_84)" stroke-width="0.5" stroke-miterlimit="10"/>
<path d="M276.148 1124.44C285.421 1085.18 293.57 1040.93 314.535 991.147C352.607 900.722 420.496 766.583 505.186 709.861C516.338 702.466 528.067 696.276 539.837 691.578C583.655 673.644 615.705 680.228 656.533 673.177C703.987 664.995 740.069 652.75 786.002 612.736C849.248 557.66 871.537 480.726 933.48 449.976C936.722 448.374 939.982 446.922 943.24 445.629C1030.39 411.599 1073.95 515.626 1155.3 473.845C1189.87 456.091 1203.11 422.199 1220.65 382.134C1230.93 358.696 1236.32 336.51 1246.51 312.708C1268.08 261.975 1296.4 231.813 1335.15 187.272C1351.74 168.172 1369.87 149.096 1383.1 126.33C1406.04 86.514 1417.51 47.5452 1416.32 13.4444C1415.88 -37.3855 1423.71 -84.0199 1471.31 -124.894C1518.01 -165.022 1582.78 -187.065 1622.94 -199.01" stroke="url(#paint24_linear_204_84)" stroke-width="0.5" stroke-miterlimit="10"/>
<path d="M279.068 1131.05C288.558 1091.57 297.241 1047.34 318.164 998.05C357.616 905.1 425.991 773.483 509.635 718.003C520.773 710.704 532.46 704.606 544.177 699.979C587.884 682.305 619.681 688.888 660.691 681.106C708.219 671.949 744.05 658.502 789.207 618.158C851.166 562.809 873.42 486.362 935.037 455.636C938.277 454.02 941.537 452.568 944.796 451.29C1031.67 417.183 1076.1 520.448 1156.66 478.648C1191.3 460.676 1203.64 426.578 1221.08 385.959C1231.19 362.435 1237.01 340.082 1247.54 315.888C1270.33 264.192 1300.77 233.776 1340.52 189.549C1357.65 170.409 1376.18 151.284 1389.63 128.25C1412.64 88.0796 1423.45 48.882 1420.84 15.1055C1418.68 -35.5195 1423.72 -82.18 1471.29 -123.769C1517.33 -164.041 1582.68 -186.419 1623.98 -198.739" stroke="url(#paint25_linear_204_84)" stroke-width="0.5" stroke-miterlimit="10"/>
<path d="M282.116 1137.53C292.102 1097.56 301.117 1053.55 321.959 1004.79C362.673 909.238 431.58 780.243 514.177 726.003C525.325 718.785 536.997 712.768 548.684 708.215C592.205 690.826 623.827 697.383 665.052 688.887C712.643 679.068 747.937 664.4 792.118 623.876C852.825 568.271 875.007 492.295 936.29 461.651C939.515 460.014 942.766 458.555 946.016 457.287C1032.58 423.089 1077.91 525.607 1157.61 483.814C1192.35 465.64 1203.76 431.321 1221.14 390.104C1231.12 366.512 1237.02 343.824 1248.2 319.387C1272.41 266.58 1304.79 236.137 1345.51 192.147C1363.29 172.96 1382.15 153.81 1395.78 130.549C1423.55 82.904 1427.44 45.8468 1425.28 16.8534C1421.5 -33.7095 1423.93 -80.4877 1471.47 -122.849C1516.73 -163.143 1582.81 -186.038 1625.22 -198.673" stroke="url(#paint26_linear_204_84)" stroke-width="0.5" stroke-miterlimit="10"/>
<path d="M285.159 1144.06C295.606 1103.89 304.878 1059.87 325.678 1011.61C367.94 913.612 437.12 787.098 518.712 734.058C529.837 726.915 541.475 720.984 553.108 716.53C596.478 699.442 627.849 706 669.296 696.73C716.934 686.113 751.913 670.209 795.233 629.438C854.62 573.543 876.732 498.036 937.554 467.602C940.694 465.968 943.863 464.491 947.036 463.179C1033.31 428.961 1079.69 530.493 1158.47 488.864C1193.25 470.454 1203.78 435.948 1221.11 394.135C1230.93 370.459 1237.09 347.461 1248.81 322.731C1274.25 268.901 1305.14 236.436 1350.37 194.614C1371.58 175.362 1389.19 154.154 1401.81 132.658C1429.63 84.9711 1432.58 47.9442 1429.43 18.5781C1424.06 -31.9067 1424.07 -79.0282 1471.28 -121.812C1516.04 -162.358 1582.55 -185.538 1626.05 -198.447" stroke="url(#paint27_linear_204_84)" stroke-width="0.5" stroke-miterlimit="10"/>
<path d="M288.17 1150.58C298.98 1110.09 308.749 1066.14 329.435 1018.38C373.112 917.882 442.692 793.975 523.206 742.158C534.324 735.088 545.937 729.232 557.532 724.848C600.79 708.021 631.945 714.594 673.573 704.595C721.301 693.136 755.887 676.02 798.271 635.029C856.329 578.903 878.405 503.884 939.068 473.305C942.268 471.682 945.495 470.232 948.719 468.967C1034.72 434.673 1081.84 535.567 1159.87 493.877C1194.76 475.209 1204.32 440.522 1221.58 398.171C1231.27 374.368 1237.64 351.16 1249.85 326.105C1276.67 271.205 1309.73 238.578 1355.78 197.103C1377.49 177.887 1395.52 156.526 1408.34 134.831C1436.45 87.1041 1438.22 50.0475 1434.16 20.2836C1427.17 -30.1399 1424.33 -77.1274 1471.59 -120.768C1515.81 -161.586 1582.75 -184.931 1627.38 -198.216" stroke="url(#paint28_linear_204_84)" stroke-width="0.5" stroke-miterlimit="10"/>
<path d="M291.129 1157.16C302.404 1116.31 312.461 1072.52 333.189 1025.22C378.267 922.219 448.133 800.784 527.743 750.215C538.865 743.264 550.443 737.507 561.993 733.184C605.065 716.641 636.043 723.189 677.852 712.459C725.494 700.134 759.295 681.546 801.429 640.553C858.97 584.542 880.156 509.705 940.61 479.085C943.738 477.464 946.894 475.999 950.052 474.703C1035.74 440.375 1083.81 540.425 1161.05 498.715C1195.97 479.869 1204.7 444.952 1221.88 401.988C1231.39 378.16 1237.98 354.684 1250.74 329.336C1278.86 273.388 1314.18 240.518 1360.96 199.415C1383.23 180.253 1401.71 158.718 1414.71 136.802C1442.9 89.0502 1443.78 51.982 1438.66 21.8698C1430.09 -28.5327 1424.57 -75.6135 1471.46 -119.633C1515.18 -160.704 1582.56 -184.335 1628.48 -198.102" stroke="url(#paint29_linear_204_84)" stroke-width="0.5" stroke-miterlimit="10"/>
<path d="M294.206 1163.71C305.793 1122.6 316.24 1078.87 336.893 1032.04C383.471 926.504 453.8 807.712 532.231 758.316C543.338 751.409 554.899 745.722 566.413 741.502C609.255 725.288 640.06 731.809 682.124 720.323C729.915 707.252 763.832 687.647 804.539 646.119C859.983 589.489 881.951 515.427 941.994 484.915C945.12 483.282 948.277 481.818 951.436 480.533C1036.84 446.129 1085.78 545.416 1162.24 503.687C1197.22 484.623 1205.05 449.501 1222.14 405.983C1231.48 382.069 1238.34 358.283 1251.77 332.459C1281.19 275.524 1318.72 242.509 1366.32 201.694C1389.09 182.591 1408.02 160.894 1421.19 138.767C1449.5 90.9476 1449.37 53.8754 1443.23 23.4325C1433.11 -26.9328 1421.92 -75.9402 1471.89 -118.966C1517.5 -158.258 1582.77 -184.156 1629.8 -198.122" stroke="url(#paint30_linear_204_84)" stroke-width="0.5" stroke-miterlimit="10"/>
<path d="M297.13 1170.26C309.18 1128.79 320.04 1085.15 340.664 1038.81C388.608 930.756 459.466 814.443 536.733 766.355C547.826 759.551 559.345 753.955 570.804 749.8C613.537 733.846 644.124 740.384 686.336 728.151C734.081 714.423 767.688 693.522 807.586 651.649C861.745 594.745 883.675 521.171 943.351 490.724C946.479 489.107 949.635 487.642 952.793 486.342C1037.86 451.828 1087.74 550.328 1163.36 508.68C1198.42 489.339 1205.52 453.846 1222.37 409.956C1231.45 385.907 1238.66 361.92 1252.43 335.954C1283.23 277.949 1325.94 246.741 1371.28 204.271C1392 184.866 1412.83 165.455 1427.32 140.987C1455.7 93.1421 1454.68 56.0593 1447.55 25.2428C1435.76 -25.0184 1422.05 -74.1687 1471.84 -117.859C1516.7 -157.464 1582.68 -183.511 1630.76 -197.827" stroke="url(#paint31_linear_204_84)" stroke-width="0.5" stroke-miterlimit="10"/>
<path d="M300.14 1176.78C312.503 1135.05 323.821 1091.5 344.336 1045.62C393.828 935.033 464.914 821.444 541.269 774.412C552.338 767.676 563.822 762.166 575.23 758.118C617.819 742.407 648.145 749.003 690.58 735.997C738.574 721.321 771.748 699.25 810.626 657.239C863.541 600.02 885.359 526.958 944.816 496.527C947.944 494.903 951.1 493.438 954.258 492.146C1039.2 457.756 1089.79 555.293 1164.59 513.668C1199.68 494.15 1205.74 458.637 1222.67 413.965C1231.79 389.876 1239.21 365.427 1253.33 339.319C1285.46 280.284 1330.15 249.065 1376.57 206.768C1397.91 187.297 1419.04 167.844 1433.74 143.167C1462.24 95.2559 1460.29 58.0852 1452.13 26.9967C1438.93 -23.4121 1422.44 -72.3949 1471.96 -116.784C1516.43 -156.592 1582.81 -182.94 1631.98 -197.588" stroke="url(#paint32_linear_204_84)" stroke-width="0.5" stroke-miterlimit="10"/>
<path d="M303.152 1183.3C315.926 1141.26 327.622 1097.79 348.056 1052.44C399.195 939.211 470.487 828.32 545.729 782.495C556.813 775.87 568.276 770.443 579.655 766.436C622.092 751.026 652.166 757.622 694.858 743.86C742.866 728.368 775.68 705.104 813.708 662.788C865.327 605.353 887.117 532.72 946.248 502.315C949.375 500.679 952.531 499.214 955.69 497.933C1040.19 463.381 1091.79 560.223 1165.83 518.595C1200.85 498.792 1206.39 462.891 1222.98 417.915C1231.9 393.725 1239.32 369.276 1254.24 342.624C1287.71 282.56 1334.39 251.214 1381.74 209.138C1403.69 189.661 1425.19 170.141 1440.11 145.196C1468.72 97.2179 1465.81 60.062 1456.62 28.6427C1441.93 -21.8307 1422.8 -70.7553 1472.11 -115.826C1515.93 -155.896 1582.85 -182.478 1633.15 -197.441" stroke="url(#paint33_linear_204_84)" stroke-width="0.5" stroke-miterlimit="10"/>
<path d="M306.143 1189.89C319.333 1147.49 331.44 1104.1 351.875 1059.3C404.411 943.634 476.123 835.231 550.328 790.587C561.393 784.053 572.817 778.715 584.143 774.789C626.393 759.664 656.326 766.25 699.167 751.742C747.254 735.469 779.717 710.951 816.885 668.387C867.219 610.68 888.938 538.518 947.725 508.253C950.853 506.633 954.009 505.168 957.167 503.871C1041.42 469.261 1093.9 565.283 1167.1 523.736C1202.38 503.682 1206.87 467.567 1223.33 422.02C1232.12 397.76 1239.91 372.935 1255.23 346.041C1290.04 284.947 1338.73 253.549 1387.06 211.711C1409.6 192.152 1431.42 172.608 1446.66 147.445C1475.38 99.4586 1471.55 62.2164 1461.29 30.5075C1445.06 -19.9876 1423.22 -68.7699 1472.4 -114.663C1515.61 -154.98 1583.03 -181.813 1634.33 -196.966" stroke="url(#paint34_linear_204_84)" stroke-width="0.5" stroke-miterlimit="10"/>
<path d="M309.154 1196.41C322.705 1153.75 335.204 1110.43 355.567 1066.05C409.547 947.945 481.623 842.132 554.758 798.653C565.812 792.172 577.216 786.908 588.504 783.073C630.644 768.209 660.317 774.853 703.38 759.572C751.516 742.5 783.662 716.746 819.803 673.852C868.85 615.871 890.49 544.238 948.961 513.938C952.073 512.326 955.216 510.876 958.36 509.599C1042.3 474.954 1095.69 570.113 1168.07 528.589C1203.34 508.533 1207.08 471.971 1223.4 425.911C1232.06 401.525 1240.03 376.473 1255.9 349.287C1292.04 287.163 1342.76 255.654 1391.95 214.004C1415.32 194.23 1437.37 174.804 1452.61 149.389C1481.45 101.336 1476.7 64.0064 1465.45 31.9834C1447.64 -18.5491 1426.06 -65.684 1472.09 -113.807C1512.14 -155.672 1582.67 -181.494 1635.25 -197.13" stroke="url(#paint35_linear_204_84)" stroke-width="0.5" stroke-miterlimit="10"/>
<path d="M312.113 1202.98C326.079 1159.96 339.056 1116.76 359.286 1072.87C414.913 952.122 487.195 849.009 559.292 806.712C570.327 800.324 581.693 795.147 592.928 791.391C634.881 776.812 664.421 783.389 707.698 767.394C755.882 749.525 787.71 722.534 823.058 679.427C870.683 621.358 892.339 550.111 950.524 519.794C953.639 518.195 956.78 516.745 959.923 515.455C1043.59 480.733 1097.85 575.07 1169.42 533.645C1204.8 513.136 1207.69 476.521 1223.91 429.905C1232.37 405.477 1240.63 380.132 1256.93 352.662C1294.49 289.483 1347.2 257.906 1397.42 216.528C1421.15 196.939 1443.78 177.239 1459.24 151.555C1488.16 103.477 1482.52 66.077 1470.2 33.7652C1450.87 -16.8497 1426.84 -64.1508 1472.47 -112.729C1511.93 -154.764 1582.94 -180.913 1636.65 -196.865" stroke="url(#paint36_linear_204_84)" stroke-width="0.5" stroke-miterlimit="10"/>
<path d="M315.156 1209.52C329.486 1166.18 342.837 1123.11 362.99 1079.69C420.222 956.403 492.756 855.944 563.967 814.777C575.01 808.475 586.361 803.38 597.569 799.693C639.369 785.416 668.649 792.05 711.905 775.476C760.135 756.808 791.614 728.563 826.068 685.194C872.661 626.6 894.036 556.033 951.842 525.84C954.956 524.22 958.098 522.77 961.241 521.502C1044.63 486.703 1099.77 580.22 1170.45 538.783C1205.86 518.04 1207.88 481.235 1223.97 434.048C1232.33 409.569 1240.82 383.956 1257.58 356.218C1296.48 292.012 1351.24 260.339 1402.41 219.124C1426.54 199.738 1449.67 179.845 1465.35 153.894C1494.38 105.749 1487.82 68.262 1474.44 35.6606C1453.6 -15.017 1426.74 -62.1088 1472.36 -111.519C1511.27 -153.707 1582.76 -180.182 1637.55 -196.467" stroke="url(#paint37_linear_204_84)" stroke-width="0.5" stroke-miterlimit="10"/>
<path d="M318.167 1216.04C332.857 1172.44 346.727 1129.31 366.71 1086.51C425.532 960.684 498.364 862.835 568.287 822.849C579.277 816.703 590.541 811.739 601.651 808.15C643.299 794.176 672.361 800.826 716.017 783.252C764.329 763.804 795.456 734.306 829.143 690.799C874.364 632.016 895.794 561.794 953.309 531.643C956.41 530.045 959.538 528.608 962.666 527.346C1045.77 492.529 1101.71 585.25 1171.78 543.819C1207.22 522.9 1208.45 485.825 1224.4 438.124C1232.64 413.519 1241.3 387.68 1258.67 359.548C1298.99 294.422 1355.68 262.587 1407.82 221.611C1432.59 201.983 1456.03 182.184 1471.88 156.007C1501.03 107.853 1493.55 70.2793 1479.13 37.4059C1456.81 -13.394 1427.28 -60.3864 1472.63 -110.435C1510.99 -152.777 1582.96 -179.637 1638.88 -196.237" stroke="url(#paint38_linear_204_84)" stroke-width="0.5" stroke-miterlimit="10"/>
<path d="M321.126 1222.61C336.266 1178.67 350.471 1135.7 370.569 1093.34C430.978 965.034 503.857 869.992 572.877 831.004C583.903 824.843 595.207 819.894 606.342 816.354C647.846 802.624 676.682 809.348 720.527 790.986C768.921 770.756 799.697 740.004 832.525 695.998C876.493 636.96 897.853 567.209 954.999 537.123C958.102 535.54 961.229 534.105 964.356 532.826C1047.15 497.916 1104.05 589.791 1173.23 548.484C1208.75 527.287 1209.16 489.982 1225.02 441.92C1233.08 417.23 1242.04 391.097 1259.88 362.698C1301.34 296.442 1360.26 264.597 1413.33 223.842C1438.81 204.261 1462.52 184.344 1478.55 157.94C1507.91 109.577 1499.49 72.0339 1483.96 38.9127C1460.07 -11.9852 1428.04 -59.0434 1473.05 -109.649C1510.79 -152.176 1583.38 -179.296 1640.36 -196.245" stroke="url(#paint39_linear_204_84)" stroke-width="0.5" stroke-miterlimit="10"/>
<path d="M324.101 1229.11C339.534 1184.88 354.184 1142.02 374.119 1100.07C436.205 969.197 509.419 876.674 577.243 838.976C588.238 832.937 599.486 828.092 610.554 824.63C651.906 811.2 680.524 817.941 724.593 798.806C773.067 777.794 803.458 745.773 835.224 701.672C877.898 642.419 899.088 573.086 956.05 543.034C959.152 541.447 962.279 540.011 965.407 538.736C1047.88 503.792 1105.62 594.83 1174.05 553.579C1209.6 532.147 1209.21 494.629 1224.82 445.869C1232.79 421.069 1241.97 394.727 1260.28 366.002C1303.25 298.742 1364.04 266.837 1418.09 226.261C1444.19 206.672 1468.06 186.589 1484.48 160.001C1513.87 111.656 1504.58 73.9828 1487.98 40.573C1462.51 -10.3055 1427.85 -57.3055 1472.72 -108.676C1510.01 -151.306 1582.87 -178.794 1641.19 -196.076" stroke="url(#paint40_linear_204_84)" stroke-width="0.5" stroke-miterlimit="10"/>
<path d="M327.127 1235.71C343.009 1191.13 358.07 1148.37 377.891 1106.93C441.62 973.474 515.083 883.659 581.812 847.05C592.805 841.137 604.017 836.389 615.045 832.981C656.211 819.837 684.644 826.611 728.903 806.687C777.457 784.893 807.491 751.678 838.373 707.253C879.76 647.727 900.979 578.917 957.406 548.845C960.434 547.221 963.495 545.751 966.563 544.447C1048.76 509.484 1107.41 599.66 1174.97 558.473C1210.6 536.763 1209.52 499.084 1224.89 449.759C1232.69 424.876 1242.08 398.265 1260.99 369.207C1305.25 300.958 1368.1 268.959 1423.06 228.588C1449.76 208.993 1474.21 188.886 1490.57 162.013C1520.02 113.701 1509.94 75.8146 1492.26 42.1747C1465.4 -8.96878 1427.98 -55.7259 1472.58 -107.736C1509.36 -150.56 1582.67 -178.392 1641.97 -196.057" stroke="url(#paint41_linear_204_84)" stroke-width="0.5" stroke-miterlimit="10"/>
<path d="M330.138 1242.23C346.417 1197.36 361.866 1154.71 381.649 1113.71C447.117 977.774 520.514 890.526 586.305 855.149C597.288 849.299 608.479 844.625 619.469 841.299C660.483 828.456 688.741 835.205 733.181 814.549C781.74 792 811.506 757.447 841.488 712.817C881.521 652.985 902.696 584.719 958.929 554.741C961.956 553.117 965.018 551.647 968.085 550.342C1050 515.304 1109.47 604.624 1176.36 563.545C1211.88 541.65 1209.89 503.573 1225.42 453.636C1233.13 428.701 1242.74 401.821 1262.12 372.437C1307.79 303.193 1372.59 271.107 1428.55 230.933C1455.84 211.315 1480.66 191.142 1497.23 164C1526.72 115.706 1515.79 77.6494 1497.08 43.7365C1468.7 -7.54596 1428.69 -54.2272 1473.03 -106.877C1509.25 -149.855 1583.01 -178.029 1643.47 -195.993" stroke="url(#paint42_linear_204_84)" stroke-width="0.5" stroke-miterlimit="10"/>
<path d="M333.148 1248.75C349.787 1203.62 365.733 1161.03 385.368 1120.53C452.546 982.04 526.248 897.543 590.844 863.204C601.806 857.443 612.958 852.858 623.898 849.613C664.767 837.014 692.799 843.837 737.428 822.394C786.069 799.062 815.485 763.256 844.402 718.532C883.251 658.476 904.203 590.732 960.195 560.693C963.199 559.093 966.233 557.631 969.276 556.319C1050.88 521.246 1111.26 609.704 1177.32 568.647C1213.02 546.467 1210.19 508.278 1225.39 457.919C1232.93 432.9 1242.66 405.701 1262.65 376.117C1309.7 305.802 1376.47 273.706 1433.38 233.695C1461.27 214.07 1486.43 193.814 1503.21 166.464C1532.73 118.184 1521.02 79.9169 1501.19 45.7564C1471.32 -5.64936 1428.53 -52.2219 1472.75 -105.503C1508.43 -148.634 1582.63 -177.151 1644.37 -195.539" stroke="url(#paint43_linear_204_84)" stroke-width="0.5" stroke-miterlimit="10"/>
<path d="M336.141 1255.34C351.217 1213.09 368.89 1170.36 389.088 1127.35C458.047 986.284 531.767 904.523 595.249 871.391C606.204 865.709 617.331 861.198 628.236 858.018C668.944 845.78 696.766 852.561 741.653 830.36C790.374 806.249 819.438 769.189 847.599 724.016C885.195 663.704 906.119 596.388 961.732 566.475C964.723 564.854 967.747 563.387 970.782 562.084C1052.1 526.935 1113.33 614.554 1178.56 573.579C1214.34 551.122 1210.75 512.737 1225.77 461.848C1233.14 436.744 1243.29 409.38 1263.46 379.317C1311.92 308.006 1380.67 275.84 1438.55 236.009C1467.06 216.378 1492.55 196.039 1509.52 168.403C1539.29 119.932 1526.56 81.7188 1505.49 47.2438C1474.06 -4.3179 1428.81 -50.7467 1472.63 -104.676C1507.8 -148.003 1582.47 -176.845 1645.18 -195.441" stroke="url(#paint44_linear_204_84)" stroke-width="0.5" stroke-miterlimit="10"/>
<path d="M339.151 1261.86C354.532 1219.67 372.459 1177.03 392.845 1134.12C463.582 990.546 537.365 911.473 599.838 879.346C610.786 873.774 621.88 869.359 632.747 866.251C673.267 854.298 700.906 861.112 745.949 838.105C794.751 813.213 823.508 774.857 850.69 729.505C887.075 668.895 907.929 602.049 963.174 572.202C966.155 570.591 969.166 569.118 972.19 567.794C1053.27 532.585 1115.35 619.308 1179.93 578.322C1215.71 555.613 1211.36 517.033 1226.18 465.597C1233.46 440.383 1243.76 412.775 1264.54 382.394C1314.29 310.097 1384.87 277.778 1443.89 238.211C1472.97 218.615 1498.84 198.151 1516.01 170.306C1545.83 121.735 1532.13 83.5929 1510.32 48.8053C1477.37 -2.89615 1429.47 -49.1494 1473.08 -103.819C1507.73 -147.281 1582.82 -176.485 1646.69 -195.437" stroke="url(#paint45_linear_204_84)" stroke-width="0.5" stroke-miterlimit="10"/>
<path d="M342.11 1268.43C357.813 1226.3 375.981 1183.75 396.565 1140.94C469.102 994.816 542.917 918.469 604.328 887.447C615.266 881.956 626.336 877.614 637.168 874.57C677.536 862.92 704.958 869.749 750.223 845.971C799.157 820.195 827.478 780.671 853.801 735.071C888.9 674.188 909.684 607.813 964.602 577.99C967.568 576.384 970.567 574.925 973.576 573.624C1054.34 538.381 1117.3 624.224 1181 583.42C1216.81 560.476 1211.63 521.666 1226.32 469.717C1233.47 444.436 1243.98 416.56 1265.31 385.887C1316.4 312.56 1389.15 280.274 1448.99 240.802C1478.74 221.232 1504.88 200.652 1522.28 172.538C1552.17 123.942 1537.76 85.5046 1514.7 50.6538C1480.24 -1.24635 1429.83 -47.449 1473.05 -102.691C1507.18 -146.289 1582.72 -175.835 1647.72 -195.103" stroke="url(#paint46_linear_204_84)" stroke-width="0.5" stroke-miterlimit="10"/>
<path d="M345.152 1274.96C361.108 1232.91 379.511 1190.45 400.269 1147.77C474.669 999.093 548.243 925.537 608.726 895.437C619.672 890.067 630.72 885.829 641.523 882.854C681.621 871.572 709.018 878.326 754.397 853.783C803.362 827.327 831.416 786.465 856.812 740.586C890.659 679.447 911.296 613.567 965.955 583.802C968.905 582.175 971.895 580.709 974.895 579.419C1055.18 544.25 1119.15 629.088 1182.05 588.381C1217.98 565.118 1211.97 526.137 1226.51 473.676C1233.1 446.507 1246.6 417.74 1266.14 389.217C1318.83 314.743 1393.46 282.649 1454.15 243.229C1484.45 223.621 1511.02 203.009 1528.56 174.651C1558.6 126.006 1543.4 87.2962 1519.14 52.3395C1483.24 0.275912 1430.22 -45.793 1473.11 -101.649C1506.8 -145.467 1582.71 -175.331 1648.83 -194.915" stroke="url(#paint47_linear_204_84)" stroke-width="0.5" stroke-miterlimit="10"/>
<path d="M348.164 1281.49C366.686 1234.78 384.906 1192.59 403.99 1154.58C480.153 1003.46 554.061 932.473 613.357 903.605C624.251 898.291 635.245 894.108 645.985 891.189C686.182 879.957 712.899 887.189 758.678 861.647C807.757 834.427 835.535 792.286 859.797 746.083C892.498 684.681 912.957 619.279 967.248 589.58C970.205 587.959 973.195 586.475 976.196 585.139C1056.28 549.867 1121.01 633.952 1183.14 593.302C1219.08 569.787 1212.27 530.593 1226.65 477.601C1233.23 450.229 1246.97 421.198 1266.95 392.473C1320.88 317.171 1397.48 284.814 1459.25 245.625C1490.11 226.052 1517.02 205.356 1535.02 176.538C1565.18 127.826 1549.02 89.0713 1523.73 53.8426C1486.27 1.62234 1430.73 -44.3364 1473.31 -100.85C1506.46 -144.821 1582.85 -175.011 1649.85 -194.718" stroke="url(#paint48_linear_204_84)" stroke-width="0.5" stroke-miterlimit="10"/>
<path d="M351.302 1287.88C370.438 1240.66 388.814 1198.81 407.912 1161.2C486.046 1007.46 559.741 939.34 618.025 911.478C628.914 906.359 639.862 902.332 650.55 899.515C690.395 888.737 717.464 895.515 763.054 869.56C812.18 841.542 839.609 798.148 863.11 751.751C894.559 690.091 914.872 625.184 968.912 595.484C971.855 593.878 974.831 592.407 977.819 591.084C1057.67 555.695 1123.17 638.967 1184.53 598.433C1220.51 574.623 1212.92 535.158 1227.14 481.712C1233.64 454.162 1247.62 424.87 1268.07 395.955C1323.34 319.624 1401.92 287.257 1464.71 248.205C1496.18 228.626 1523.51 207.763 1541.44 178.971C1571.75 130.208 1554.68 91.3078 1528.31 55.849C1489.33 3.4311 1431.26 -42.4191 1473.51 -99.547C1506.18 -143.696 1582.9 -174.163 1651.27 -194.438" stroke="url(#paint49_linear_204_84)" stroke-width="0.5" stroke-miterlimit="10"/>
<path d="M353.998 1294.51C373.202 1247.33 392.296 1205.26 411.332 1168.11C491.387 1011.81 565.028 946.448 622.259 919.634C633.149 914.534 644.092 910.529 654.775 907.73C694.509 897.211 721.183 904.232 767.098 877.304C816.239 848.47 843.382 803.857 866.025 757.213C896.153 695.263 916.379 630.944 970.093 601.268C973.009 599.643 975.964 598.16 978.932 596.835C1058.55 561.327 1124.85 643.803 1185.45 603.325C1221.46 579.28 1213.26 539.629 1227.34 485.418C1233.85 457.66 1248.08 428.104 1268.95 398.991C1325.72 321.714 1406.15 289.21 1469.95 250.297C1501.96 230.795 1529.69 209.824 1547.84 180.763C1578.25 132.302 1560.15 93.1302 1532.65 57.4832C1492.2 4.88337 1431.56 -40.8137 1473.47 -98.5563C1505.68 -142.944 1582.79 -173.711 1652.34 -194.343" stroke="url(#paint50_linear_204_84)" stroke-width="0.5" stroke-miterlimit="10"/>
<path d="M357.292 1301.25C462.553 1047.09 557.865 959.58 627.052 927.887C687.081 900.34 714.079 919.859 771.674 885.321C886.555 816.404 878.351 659.093 971.739 607.293C1054.84 561.216 1124.72 650.443 1186.96 608.585C1239.97 572.796 1195.3 503.315 1269.81 402.843C1357.05 285.108 1499.44 270.951 1554.12 183.382C1629.54 62.6836 1403.87 0.739922 1473.81 -97.2432C1505.5 -141.767 1583.03 -172.893 1653.7 -193.841" stroke="url(#paint51_linear_204_84)" stroke-width="0.5" stroke-miterlimit="10"/>
</g>
<defs>
<linearGradient id="paint0_linear_204_84" x1="385.747" y1="656.245" x2="315.368" y2="969.869" gradientUnits="userSpaceOnUse">
<stop stop-color="#94C6FF"/>
<stop offset="1" stop-color="white" stop-opacity="0"/>
</linearGradient>
<linearGradient id="paint1_linear_204_84" x1="390.343" y1="662.469" x2="338.599" y2="1176.37" gradientUnits="userSpaceOnUse">
<stop stop-color="#94C6FF"/>
<stop offset="1" stop-color="white" stop-opacity="0"/>
</linearGradient>
<linearGradient id="paint2_linear_204_84" x1="394.93" y1="668.638" x2="345.64" y2="1182.26" gradientUnits="userSpaceOnUse">
<stop stop-color="#94C6FF"/>
<stop offset="1" stop-color="white" stop-opacity="0"/>
</linearGradient>
<linearGradient id="paint3_linear_204_84" x1="399.567" y1="674.78" x2="352.759" y2="1188.13" gradientUnits="userSpaceOnUse">
<stop stop-color="#94C6FF"/>
<stop offset="1" stop-color="white" stop-opacity="0"/>
</linearGradient>
<linearGradient id="paint4_linear_204_84" x1="404.039" y1="681.118" x2="359.713" y2="1193.9" gradientUnits="userSpaceOnUse">
<stop stop-color="#94C6FF"/>
<stop offset="1" stop-color="white" stop-opacity="0"/>
</linearGradient>
<linearGradient id="paint5_linear_204_84" x1="408.782" y1="687.212" x2="367.018" y2="1199.71" gradientUnits="userSpaceOnUse">
<stop stop-color="#94C6FF"/>
<stop offset="1" stop-color="white" stop-opacity="0"/>
</linearGradient>
<linearGradient id="paint6_linear_204_84" x1="413.457" y1="693.373" x2="374.264" y2="1205.41" gradientUnits="userSpaceOnUse">
<stop stop-color="#94C6FF"/>
<stop offset="1" stop-color="white" stop-opacity="0"/>
</linearGradient>
<linearGradient id="paint7_linear_204_84" x1="417.977" y1="699.673" x2="381.326" y2="1211.07" gradientUnits="userSpaceOnUse">
<stop stop-color="#94C6FF"/>
<stop offset="1" stop-color="white" stop-opacity="0"/>
</linearGradient>
<linearGradient id="paint8_linear_204_84" x1="422.695" y1="705.809" x2="388.686" y2="1216.66" gradientUnits="userSpaceOnUse">
<stop stop-color="#94C6FF"/>
<stop offset="1" stop-color="white" stop-opacity="0"/>
</linearGradient>
<linearGradient id="paint9_linear_204_84" x1="427.112" y1="711.916" x2="395.73" y2="1222.13" gradientUnits="userSpaceOnUse">
<stop stop-color="#94C6FF"/>
<stop offset="1" stop-color="white" stop-opacity="0"/>
</linearGradient>
<linearGradient id="paint10_linear_204_84" x1="432.004" y1="718.322" x2="403.239" y2="1227.72" gradientUnits="userSpaceOnUse">
<stop stop-color="#94C6FF"/>
<stop offset="1" stop-color="white" stop-opacity="0"/>
</linearGradient>
<linearGradient id="paint11_linear_204_84" x1="436.574" y1="724.52" x2="410.492" y2="1233.13" gradientUnits="userSpaceOnUse">
<stop stop-color="#94C6FF"/>
<stop offset="1" stop-color="white" stop-opacity="0"/>
</linearGradient>
<linearGradient id="paint12_linear_204_84" x1="441.246" y1="730.732" x2="417.874" y2="1238.46" gradientUnits="userSpaceOnUse">
<stop stop-color="#94C6FF"/>
<stop offset="1" stop-color="white" stop-opacity="0"/>
</linearGradient>
<linearGradient id="paint13_linear_204_84" x1="445.971" y1="736.906" x2="425.315" y2="1243.77" gradientUnits="userSpaceOnUse">
<stop stop-color="#94C6FF"/>
<stop offset="1" stop-color="white" stop-opacity="0"/>
</linearGradient>
<linearGradient id="paint14_linear_204_84" x1="450.436" y1="743.157" x2="432.491" y2="1248.93" gradientUnits="userSpaceOnUse">
<stop stop-color="#94C6FF"/>
<stop offset="1" stop-color="white" stop-opacity="0"/>
</linearGradient>
<linearGradient id="paint15_linear_204_84" x1="455.472" y1="749.157" x2="440.352" y2="1253.97" gradientUnits="userSpaceOnUse">
<stop stop-color="#94C6FF"/>
<stop offset="1" stop-color="white" stop-opacity="0"/>
</linearGradient>
<linearGradient id="paint16_linear_204_84" x1="459.906" y1="755.647" x2="447.488" y2="1259.19" gradientUnits="userSpaceOnUse">
<stop stop-color="#94C6FF"/>
<stop offset="1" stop-color="white" stop-opacity="0"/>
</linearGradient>
<linearGradient id="paint17_linear_204_84" x1="464.567" y1="761.881" x2="454.979" y2="1264.21" gradientUnits="userSpaceOnUse">
<stop stop-color="#94C6FF"/>
<stop offset="1" stop-color="white" stop-opacity="0"/>
</linearGradient>
<linearGradient id="paint18_linear_204_84" x1="469.125" y1="768.104" x2="462.389" y2="1269.02" gradientUnits="userSpaceOnUse">
<stop stop-color="#94C6FF"/>
<stop offset="1" stop-color="white" stop-opacity="0"/>
</linearGradient>
<linearGradient id="paint19_linear_204_84" x1="473.819" y1="774.295" x2="469.917" y2="1273.94" gradientUnits="userSpaceOnUse">
<stop stop-color="#94C6FF"/>
<stop offset="1" stop-color="white" stop-opacity="0"/>
</linearGradient>
<linearGradient id="paint20_linear_204_84" x1="478.723" y1="780.59" x2="477.687" y2="1278.72" gradientUnits="userSpaceOnUse">
<stop stop-color="#94C6FF"/>
<stop offset="1" stop-color="white" stop-opacity="0"/>
</linearGradient>
<linearGradient id="paint21_linear_204_84" x1="483.204" y1="786.789" x2="485.07" y2="1283.39" gradientUnits="userSpaceOnUse">
<stop stop-color="#94C6FF"/>
<stop offset="1" stop-color="white" stop-opacity="0"/>
</linearGradient>
<linearGradient id="paint22_linear_204_84" x1="487.854" y1="792.979" x2="492.69" y2="1287.87" gradientUnits="userSpaceOnUse">
<stop stop-color="#94C6FF"/>
<stop offset="1" stop-color="white" stop-opacity="0"/>
</linearGradient>
<linearGradient id="paint23_linear_204_84" x1="492.548" y1="799.203" x2="500.27" y2="1292.38" gradientUnits="userSpaceOnUse">
<stop stop-color="#94C6FF"/>
<stop offset="1" stop-color="white" stop-opacity="0"/>
</linearGradient>
<linearGradient id="paint24_linear_204_84" x1="497.181" y1="805.443" x2="507.854" y2="1296.79" gradientUnits="userSpaceOnUse">
<stop stop-color="#94C6FF"/>
<stop offset="1" stop-color="white" stop-opacity="0"/>
</linearGradient>
<linearGradient id="paint25_linear_204_84" x1="501.764" y1="811.738" x2="515.405" y2="1301.13" gradientUnits="userSpaceOnUse">
<stop stop-color="#94C6FF"/>
<stop offset="1" stop-color="white" stop-opacity="0"/>
</linearGradient>
<linearGradient id="paint26_linear_204_84" x1="506.45" y1="817.869" x2="523.064" y2="1305.26" gradientUnits="userSpaceOnUse">
<stop stop-color="#94C6FF"/>
<stop offset="1" stop-color="white" stop-opacity="0"/>
</linearGradient>
<linearGradient id="paint27_linear_204_84" x1="511.048" y1="824.081" x2="530.753" y2="1309.16" gradientUnits="userSpaceOnUse">
<stop stop-color="#94C6FF"/>
<stop offset="1" stop-color="white" stop-opacity="0"/>
</linearGradient>
<linearGradient id="paint28_linear_204_84" x1="515.749" y1="830.296" x2="538.372" y2="1313.25" gradientUnits="userSpaceOnUse">
<stop stop-color="#94C6FF"/>
<stop offset="1" stop-color="white" stop-opacity="0"/>
</linearGradient>
<linearGradient id="paint29_linear_204_84" x1="520.317" y1="836.493" x2="545.997" y2="1317.07" gradientUnits="userSpaceOnUse">
<stop stop-color="#94C6FF"/>
<stop offset="1" stop-color="white" stop-opacity="0"/>
</linearGradient>
<linearGradient id="paint30_linear_204_84" x1="525.027" y1="842.661" x2="553.781" y2="1320.78" gradientUnits="userSpaceOnUse">
<stop stop-color="#94C6FF"/>
<stop offset="1" stop-color="white" stop-opacity="0"/>
</linearGradient>
<linearGradient id="paint31_linear_204_84" x1="529.558" y1="848.889" x2="561.333" y2="1324.42" gradientUnits="userSpaceOnUse">
<stop stop-color="#94C6FF"/>
<stop offset="1" stop-color="white" stop-opacity="0"/>
</linearGradient>
<linearGradient id="paint32_linear_204_84" x1="534.185" y1="855.078" x2="568.966" y2="1327.94" gradientUnits="userSpaceOnUse">
<stop stop-color="#94C6FF"/>
<stop offset="1" stop-color="white" stop-opacity="0"/>
</linearGradient>
<linearGradient id="paint33_linear_204_84" x1="538.779" y1="861.238" x2="576.608" y2="1331.3" gradientUnits="userSpaceOnUse">
<stop stop-color="#94C6FF"/>
<stop offset="1" stop-color="white" stop-opacity="0"/>
</linearGradient>
<linearGradient id="paint34_linear_204_84" x1="543.399" y1="867.53" x2="584.151" y2="1334.78" gradientUnits="userSpaceOnUse">
<stop stop-color="#94C6FF"/>
<stop offset="1" stop-color="white" stop-opacity="0"/>
</linearGradient>
<linearGradient id="paint35_linear_204_84" x1="547.934" y1="873.618" x2="591.804" y2="1337.76" gradientUnits="userSpaceOnUse">
<stop stop-color="#94C6FF"/>
<stop offset="1" stop-color="white" stop-opacity="0"/>
</linearGradient>
<linearGradient id="paint36_linear_204_84" x1="552.242" y1="879.683" x2="598.843" y2="1341.14" gradientUnits="userSpaceOnUse">
<stop stop-color="#94C6FF"/>
<stop offset="1" stop-color="white" stop-opacity="0"/>
</linearGradient>
<linearGradient id="paint37_linear_204_84" x1="551.059" y1="882.994" x2="596.068" y2="1348.15" gradientUnits="userSpaceOnUse">
<stop stop-color="#94C6FF"/>
<stop offset="1" stop-color="white" stop-opacity="0"/>
</linearGradient>
<linearGradient id="paint38_linear_204_84" x1="550.093" y1="886.328" x2="593.549" y2="1355.17" gradientUnits="userSpaceOnUse">
<stop stop-color="#94C6FF"/>
<stop offset="1" stop-color="white" stop-opacity="0"/>
</linearGradient>
<linearGradient id="paint39_linear_204_84" x1="549.002" y1="889.591" x2="590.976" y2="1362.09" gradientUnits="userSpaceOnUse">
<stop stop-color="#94C6FF"/>
<stop offset="1" stop-color="white" stop-opacity="0"/>
</linearGradient>
<linearGradient id="paint40_linear_204_84" x1="547.57" y1="892.734" x2="587.875" y2="1368.96" gradientUnits="userSpaceOnUse">
<stop stop-color="#94C6FF"/>
<stop offset="1" stop-color="white" stop-opacity="0"/>
</linearGradient>
<linearGradient id="paint41_linear_204_84" x1="546.174" y1="895.918" x2="584.918" y2="1375.72" gradientUnits="userSpaceOnUse">
<stop stop-color="#94C6FF"/>
<stop offset="1" stop-color="white" stop-opacity="0"/>
</linearGradient>
<linearGradient id="paint42_linear_204_84" x1="545.198" y1="899.196" x2="582.358" y2="1382.64" gradientUnits="userSpaceOnUse">
<stop stop-color="#94C6FF"/>
<stop offset="1" stop-color="white" stop-opacity="0"/>
</linearGradient>
<linearGradient id="paint43_linear_204_84" x1="543.973" y1="902.493" x2="579.524" y2="1389.4" gradientUnits="userSpaceOnUse">
<stop stop-color="#94C6FF"/>
<stop offset="1" stop-color="white" stop-opacity="0"/>
</linearGradient>
<linearGradient id="paint44_linear_204_84" x1="542.551" y1="905.681" x2="576.343" y2="1396.31" gradientUnits="userSpaceOnUse">
<stop stop-color="#94C6FF"/>
<stop offset="1" stop-color="white" stop-opacity="0"/>
</linearGradient>
<linearGradient id="paint45_linear_204_84" x1="541.532" y1="908.922" x2="573.87" y2="1402.93" gradientUnits="userSpaceOnUse">
<stop stop-color="#94C6FF"/>
<stop offset="1" stop-color="white" stop-opacity="0"/>
</linearGradient>
<linearGradient id="paint46_linear_204_84" x1="540.296" y1="912.231" x2="571.029" y2="1409.65" gradientUnits="userSpaceOnUse">
<stop stop-color="#94C6FF"/>
<stop offset="1" stop-color="white" stop-opacity="0"/>
</linearGradient>
<linearGradient id="paint47_linear_204_84" x1="539.093" y1="915.465" x2="568.293" y2="1416.2" gradientUnits="userSpaceOnUse">
<stop stop-color="#94C6FF"/>
<stop offset="1" stop-color="white" stop-opacity="0"/>
</linearGradient>
<linearGradient id="paint48_linear_204_84" x1="537.826" y1="918.675" x2="565.443" y2="1422.76" gradientUnits="userSpaceOnUse">
<stop stop-color="#94C6FF"/>
<stop offset="1" stop-color="white" stop-opacity="0"/>
</linearGradient>
<linearGradient id="paint49_linear_204_84" x1="537.007" y1="921.939" x2="563.044" y2="1429.31" gradientUnits="userSpaceOnUse">
<stop stop-color="#94C6FF"/>
<stop offset="1" stop-color="white" stop-opacity="0"/>
</linearGradient>
<linearGradient id="paint50_linear_204_84" x1="535.562" y1="925.23" x2="560.106" y2="1435.87" gradientUnits="userSpaceOnUse">
<stop stop-color="#94C6FF"/>
<stop offset="1" stop-color="white" stop-opacity="0"/>
</linearGradient>
<linearGradient id="paint51_linear_204_84" x1="534.68" y1="928.719" x2="557.615" y2="1442.63" gradientUnits="userSpaceOnUse">
<stop stop-color="#94C6FF"/>
<stop offset="1" stop-color="white" stop-opacity="0"/>
</linearGradient>
<clipPath id="clip0_204_84">
<rect width="1800" height="802" fill="white"/>
</clipPath>
</defs>
</svg>
