<svg width="1256" height="450" viewBox="0 0 1256 450" fill="none" xmlns="http://www.w3.org/2000/svg">
<g clip-path="url(#clip0_204_7)">
<path d="M1344.42 1109.5C1285.98 1141.9 1223.96 1167.4 1159.62 1185.48C1114.55 1198.14 805.839 1284.7 717.385 1166.26C646.107 1070.78 785.104 929.753 704.733 820.675C638.789 731.423 512.732 774.974 477.835 695.391C435.766 599.464 596.701 482.366 544.987 383.122C536.022 366.706 523.352 352.609 507.984 341.95C492.616 331.293 474.973 324.366 456.459 321.724C380.919 313.283 354.835 405.787 247.284 442.229C157.751 472.581 72.8876 442.897 41.7716 431.844C-118.192 375.2 -178.4 220.424 -187.657 195.468" stroke="url(#paint0_linear_204_7)" stroke-width="0.5" stroke-miterlimit="10"/>
<path d="M1353.17 1100.88C1294.85 1133.03 1232.94 1158.14 1168.72 1175.72C1124.79 1187.51 872.421 1256.51 759.705 1183.53C747.634 1175.81 737.056 1165.98 728.479 1154.5C696.962 1111.81 707.175 1060.28 719.985 1006.54C735.943 940.319 756.933 871.616 712.137 812.67C649.121 729.543 532.227 764.727 491.101 699.767C489.012 696.428 487.169 692.944 485.586 689.338C443.411 593.818 603.349 476.175 551.597 377.947C542.355 361.663 529.403 347.789 513.794 337.451C498.184 327.114 480.357 320.604 461.76 318.454C433.264 315.653 411.659 326.63 389.842 343.064C353.126 370.63 317.517 412.85 250.582 433.865C227.723 440.846 204.046 444.799 180.158 445.619C119.008 448.282 67.4233 432.038 44.0766 424.936C-18.922 405.237 -74.7121 367.389 -116.308 316.129C-146.697 279.668 -170.726 238.347 -187.389 193.902" stroke="url(#paint1_linear_204_7)" stroke-width="0.5" stroke-miterlimit="10"/>
<path d="M1361.88 1092.2C1303.7 1124.07 1241.89 1148.83 1177.81 1165.97C1130.63 1178.14 881.333 1244.88 770.455 1171.83C758.486 1164.09 748.024 1154.23 739.574 1142.75C708.43 1100.08 718.496 1048.75 730.451 995.367C745.02 929.532 764.673 862.334 719.726 804.681C656.383 723.416 540.003 758.298 498.983 693.704C496.876 690.423 495.035 686.98 493.476 683.407C451.228 588.373 610.492 469.869 558.513 372.965C541.142 340.56 503.902 318.372 467.24 315.517C438.661 313.069 416.76 323.987 394.42 339.816C356.51 366.69 320.795 406.542 254.083 425.78C230.973 432.165 207.169 435.702 183.201 436.312C122.021 438.896 70.3428 424.42 46.5825 418.308C-16.5753 401.677 -72.9823 365.777 -114.798 315.6C-145.957 279.045 -170.424 237.281 -187.078 192.227" stroke="url(#paint2_linear_204_7)" stroke-width="0.5" stroke-miterlimit="10"/>
<path d="M1370.58 1083.58C1312.48 1115.1 1250.79 1139.48 1186.85 1156.2C1136.47 1168.78 890.419 1233 781.238 1160.21C769.388 1152.37 759.035 1142.48 750.668 1131C719.924 1088.3 729.898 1037.19 740.996 984.16C754.563 918.873 772.494 853.022 727.019 796.631C663.405 717.253 547.538 751.835 506.623 687.607C504.516 684.326 502.675 680.883 501.116 677.309C458.785 582.627 617.186 463.569 564.901 367.699C547.299 335.39 509.652 314.644 472.114 311.875C443.397 309.758 421.253 320.639 398.447 335.886C359.341 362.067 323.408 399.507 256.977 416.991C233.64 422.718 209.74 425.829 185.716 426.269C124.449 428.753 72.702 415.989 48.5053 410.919C-14.7311 397.426 -71.7774 363.507 -113.839 314.387C-145.651 278.007 -170.479 236.069 -187.076 190.681" stroke="url(#paint3_linear_204_7)" stroke-width="0.5" stroke-miterlimit="10"/>
<path d="M1379.32 1074.97C1335.55 1097.21 1273.93 1127.73 1195.96 1146.46C1142.33 1159.36 899.471 1221.04 791.987 1148.5C780.255 1140.62 770.021 1130.72 761.761 1119.25C731.391 1076.58 741.275 1025.69 751.384 973.017C763.839 908.233 780.126 843.695 734.343 788.658C670.019 710.983 555.181 745.414 514.567 681.7C512.457 678.436 510.609 675.013 509.039 671.459C466.624 577.128 624.151 457.382 571.706 362.67C553.87 330.457 515.838 311.101 478.048 308.935C449.194 307.146 426.751 317.967 403.644 332.702C363.267 358.223 327.138 393.195 261.156 408.673C237.575 413.773 213.54 416.489 189.417 416.783C128.13 419.002 76.3092 408.271 51.6354 404.034C-20.8268 392.234 -72.9962 355.752 -111.652 313.625C-144.161 277.281 -169.399 235.041 -186.004 189.193" stroke="url(#paint4_linear_204_7)" stroke-width="0.5" stroke-miterlimit="10"/>
<path d="M1388.01 1066.34C1343.88 1088.36 1282.39 1118.55 1205.05 1136.71C1147.96 1149.9 908.499 1209.13 802.737 1136.8C791.099 1128.9 780.978 1118.97 772.853 1107.49C742.827 1064.77 752.705 1014.2 761.872 961.781C773.158 897.478 787.809 834.387 741.765 780.595C677.102 704.97 562.869 738.88 522.03 675.394C519.907 672.155 518.051 668.749 516.479 665.207C474.014 571.309 630.699 450.952 578.062 357.322C559.936 325.182 521.574 307.234 482.85 305.453C453.913 304.018 431.197 314.722 407.435 328.862C365.885 353.638 329.57 386.273 263.754 400.274C239.965 404.695 215.829 406.987 191.635 407.128C130.229 409.167 78.4933 400.084 53.2402 397.089C-9.89935 389.716 -68.2422 359.751 -111.022 312.722C-144.254 276.459 -169.896 233.914 -186.436 187.59" stroke="url(#paint5_linear_204_7)" stroke-width="0.5" stroke-miterlimit="10"/>
<path d="M1396.74 1057.67C1352.18 1079.45 1291.23 1109.61 1214.15 1126.96C1153.98 1140.55 917.527 1197.23 813.542 1125.12C801.999 1117.18 791.976 1107.23 783.947 1095.74C754.296 1053.05 764.083 1002.7 772.361 950.552C782.457 886.785 795.665 824.832 749.247 772.561C684.123 698.809 570.591 732.431 529.781 669.342C527.691 666.098 525.83 662.712 524.205 659.211C481.69 565.742 637.478 444.754 584.702 352.228C566.389 320.073 527.619 303.568 488.203 302.207C459.13 301.102 436.114 311.747 411.941 325.328C369.065 349.42 332.608 379.609 267.105 391.934C243.102 395.676 218.844 397.54 194.552 397.511C133.114 399.473 81.4413 392.094 55.728 390.197C-7.23908 385.911 -66.2574 357.958 -109.473 311.951C-143.605 275.793 -169.817 232.909 -186.435 186.043" stroke="url(#paint6_linear_204_7)" stroke-width="0.5" stroke-miterlimit="10"/>
<path d="M1405.48 1049.06C1360.48 1070.53 1299.53 1100.36 1223.21 1117.14C1159.8 1131.11 926.639 1185.29 824.275 1113.48C812.848 1105.47 802.95 1095.49 795.047 1083.99C765.793 1041.27 775.709 991.231 782.832 939.38C791.838 876.06 803.32 815.772 756.653 764.558C691.126 692.702 578.263 725.957 537.479 663.268C535.408 660.03 533.564 656.654 531.96 653.16C489.392 560.121 644.284 438.501 591.316 347.054C572.769 314.996 533.888 299.992 493.506 298.939C464.295 298.161 440.96 308.805 416.375 321.824C372.249 345.202 335.575 372.979 270.452 383.463C246.3 386.509 221.98 388.012 197.637 387.964C136.136 389.768 84.5833 384.117 58.136 383.204C-4.58614 381.922 -64.2872 356.005 -108.063 311.055C-155.377 264.023 -177.605 206.628 -185.655 184.499" stroke="url(#paint7_linear_204_7)" stroke-width="0.5" stroke-miterlimit="10"/>
<path d="M1414.17 1040.43C1368.84 1061.63 1308 1091.19 1232.31 1107.38C1165.64 1121.74 935.668 1173.38 834.858 1101.7C823.536 1093.64 813.737 1083.63 805.919 1072.14C776.986 1029.43 786.536 979.49 793.101 928.051C800.916 865.267 810.817 806.447 763.833 756.455C697.927 686.44 585.794 719.486 545.029 657.062C542.945 653.862 541.085 650.521 539.464 647.062C496.815 554.376 650.81 432.124 597.758 341.804C578.868 309.796 539.436 296.111 498.506 295.601C469.236 295.122 445.579 305.759 420.604 318.167C375.176 340.806 338.337 366.193 273.527 375.001C249.125 377.406 224.608 378.477 200.089 378.21C138.525 379.86 86.9985 376.154 60.0299 376.183C29.1475 377.014 -1.58368 371.584 -30.3135 360.223C-59.0419 348.863 -85.1778 331.806 -107.144 310.079C-154.931 264.333 -177.346 206.151 -185.798 182.821" stroke="url(#paint8_linear_204_7)" stroke-width="0.5" stroke-miterlimit="10"/>
<path d="M1422.88 1031.94C1377.05 1052.93 1316.44 1082.13 1241.24 1098.02C1171.29 1112.69 944.613 1161.83 845.668 1090.47C834.438 1082.4 824.751 1072.37 817.07 1060.87C788.536 1018.12 798.136 968.531 803.624 917.352C810.273 855.049 818.64 797.589 771.247 749.04C704.959 680.865 593.443 713.521 552.859 651.432C550.754 648.243 548.895 644.902 547.294 641.432C504.516 549.209 657.636 426.269 604.424 337.106C585.488 305.209 545.782 292.956 503.885 292.753C474.531 292.627 450.546 303.126 425.059 315.063C378.38 336.986 341.402 359.928 276.849 367.037C252.657 369.84 228.308 368.384 203.088 369.014C141.437 370.564 90.1187 368.364 62.4345 369.644C-9.20223 373.023 -63.6483 349.264 -105.955 309.547C-154.009 264.591 -176.848 206.039 -185.781 181.541" stroke="url(#paint9_linear_204_7)" stroke-width="0.5" stroke-miterlimit="10"/>
<path d="M1431.64 1023.15C1385.41 1043.84 1324.99 1072.74 1250.46 1087.87C1177.27 1102.86 953.882 1149.51 856.681 1078.3C845.545 1070.18 835.957 1060.13 828.372 1048.62C800.214 1005.91 809.775 956.556 814.321 905.629C819.834 843.882 826.557 787.737 778.926 740.377C712.21 674.152 601.339 706.497 560.793 644.94C558.722 641.749 556.881 638.415 555.283 634.963C512.454 543.17 664.489 419.583 611.328 331.539C592.016 299.614 551.792 288.757 509.446 289.011C479.955 289.214 455.672 299.653 429.774 311.031C381.712 332.249 344.547 352.855 280.36 358.313C256.17 360.341 231.682 358.441 206.166 359.012C144.45 360.406 93.3288 359.9 64.9766 362.32C-6.33864 368.478 -61.2439 347.365 -104.159 308.49C-152.569 264.546 -175.689 205.426 -185.023 179.728" stroke="url(#paint10_linear_204_7)" stroke-width="0.5" stroke-miterlimit="10"/>
<path d="M1440.39 1014.55C1393.77 1034.95 1333.45 1063.44 1259.55 1078.12C1183.09 1093.35 962.879 1137.53 867.362 1066.77C856.344 1058.59 846.88 1048.5 839.42 1036.98C811.503 994.302 821.107 945.163 824.742 894.564C829.164 833.266 834.417 778.635 786.282 732.485C719.186 668.101 609.015 700.156 568.463 638.919C566.347 635.786 564.488 632.487 562.907 629.054C519.997 537.613 671.3 413.461 617.812 326.507C598.235 294.599 557.703 285.099 514.596 285.939C484.968 286.471 460.356 296.773 434.079 307.669C384.735 328.095 347.122 346.063 283.601 349.928C259.342 351.347 234.82 348.916 208.981 349.482C147.201 350.719 96.189 351.807 67.1988 355.445C-3.89146 364.47 -59.2559 346.005 -102.908 307.658C-151.646 264.806 -175.044 205.115 -184.835 178.195" stroke="url(#paint11_linear_204_7)" stroke-width="0.5" stroke-miterlimit="10"/>
<path d="M1449.08 1005.92C1402.01 1026 1341.92 1054.13 1268.64 1068.37C1188.85 1083.89 972.009 1125.54 878.169 1055.08C867.252 1046.85 857.888 1036.74 850.515 1025.22C823.162 982.588 832.473 933.842 835.21 883.385C838.442 822.621 841.996 769.281 793.717 724.554C726.185 661.988 616.637 693.788 576.192 632.917C574.074 629.785 572.215 626.485 570.634 623.05C527.595 532.072 677.947 407.267 624.399 321.383C604.589 289.572 563.671 281.458 519.873 282.72C490.13 283.526 465.198 293.824 438.507 304.161C387.783 323.88 350.304 339.518 286.875 341.616C262.572 342.371 238.012 339.407 211.821 339.891C150.01 341.052 99.184 343.701 69.4479 348.509C-1.10476 359.953 -57.2124 344.66 -101.549 306.868C-150.642 265.026 -174.398 204.801 -184.591 176.682" stroke="url(#paint12_linear_204_7)" stroke-width="0.5" stroke-miterlimit="10"/>
<path d="M1457.8 997.235C1410.41 1017.19 1350.38 1044.83 1277.74 1058.62C1194.68 1074.4 981.063 1113.58 888.92 1043.38C878.096 1035.13 868.847 1025 861.61 1013.47C834.303 970.727 843.896 922.229 845.699 872.156C847.818 811.896 849.761 759.946 801.033 716.452C733.074 655.834 624.272 687.237 583.799 626.742C581.748 623.602 579.903 620.332 578.275 616.954C535.209 526.35 684.583 400.945 630.975 316.132C610.879 284.394 569.653 277.635 525.064 279.404C495.283 280.453 469.943 290.646 442.795 300.533C390.789 319.46 353.092 332.686 290.109 333.099C265.735 333.244 241.14 329.751 214.597 330.152C152.699 331.21 102.114 335.444 71.6869 341.448C1.38372 355.382 -55.2329 343.165 -100.47 305.836C-149.923 265.005 -174.121 204.143 -184.575 174.947" stroke="url(#paint13_linear_204_7)" stroke-width="0.5" stroke-miterlimit="10"/>
<path d="M1466.55 988.636C1418.7 1008.26 1358.86 1035.47 1286.61 1048.98C1200.26 1065.05 990.014 1101.71 899.523 1031.88C888.817 1023.54 879.676 1013.37 872.525 1001.84C845.703 959.167 855.195 910.756 855.987 861.1C856.994 801.341 857.346 750.727 808.366 708.61C740.105 649.803 631.87 680.926 591.501 620.796C589.408 617.698 587.553 614.444 585.955 611.063C542.782 520.869 691.239 394.885 637.492 311.176C617.184 279.479 575.573 274.107 530.291 276.297C500.375 277.676 474.682 287.785 447.178 297.137C393.812 315.303 355.974 326.083 293.334 324.899C268.894 324.435 244.23 320.331 217.641 320.844C155.701 321.692 105.226 327.519 74.1376 334.795C4.26544 351.101 -52.9402 341.992 -98.8282 305.294C-148.468 265.224 -172.753 204.261 -183.994 173.706" stroke="url(#paint14_linear_204_7)" stroke-width="0.5" stroke-miterlimit="10"/>
<path d="M1475.03 979.916C1426.78 999.253 1367.04 1026.04 1295.61 1038.99C1205.94 1055.29 999.044 1089.35 910.161 1020C899.55 1011.64 890.523 1001.45 883.505 989.911C857.081 947.211 866.561 898.987 866.362 849.692C866.234 790.491 864.974 741.269 815.678 700.374C747.012 643.462 639.533 674.32 599.082 614.544C597.016 611.443 595.155 608.209 593.511 604.865C550.344 515.123 697.849 388.485 644.043 305.847C623.446 274.223 581.527 270.205 535.312 272.78C505.312 274.511 479.267 284.538 451.382 293.41C396.681 310.76 358.601 319.182 296.429 316.256C271.92 315.184 247.221 310.55 220.059 310.887C171.558 310.722 123.206 316.305 76.0186 327.517C6.49755 346.227 -51.3184 340.283 -97.8886 304.138C-148.001 265.354 -172.748 203.488 -184.5 171.687" stroke="url(#paint15_linear_204_7)" stroke-width="0.5" stroke-miterlimit="10"/>
<path d="M1483.97 971.336C1435.35 990.448 1375.74 1016.78 1304.98 1029.36C1212.05 1045.91 1008.34 1077.56 921.202 1008.36C910.811 999.879 901.984 989.646 895.124 978.121C869.077 935.451 878.449 887.634 877.355 838.481C876.012 779.871 873.264 731.897 823.606 692.335C754.559 637.262 647.671 667.788 607.114 608.418C605.061 605.341 603.212 602.134 601.575 598.818C558.302 509.483 704.833 382.244 650.966 300.679C630.081 269.127 587.854 266.466 541.011 269.617C510.92 271.568 484.467 281.489 456.203 289.88C400.142 306.469 361.969 312.334 300.315 308.013C275.782 306.223 251.022 301.112 223.564 301.389C174.701 301.196 126.04 307.685 78.9329 320.674C9.7316 341.71 -48.586 338.976 -95.9706 303.394C-146.309 265.613 -171.491 203.243 -183.301 170.191" stroke="url(#paint16_linear_204_7)" stroke-width="0.5" stroke-miterlimit="10"/>
<path d="M1492.71 962.723C1443.63 981.582 1384.18 1007.4 1314.19 1019.66C1217.99 1036.45 1017.7 1065.66 932.177 996.746C921.773 988.28 912.945 978.044 906.099 966.51C880.371 923.844 889.708 876.27 887.725 827.39C885.293 769.228 880.887 722.755 830.888 684.471C761.46 631.239 655.219 661.453 615.01 602.487C612.881 599.44 611.01 596.222 609.416 592.863C566.082 503.826 711.648 376.119 657.643 295.657C636.547 264.147 594.028 262.652 546.401 266.444C516.195 268.67 489.423 278.587 460.669 286.451C403.272 302.222 364.902 305.622 303.506 299.602C278.74 297.134 253.996 291.835 226.276 291.81C177.041 291.574 128.068 298.983 81.1073 313.773C12.2149 337.003 -46.5706 337.557 -94.7951 302.592C-145.412 265.79 -170.927 202.831 -183.278 168.907" stroke="url(#paint17_linear_204_7)" stroke-width="0.5" stroke-miterlimit="10"/>
<path d="M1501.41 954.108C1451.93 972.666 1392.77 998.092 1323.34 1009.94C1223.85 1026.91 1026.7 1053.81 942.96 985.124C932.689 976.667 923.976 966.482 917.211 955.027C891.927 912.224 901.158 865.058 898.209 816.484C894.664 758.826 888.667 713.689 838.33 676.681C768.476 625.399 663.026 655.105 622.721 596.68C620.638 593.637 618.78 590.447 617.16 587.134C573.753 498.582 718.334 370.143 664.324 290.774C642.94 259.337 600.044 259.362 551.694 263.497C521.373 265.997 494.248 275.832 465.169 283.237C406.404 298.117 367.817 299.101 306.929 291.553C282.394 288.535 257.396 282.294 229.319 282.505C179.695 282.279 130.404 290.615 83.6133 307.148C14.9533 332.603 -44.2452 336.467 -93.2294 302.087C-144.181 266.243 -170.078 202.802 -182.784 167.569" stroke="url(#paint18_linear_204_7)" stroke-width="0.5" stroke-miterlimit="10"/>
<path d="M1510.15 945.499C1460.29 963.769 1401.12 988.609 1332.18 1000.21C1229.33 1017.33 1035.66 1041.62 953.499 973.463C943.323 964.905 934.735 954.617 928.131 943.072C903.177 900.407 912.418 853.374 908.359 804.983C903.758 747.851 896.071 704.137 845.45 668.429C775.213 618.988 670.262 648.581 630.132 590.356C628.034 587.322 626.175 584.13 624.569 580.811C581.035 492.721 724.641 363.681 670.485 285.282C648.812 253.919 605.608 255.3 556.544 259.909C526.108 262.686 498.631 272.436 469.174 279.361C408.992 293.456 370.288 291.942 309.745 282.794C285.044 278.934 260.107 272.395 231.677 272.526C181.754 272.344 132.242 281.543 85.7138 299.639C17.4427 327.256 -42.3266 334.492 -92.0714 300.7C-143.248 265.858 -169.578 201.914 -182.687 165.482" stroke="url(#paint19_linear_204_7)" stroke-width="0.5" stroke-miterlimit="10"/>
<path d="M1518.91 936.572C1468.74 954.333 1409.58 978.978 1341.36 990.107C1235.19 1007.45 1044.84 1029.2 964.334 961.405C954.262 952.816 945.79 942.51 939.309 930.966C914.629 888.413 923.934 841.537 919.24 793.588C913.525 736.959 904.25 694.582 853.266 660.206C782.814 612.674 678.398 641.911 638.317 584.029C636.191 581.044 634.315 577.889 632.709 574.594C589.092 486.856 731.723 357.216 677.649 280.013C655.709 248.667 612.2 251.403 562.367 256.466C531.816 259.516 503.985 269.185 474.071 275.66C412.701 288.743 373.511 284.833 313.453 274.213C288.607 269.775 263.735 262.617 235.009 262.688C184.496 262.511 134.484 272.698 88.0635 292.619C20.0928 322.295 -40.1599 333.008 -90.717 299.777C-142.174 265.914 -168.884 201.489 -182.341 163.88" stroke="url(#paint20_linear_204_7)" stroke-width="0.5" stroke-miterlimit="10"/>
<path d="M1527.62 928.216C1477.01 945.788 1417.99 969.787 1350.36 980.58C1240.95 998.12 1053.93 1017.45 975.1 949.973C965.12 941.339 956.745 931.01 950.362 919.458C926.127 876.77 935.349 830.245 929.501 782.59C922.673 726.464 911.951 685.545 860.463 652.378C789.301 606.55 685.861 635.611 645.807 578.128C643.713 575.142 641.856 571.994 640.254 568.715C596.586 481.409 738.165 351.2 684.053 275.015C661.825 243.741 618.007 247.833 567.437 253.426C536.771 256.752 508.612 266.282 478.317 272.277C415.464 284.741 376.391 278.234 316.678 266.016C291.763 260.97 266.854 253.281 237.753 253.324C186.787 253.169 136.421 264.306 90.2706 285.932C22.5 317.758 -38.1094 331.802 -89.3748 299.18C-140.639 266.56 -168.178 201.337 -182.225 162.514" stroke="url(#paint21_linear_204_7)" stroke-width="0.5" stroke-miterlimit="10"/>
<path d="M1536.31 919.586C1485.27 936.98 1426.38 960.323 1359.45 970.829C1246.78 988.298 1063.03 1005.38 986.048 938.416C976.231 929.681 967.987 919.325 961.676 907.797C937.785 865.058 947.167 818.924 940.211 771.45C932.247 715.882 919.771 676.23 868.04 644.575C796.638 600.71 693.765 629.492 653.707 572.33C651.646 569.336 649.784 566.21 648.132 562.973C604.358 476.073 744.916 345.375 690.813 270.095C668.352 238.918 624.172 244.342 572.832 250.389C542.107 254.011 513.572 263.514 482.92 268.972C418.698 280.543 379.429 271.569 319.906 257.816C294.914 252.027 269.945 243.863 240.532 244.033C189.082 243.924 138.337 256.008 92.4581 279.298C25.0019 312.995 -35.944 330.319 -88.0099 298.072C-140.076 265.826 -167.358 200.452 -181.921 160.704" stroke="url(#paint22_linear_204_7)" stroke-width="0.5" stroke-miterlimit="10"/>
<path d="M1545.03 910.9C1493.55 928.114 1434.84 950.886 1368.55 961.075C1252.48 978.869 1072.21 993.276 996.582 926.62C986.86 917.864 978.729 907.486 972.554 895.95C949.038 853.239 957.998 807.186 950.461 760.181C941.22 705.046 927.365 666.691 875.293 636.312C803.566 594.31 701.229 622.737 661.332 565.963C659.24 562.986 657.351 559.869 655.678 556.637C611.854 470.168 751.529 338.649 697.306 264.739C674.501 233.613 630.115 240.304 577.983 246.858C547.142 250.755 518.201 260.152 487.147 265.185C421.612 275.885 382.148 264.442 323.296 249.229C298.259 242.778 273.209 234.192 243.535 234.061C191.599 234.034 140.492 247.083 94.9235 272.002C27.4893 307.967 -33.7975 328.889 -86.771 297.424C-139.743 265.961 -166.75 200.701 -181.743 159.354" stroke="url(#paint23_linear_204_7)" stroke-width="0.5" stroke-miterlimit="10"/>
<path d="M1553.78 902.302C1501.86 919.328 1443.3 941.455 1377.59 951.306C1258.24 969.214 1081.36 981.229 1007.38 914.939C997.74 906.157 989.704 895.752 983.646 884.199C960.504 841.515 969.702 795.819 960.949 748.949C950.791 694.464 935.081 657.463 882.693 628.306C810.584 588.146 708.894 616.261 669.023 559.887C666.946 556.932 665.068 553.842 663.401 550.639C619.549 464.545 758.126 332.566 703.911 259.562C680.873 228.534 636.125 236.557 583.255 243.642C552.325 247.758 522.984 257.183 491.572 261.681C424.614 271.464 385.032 257.52 326.535 240.844C301.451 233.727 276.42 224.633 246.425 224.496C193.963 224.505 142.457 238.52 97.2219 265.094C29.8141 303.004 -31.9095 327.29 -85.414 296.637C-137.943 266.584 -166.227 200.211 -181.48 157.788" stroke="url(#paint24_linear_204_7)" stroke-width="0.5" stroke-miterlimit="10"/>
<path d="M1562.58 893.724C1510.38 910.631 1451.85 932.063 1386.8 941.608C1264.12 959.611 1090.59 969.153 1018.24 903.286C1008.73 894.448 1000.81 884.03 994.849 872.493C972.05 829.76 981.245 784.385 971.524 737.822C960.075 683.959 942.767 648.161 889.93 620.237C817.44 581.917 716.395 609.719 676.551 553.743C674.455 550.801 672.577 547.711 670.931 544.496C626.972 458.811 764.551 326.286 710.3 254.299C686.974 223.342 641.94 232.665 588.333 240.281C557.288 244.673 527.731 253.686 495.803 258.032C427.587 266.965 387.699 250.509 329.633 232.334C304.504 224.554 279.413 214.985 249.067 214.766C196.136 214.944 144.317 229.961 99.4908 258.11C32.3297 298.058 -29.4694 325.927 -83.9225 295.844C-136.653 266.738 -165.372 199.862 -181.106 156.272" stroke="url(#paint25_linear_204_7)" stroke-width="0.5" stroke-miterlimit="10"/>
<path d="M1571.22 885.075C1518.37 901.714 1460.14 922.559 1395.79 931.816C1269.68 950.124 1099.64 957.06 1028.92 891.617C1019.51 882.708 1011.7 872.249 1005.84 860.696C983.413 817.99 992.57 772.858 981.905 726.545C969.579 673.089 950.645 638.871 897.555 612.323C824.706 575.788 724.285 603.336 684.545 547.726C682.422 544.817 680.535 541.744 678.901 538.533C634.817 453.31 771.419 320.187 717.164 249.293C693.572 218.354 648.23 229.033 593.83 237.157C562.693 241.768 532.693 250.918 500.453 254.617C430.783 262.557 390.888 243.648 333.151 224.062C307.968 215.487 282.85 205.516 252.205 205.238C189.432 204.836 140.35 227.112 101.873 251.169C34.7707 293.141 -27.2224 324.412 -82.7006 294.933C-135.47 266.844 -164.865 199.426 -181.001 154.636" stroke="url(#paint26_linear_204_7)" stroke-width="0.5" stroke-miterlimit="10"/>
<path d="M1579.93 876.394C1526.81 892.597 1468.58 913.117 1404.88 922.068C1275.56 940.194 1108.81 944.961 1039.67 879.916C1030.36 870.981 1022.66 860.503 1016.93 848.945C994.901 806.211 1004.05 761.4 992.368 715.371C978.984 662.441 958.405 629.534 904.975 604.266C831.724 569.626 731.924 596.918 692.455 541.743C690.335 538.938 688.422 535.985 686.729 532.903C642.615 448.055 777.924 314.326 723.873 244.485C699.97 213.674 654.367 225.599 599.176 234.231C567.924 239.115 537.518 248.16 504.897 251.38C433.889 258.504 391.291 242.979 336.494 216.043C311.275 203.155 283.409 196.292 255.09 195.996C192.262 195.571 143.207 219.018 104.221 244.604C37.1989 288.546 -25.2848 323.159 -81.3275 294.413C-134.439 267.146 -164.206 199.382 -180.688 153.414" stroke="url(#paint27_linear_204_7)" stroke-width="0.5" stroke-miterlimit="10"/>
<path d="M1588.62 867.765C1535.09 883.735 1476.95 903.579 1413.92 912.298C1281.3 930.464 1118.01 932.805 1050.47 868.236C1041.26 859.256 1033.67 848.754 1028.02 837.193C1006.34 794.41 1015.51 749.862 1002.86 704.14C988.361 651.713 966.169 620.198 912.433 596.284C838.856 563.509 739.702 590.489 700.04 535.621C697.934 532.735 696.058 529.686 694.428 526.505C650.208 442.065 784.684 307.86 730.541 239.013C706.296 208.253 660.44 221.554 604.533 230.662C573.112 235.8 542.431 244.729 509.386 247.576C436.978 253.731 394.197 235.549 339.873 207.327C314.709 193.767 286.647 186.479 258.066 186.08C195.19 185.311 146.078 210.283 106.551 237.321C39.5869 283.287 -22.7609 321.438 -79.9386 293.251C-133.418 266.864 -163.398 198.687 -180.362 151.551" stroke="url(#paint28_linear_204_7)" stroke-width="0.5" stroke-miterlimit="10"/>
<path d="M1597.38 859.164C1543.38 874.804 1485.46 894.162 1423.04 902.489C1287.12 920.704 1127.12 920.864 1061.22 856.53C1052.17 847.459 1044.7 836.929 1039.14 825.381C1017.83 782.625 1026.97 738.322 1013.35 692.906C997.702 641.225 973.547 611.792 919.804 588.199C846.373 555.998 747.447 583.978 707.727 529.408C705.623 526.611 703.727 523.664 702.054 520.59C657.785 436.579 791.154 301.782 736.974 233.952C712.493 203.287 666.321 217.813 609.599 227.482C578.143 232.863 547.108 241.71 513.683 244.076C439.906 249.336 396.835 228.455 343.014 199.024C317.931 184.715 289.645 176.968 260.774 176.499C197.865 175.652 148.725 201.773 108.721 230.418C41.7611 278.383 -20.7495 320.016 -78.4356 292.582C-132.259 267.02 -162.611 198.494 -180.196 150.068" stroke="url(#paint29_linear_204_7)" stroke-width="0.5" stroke-miterlimit="10"/>
<path d="M1606.11 850.426C1551.77 865.863 1493.93 884.677 1432.15 892.751C1292.88 910.922 1136.39 908.548 1072.03 844.856C1063.03 835.772 1055.66 825.212 1050.23 813.634C1029.36 770.93 1038.46 726.868 1023.84 681.681C1007.2 630.36 981.703 601.526 927.231 580.144C852.947 551.072 755.061 577.486 715.477 523.36C713.358 520.574 711.463 517.626 709.805 514.542C665.431 430.94 797.801 295.596 743.584 228.783C718.815 198.191 672.357 214.017 614.901 224.217C583.327 229.872 551.886 238.613 517.84 240.462C442.771 244.796 399.541 221.204 346.114 190.519C321.117 175.516 292.621 167.335 263.473 166.793C200.477 165.846 151.317 193.249 110.859 223.446C43.9263 273.359 -21.2216 323.628 -77.5447 291.539C-128.981 262.265 -162.369 198.083 -180.202 148.392" stroke="url(#paint30_linear_204_7)" stroke-width="0.5" stroke-miterlimit="10"/>
<path d="M1614.85 841.884C1560.03 856.992 1502.32 875.214 1441.18 882.972C1298.59 901.247 1145.39 896.379 1082.76 833.21C1073.9 824.068 1066.64 813.494 1061.3 801.938C1040.77 759.183 1049.89 715.386 1034.28 670.56C1016.77 619.779 989.55 592.292 934.608 572.196C859.943 544.964 762.702 571.067 723.2 517.362C721.102 514.561 719.205 511.614 717.528 508.544C673.002 425.457 804.344 289.492 750.221 223.686C725.087 193.2 678.126 210.233 620.172 221.001C588.416 227.095 556.715 235.534 522.484 237.049C446.018 240.412 405.258 208.885 349.604 182.3C324.176 170.139 298.739 157.844 266.506 157.354C203.478 156.329 154.29 184.881 113.323 216.608C46.5038 268.567 -18.8705 322.16 -76.0787 290.799C-127.939 262.701 -161.516 197.731 -179.797 146.951" stroke="url(#paint31_linear_204_7)" stroke-width="0.5" stroke-miterlimit="10"/>
<path d="M1623.54 833.255C1568.38 848.159 1510.8 865.726 1450.26 873.287C1304.34 891.45 1154.76 884.29 1093.51 821.507C1084.74 812.345 1077.6 801.753 1072.4 790.184C1052.19 747.434 1061.37 703.926 1044.75 659.384C1025.99 608.982 997.205 582.908 942.066 564.213C866.964 538.798 770.401 564.668 730.917 511.229C728.809 508.435 726.913 505.488 725.245 502.411C680.883 419.394 810.957 283.222 756.853 218.454C731.485 188.064 684.482 206.434 625.493 217.673C593.683 223.746 561.372 232.253 526.959 233.432C449.147 235.847 408.402 201.812 352.992 173.716C327.486 160.812 301.998 148.174 269.491 147.569C206.376 146.443 157.059 176.231 115.716 209.478C48.6802 263.347 -16.5127 320.37 -74.65 289.845C-126.787 262.408 -160.757 197.144 -179.463 145.219" stroke="url(#paint32_linear_204_7)" stroke-width="0.5" stroke-miterlimit="10"/>
<path d="M1632.23 824.624C1576.67 839.229 1519.2 856.26 1459.36 863.535C1309.96 881.538 1163.96 872.132 1104.29 809.882C1095.67 800.619 1088.64 789.993 1083.49 778.432C1063.68 735.653 1072.86 692.466 1055.24 648.152C1035.39 598.332 1005.02 573.594 949.468 556.207C874.062 532.602 778.068 558.193 738.612 505.151C736.49 502.366 734.593 499.419 732.94 496.333C688.357 413.999 817.524 277.06 763.406 213.255C737.657 183.158 690.133 202.472 630.736 214.378C598.789 220.78 566.478 229.287 531.355 229.848C452.198 231.314 411.314 194.834 356.211 165.383C330.705 151.706 305.135 138.645 272.275 137.957C209.073 136.731 159.761 167.748 117.964 202.546C50.8209 258.369 -14.3331 318.698 -73.3779 288.957C-125.872 262.53 -160.144 196.753 -179.251 143.628" stroke="url(#paint33_linear_204_7)" stroke-width="0.5" stroke-miterlimit="10"/>
<path d="M1641 815.972C1584.97 830.312 1527.62 846.754 1468.52 853.62C1315.9 871.638 1173.2 859.869 1115.09 798.072C1106.58 788.767 1099.67 778.125 1094.63 766.572C1075.19 723.822 1084.36 680.822 1065.75 636.867C1044.87 587.52 1012.84 564.15 956.94 548.042C881.154 526.275 785.782 551.611 746.509 498.904C744.406 496.107 742.509 493.16 740.836 490.086C696.172 408.103 824.264 270.651 770.241 207.853C744.164 177.619 696.34 198.421 636.184 210.914C604.143 217.535 571.339 225.835 535.9 226.072C455.396 226.588 414.473 187.577 359.701 156.715C334.094 142.351 308.497 128.893 275.353 127.957C212.141 126.598 162.701 158.85 120.505 195.223C53.3106 253.024 -11.6943 316.706 -71.832 287.734C-124.662 262.264 -159.259 196.028 -178.603 141.772" stroke="url(#paint34_linear_204_7)" stroke-width="0.5" stroke-miterlimit="10"/>
<path d="M1649.7 807.341C1593.33 821.412 1536.07 837.307 1477.52 843.957C1321.69 861.923 1182.44 847.786 1125.85 786.498C1117.42 777.168 1110.6 766.498 1105.68 754.925C1086.59 712.125 1095.83 669.413 1076.2 625.743C1054.26 576.92 1020.58 554.863 964.228 540.306C888.061 520.382 793.39 545.429 754.065 493.151C751.973 490.368 750.096 487.427 748.449 484.357C703.733 402.805 830.695 264.818 776.69 203.059C750.611 172.824 702.183 194.921 641.345 207.968C609.136 214.841 576.032 223.082 540.215 222.836C458.365 222.405 417.324 180.892 362.813 148.787C336.933 133.534 311.496 119.691 278.018 118.939C214.72 117.478 165.15 150.966 122.523 188.836C55.2559 248.671 -7.56081 310.815 -70.7006 287.491C-125.63 267.207 -158.842 196.262 -178.808 140.714" stroke="url(#paint35_linear_204_7)" stroke-width="0.5" stroke-miterlimit="10"/>
<path d="M1658.45 798.741C1601.61 812.549 1544.52 827.743 1486.61 834.206C1327.31 852.012 1191.64 835.63 1136.6 774.796C1128.29 765.422 1121.59 754.735 1116.78 743.173C1098.06 700.401 1107.21 657.909 1086.63 614.49C1063.64 566.193 1028.31 545.449 971.669 532.06C895.363 514.013 801.205 538.756 761.852 486.856C759.778 484.058 757.901 481.12 756.236 478.062C711.416 396.917 837.301 258.416 783.414 197.611C756.735 167.576 708.225 190.799 646.649 204.377C614.38 211.547 580.893 219.628 544.704 219.035C461.477 217.577 420.374 173.586 366.239 139.96C340.61 124.103 314.818 109.725 280.987 108.89C217.656 107.351 167.981 142.022 124.955 181.466C57.5563 243.309 -5.5165 308.702 -69.2663 286.219C-124.429 266.804 -158.066 195.489 -178.436 138.741" stroke="url(#paint36_linear_204_7)" stroke-width="0.5" stroke-miterlimit="10"/>
<path d="M1667.16 790.058C1609.91 803.633 1553 818.257 1495.72 824.468C1333.06 842.099 1200.91 823.445 1147.36 762.91C1139.17 753.462 1132.58 742.736 1127.85 731.157C1109.53 688.358 1118.75 646.154 1097.41 603.188C1073.36 555.418 1036.37 536.041 979.359 523.985C902.343 507.64 809.081 532.242 769.89 480.732C767.787 477.953 765.91 475.013 764.274 471.938C719.347 391.2 844.157 252.184 790.243 192.528C763.254 162.623 714.479 187.092 652.143 201.254C619.806 208.59 585.967 216.587 549.43 215.591C464.859 213.185 423.659 166.639 369.754 131.691C344.401 115.173 318.36 100.305 284.177 99.3873C220.76 97.7484 170.955 133.655 127.53 174.674C60.0265 238.474 -2.81015 307.318 -67.6637 285.472C-123.037 266.872 -157.101 195.184 -177.895 137.292" stroke="url(#paint37_linear_204_7)" stroke-width="0.5" stroke-miterlimit="10"/>
<path d="M1675.85 781.429C1618.26 794.734 1561.27 808.743 1504.81 814.717C1338.82 832.183 1210.13 811.231 1158.13 751.471C1150.14 741.977 1143.72 731.264 1139.13 719.737C1121.2 676.911 1130.45 634.974 1107.78 592.231C1082.7 544.931 1044.04 526.923 986.837 515.947C909.55 501.488 816.746 525.767 777.605 474.598C775.532 471.819 773.672 468.887 772.044 465.827C727.089 385.465 850.856 246.016 796.941 187.132C769.718 157.323 720.574 182.991 657.555 197.706C625.047 205.294 590.911 213.232 553.862 211.765C468.091 208.212 426.705 159.333 373.131 122.973C347.466 105.811 321.554 90.4795 287.075 89.5026C223.647 87.7311 173.714 124.873 129.913 167.412C62.2254 233.199 -0.518433 305.372 -66.2223 284.33C-121.809 266.545 -156.375 194.518 -177.57 135.426" stroke="url(#paint38_linear_204_7)" stroke-width="0.5" stroke-miterlimit="10"/>
<path d="M1684.61 772.828C1626.56 785.815 1569.8 799.272 1513.92 804.779C1344.67 822.044 1219.7 798.97 1169.01 739.627C1161 730.098 1154.61 719.323 1150.07 707.729C1132.47 664.906 1141.81 623.202 1118.1 580.799C1091.98 533.969 1051.65 517.33 993.781 507.814C916.137 495.142 823.957 519.164 784.897 468.417C782.844 465.623 780.986 462.692 779.336 459.646C734.253 379.745 856.912 239.704 803.147 181.851C775.558 152.146 726.097 179.036 662.597 194.133C629.975 201.995 595.453 209.773 558.057 207.901C470.804 203.731 429.438 152.021 376.17 114.306C350.577 96.2049 324.514 80.6168 289.735 79.5806C226.034 77.6946 176.127 116.01 131.982 160.146C64.1413 227.998 1.27381 303.408 -65.1738 283.217C-121.015 266.358 -155.916 193.741 -177.56 133.557" stroke="url(#paint39_linear_204_7)" stroke-width="0.5" stroke-miterlimit="10"/>
<path d="M1693.27 764.258C1634.85 777.084 1578.23 789.897 1522.9 795.307C1350.26 812.322 1228.64 786.968 1179.65 728.203C1171.8 718.623 1165.54 707.844 1161.11 696.278C1143.9 653.429 1153.26 611.99 1128.53 569.869C1101.38 523.512 1059.36 508.295 1001.34 500.204C923.396 489.339 831.769 513.269 792.751 462.733C790.691 459.945 788.833 457.014 787.188 453.963C742.055 374.493 863.616 233.994 809.915 177.07C782.015 147.494 732.26 175.552 667.831 191.485C635.062 199.543 600.266 207.206 562.444 204.965C473.883 199.601 432.463 145.548 379.447 106.455C353.853 87.5803 327.571 71.9003 292.554 70.5069C228.876 68.5669 178.786 108.093 134.242 153.805C66.4042 223.659 3.57552 302.374 -63.8873 282.92C-119.872 266.712 -155.258 194.02 -177.323 132.372" stroke="url(#paint40_linear_204_7)" stroke-width="0.5" stroke-miterlimit="10"/>
<path d="M1702.07 755.548C1643.2 768.056 1586.71 780.278 1532.05 785.457C1356.01 802.276 1237.99 774.616 1190.42 716.446C1182.74 706.776 1176.61 695.971 1172.25 684.416C1155.42 641.594 1164.82 600.367 1139.04 558.584C1110.85 512.698 1067.25 498.816 1008.79 492.088C930.462 483.065 839.528 506.575 800.476 456.735C798.366 454.068 796.462 451.246 794.778 448.292C749.617 369.198 870.047 228.163 816.419 172.301C788.151 142.83 738.171 171.891 672.991 188.543C640.109 196.876 604.959 204.457 566.703 201.711C476.851 195.422 435.337 138.813 382.605 98.4201C357.012 78.7714 330.706 62.3728 295.311 61.2715C231.679 59.2215 181.293 99.9161 136.428 147.171C68.2189 218.996 5.67189 301.055 -62.6434 282.408C-118.893 266.99 -154.727 193.983 -177.286 131.355" stroke="url(#paint41_linear_204_7)" stroke-width="0.5" stroke-miterlimit="10"/>
<path d="M1710.76 746.919C1651.5 759.139 1595.17 770.78 1541.1 775.686C1361.8 792.108 1247.18 762.646 1201.22 704.767C1193.63 695.064 1187.59 684.231 1183.34 672.664C1166.91 629.814 1176.27 588.83 1149.53 547.353C1120.34 502.016 1074.96 489.457 1016.21 484.029C937.46 476.956 847.248 500.122 808.317 450.461C806.207 447.795 804.302 444.972 802.617 442.02C757.352 363.333 876.66 221.894 823.164 166.797C794.65 137.608 744.13 168.12 678.139 185.015C645.187 193.513 609.684 201.011 571.003 197.893C479.852 190.548 438.25 131.516 385.796 89.6901C360.18 69.3216 333.792 52.5022 298.043 51.319C234.435 49.2127 183.812 91.0984 138.57 139.873C70.1538 213.742 7.66965 299.051 -61.4973 281.208C-117.959 266.605 -154.242 193.282 -177.18 129.399" stroke="url(#paint42_linear_204_7)" stroke-width="0.5" stroke-miterlimit="10"/>
<path d="M1719.46 738.29C1659.85 750.241 1603.61 761.205 1550.19 765.935C1367.53 782.052 1256.56 750.181 1211.97 693.061C1204.49 683.319 1198.58 672.471 1194.43 660.909C1178.32 618.064 1187.78 577.313 1160 536.175C1129.77 491.308 1082.72 480.117 1023.83 476.114C944.767 470.716 855.243 493.783 816.227 444.474C814.151 441.818 812.256 439.025 810.56 436.11C765.244 357.853 883.422 215.877 829.944 161.821C801.054 132.604 750.373 164.274 683.819 181.902C650.752 190.674 614.829 198.254 575.891 194.515C483.338 186.197 441.753 124.655 389.528 81.5074C363.912 60.3654 337.42 43.1801 301.398 41.881C237.809 39.72 186.895 82.7729 141.308 133.146C72.7072 209.001 10.3267 297.771 -59.6798 280.547C-116.351 266.76 -153.083 193.119 -176.565 127.913" stroke="url(#paint43_linear_204_7)" stroke-width="0.5" stroke-miterlimit="10"/>
<path d="M1728.23 729.634C1672.43 741.46 1616.03 750.323 1559.28 756.183C1373.24 771.92 1265.9 738.015 1222.89 681.43C1215.52 671.639 1209.7 660.768 1205.64 649.203C1190.01 606.297 1199.41 565.846 1170.62 524.935C1139.36 480.539 1090.64 470.718 1031.15 468.009C951.728 464.396 862.77 487.184 823.918 438.264C821.812 435.643 819.91 432.865 818.227 429.955C772.806 352.107 889.884 209.671 836.502 156.622C807.246 127.511 756.294 160.295 689.033 178.53C655.853 187.577 619.716 194.746 580.146 191.127C486.294 181.751 444.645 117.734 392.673 73.2075C367.058 51.2917 340.46 33.7395 304.061 32.4135C240.223 30.0815 189.365 74.3855 143.343 126.577C74.5128 204.527 12.2869 296.33 -58.5852 280.098C-115.525 267.103 -152.679 193.092 -176.422 126.809" stroke="url(#paint44_linear_204_7)" stroke-width="0.5" stroke-miterlimit="10"/>
<path d="M1736.92 721.005C1681.2 732.398 1624.92 740.876 1568.33 746.412C1378.97 761.733 1275.2 725.772 1233.51 669.734C1226.28 659.871 1220.59 648.971 1216.62 637.402C1201.37 594.527 1210.8 554.285 1180.95 513.766C1148.66 469.841 1098.22 461.364 1038.48 460.035C958.638 458.185 870.303 480.717 831.533 432.218C829.44 429.601 827.531 426.844 825.819 423.963C780.315 346.469 896.217 203.607 842.811 151.387C813.222 122.458 761.999 156.354 694.011 175.252C660.683 184.497 624.225 191.66 584.243 187.484C489.101 177.182 447.275 110.961 395.671 64.7815C370.11 42.1147 343.353 24.174 306.68 22.7335C242.709 20.4113 191.932 65.9099 145.484 119.277C76.4462 199.271 14.4145 294.314 -57.4416 278.898C-114.568 266.661 -152.196 192.39 -176.395 124.884" stroke="url(#paint45_linear_204_7)" stroke-width="0.5" stroke-miterlimit="10"/>
<path d="M1745.68 712.406C1690.04 723.345 1633.89 731.447 1577.42 736.661C1384.72 751.558 1284.56 713.553 1244.32 658.057C1237.19 648.148 1231.6 637.225 1227.72 625.652C1212.86 582.749 1222.32 542.772 1191.45 502.538C1157.98 459.093 1105.99 452.03 1045.9 451.978C965.685 451.968 877.973 474.244 839.228 426.144C837.143 423.544 835.251 420.793 833.57 417.912C788.016 340.847 902.765 197.505 849.588 146.282C819.686 117.481 768.147 152.6 699.477 172.052C666.057 181.516 629.247 188.597 588.886 183.939C492.398 172.689 450.647 103.662 399.18 56.3785C373.665 32.8293 346.756 14.6316 309.731 13.1079C245.727 10.7081 194.549 57.3286 148 112.329C78.676 194.398 16.6746 292.614 -55.9467 278.103C-113.261 266.628 -151.337 192.041 -175.938 123.333" stroke="url(#paint46_linear_204_7)" stroke-width="0.5" stroke-miterlimit="10"/>
<path d="M1754.39 703.725C1698.86 714.284 1642.83 722.021 1586.53 726.924C1390.47 741.318 1294.01 701.57 1254.98 646.579C1248.01 636.571 1242.56 625.601 1238.77 614.014C1224.39 571.183 1233.75 531.294 1201.87 491.476C1167.5 448.493 1113.73 442.752 1053.26 444.087C972.683 445.862 885.626 467.961 846.956 420.15C844.841 417.584 842.941 414.849 841.274 411.972C795.811 335.462 909.242 191.569 856.181 141.299C825.859 112.58 774.081 148.889 704.729 168.896C668.799 180.454 630.85 184.385 593.314 180.437C495.328 167.983 453.86 96.4283 402.474 48.0182C376.915 23.8052 349.971 5.07538 312.624 3.5474C248.558 0.992004 197.007 48.8114 150.3 105.425C80.7383 189.456 18.8763 290.893 -54.564 277.266C-112.176 266.505 -150.669 191.678 -175.672 121.771" stroke="url(#paint47_linear_204_7)" stroke-width="0.5" stroke-miterlimit="10"/>
<path d="M1763.08 695.092C1701.42 705.799 1645.74 713.575 1595.62 717.17C1396.34 731.12 1303.29 689.055 1265.87 634.674C1258.99 624.69 1253.6 613.748 1249.89 602.2C1235.58 559.207 1245.56 519.833 1212.36 480.24C1176.98 437.673 1121.51 433.223 1060.59 436.243C979.651 439.671 893.225 461.646 854.636 414.255C852.531 411.676 850.606 408.955 848.878 406.11C803.276 329.93 915.718 185.622 862.723 136.282C832.066 107.749 779.994 145.223 709.936 165.838C673.737 177.559 635.442 181.372 597.643 177.015C498.578 163.592 456.789 89.7121 405.726 39.7589C380.222 14.7936 353.171 -4.30172 315.222 -6.08138C251.068 -8.73706 199.443 40.3404 152.36 98.4751C82.5682 184.604 20.8153 289.18 -53.5014 276.414C-111.324 266.468 -150.242 191.269 -175.396 120.333" stroke="url(#paint48_linear_204_7)" stroke-width="0.5" stroke-miterlimit="10"/>
<path d="M1771.61 686.394C1709.28 696.693 1654.05 704.018 1604.45 707.311C1401.73 720.667 1312.48 676.768 1276.38 622.937C1269.75 612.817 1264.57 601.818 1260.99 590.263C1247.28 547.386 1256.67 507.896 1222.91 468.846C1186.48 426.805 1129.34 423.722 1068.16 427.854C986.854 433.068 901.083 454.865 862.489 407.795C860.402 405.223 858.495 402.51 856.785 399.673C811.023 323.877 922.399 179.19 869.546 130.748C838.5 102.373 786.057 141.047 715.394 162.184C678.957 174.142 640.32 177.842 602.277 173.018C501.867 158.646 460.094 82.2556 409.227 30.902C383.724 5.16424 356.458 -14.3448 318.541 -16.0468C254.323 -18.8577 202.491 31.4875 155.087 91.164C85.0111 179.367 23.3653 287.087 -51.7707 275.201C-109.836 265.992 -149.116 190.58 -175.003 118.307" stroke="url(#paint49_linear_204_7)" stroke-width="0.5" stroke-miterlimit="10"/>
<path d="M1780.43 678.087C1718.15 688.274 1662.65 694.84 1613.67 697.871C1407.58 710.66 1321.98 664.805 1287.26 611.546C1280.66 601.41 1275.5 590.403 1271.95 578.84C1258.58 535.914 1268.28 496.749 1233.24 458C1195.73 416.54 1136.96 414.717 1075.44 420.125C993.736 427.236 908.744 448.712 870.176 402.04C868.064 399.515 866.141 396.839 864.427 394.028C818.505 318.616 928.837 173.492 876.048 125.979C844.689 97.7331 791.991 137.334 720.312 159.206C683.6 171.304 644.616 174.884 606.315 169.671C504.673 154.078 462.745 75.4303 412.078 22.676C386.684 -3.79136 359.281 -23.7424 321.011 -25.5277C257.195 -28.6871 204.988 23.1797 157.318 84.4205C86.979 174.643 25.4987 285.526 -50.4574 274.525C-108.846 266.086 -148.519 190.38 -174.862 116.882" stroke="url(#paint50_linear_204_7)" stroke-width="0.5" stroke-miterlimit="10"/>
<path d="M1789.42 668.937C1453.94 721.495 1339.29 664.288 1298.27 599.372C1262.62 543.083 1288.9 494.324 1243.94 446.276C1154.23 350.458 945.515 476.507 878.189 395.514C818.303 323.433 937.641 168.781 883.044 120.192C836.361 78.9054 743.576 186.913 611.435 165.746C456.59 141.036 439.895 -30.0849 324.575 -35.4578C165.628 -42.9166 80.1954 290.296 -48.7112 273.125C-107.288 265.445 -147.43 189.477 -174.177 114.781" stroke="url(#paint51_linear_204_7)" stroke-width="0.5" stroke-miterlimit="10"/>
</g>
<defs>
<linearGradient id="paint0_linear_204_7" x1="934.54" y1="1106.61" x2="1301.62" y2="1186.2" gradientUnits="userSpaceOnUse">
<stop stop-color="#94C6FF"/>
<stop offset="1" stop-color="white" stop-opacity="0"/>
</linearGradient>
<linearGradient id="paint1_linear_204_7" x1="942.861" y1="1096.17" x2="1581.63" y2="1166.31" gradientUnits="userSpaceOnUse">
<stop stop-color="#94C6FF"/>
<stop offset="1" stop-color="white" stop-opacity="0"/>
</linearGradient>
<linearGradient id="paint2_linear_204_7" x1="951.108" y1="1085.79" x2="1591.17" y2="1153.28" gradientUnits="userSpaceOnUse">
<stop stop-color="#94C6FF"/>
<stop offset="1" stop-color="white" stop-opacity="0"/>
</linearGradient>
<linearGradient id="paint3_linear_204_7" x1="959.32" y1="1075.37" x2="1600.74" y2="1140.14" gradientUnits="userSpaceOnUse">
<stop stop-color="#94C6FF"/>
<stop offset="1" stop-color="white" stop-opacity="0"/>
</linearGradient>
<linearGradient id="paint4_linear_204_7" x1="967.79" y1="1065.01" x2="1610.19" y2="1127.03" gradientUnits="userSpaceOnUse">
<stop stop-color="#94C6FF"/>
<stop offset="1" stop-color="white" stop-opacity="0"/>
</linearGradient>
<linearGradient id="paint5_linear_204_7" x1="975.94" y1="1054.49" x2="1619.76" y2="1113.65" gradientUnits="userSpaceOnUse">
<stop stop-color="#94C6FF"/>
<stop offset="1" stop-color="white" stop-opacity="0"/>
</linearGradient>
<linearGradient id="paint6_linear_204_7" x1="984.179" y1="1044" x2="1629.22" y2="1100.26" gradientUnits="userSpaceOnUse">
<stop stop-color="#94C6FF"/>
<stop offset="1" stop-color="white" stop-opacity="0"/>
</linearGradient>
<linearGradient id="paint7_linear_204_7" x1="992.599" y1="1033.61" x2="1638.6" y2="1086.95" gradientUnits="userSpaceOnUse">
<stop stop-color="#94C6FF"/>
<stop offset="1" stop-color="white" stop-opacity="0"/>
</linearGradient>
<linearGradient id="paint8_linear_204_7" x1="1000.8" y1="1023.08" x2="1647.99" y2="1073.38" gradientUnits="userSpaceOnUse">
<stop stop-color="#94C6FF"/>
<stop offset="1" stop-color="white" stop-opacity="0"/>
</linearGradient>
<linearGradient id="paint9_linear_204_7" x1="1008.97" y1="1012.96" x2="1657.22" y2="1060.18" gradientUnits="userSpaceOnUse">
<stop stop-color="#94C6FF"/>
<stop offset="1" stop-color="white" stop-opacity="0"/>
</linearGradient>
<linearGradient id="paint10_linear_204_7" x1="1017.53" y1="1002.02" x2="1666.64" y2="1046.14" gradientUnits="userSpaceOnUse">
<stop stop-color="#94C6FF"/>
<stop offset="1" stop-color="white" stop-opacity="0"/>
</linearGradient>
<linearGradient id="paint11_linear_204_7" x1="1025.82" y1="991.639" x2="1675.86" y2="1032.55" gradientUnits="userSpaceOnUse">
<stop stop-color="#94C6FF"/>
<stop offset="1" stop-color="white" stop-opacity="0"/>
</linearGradient>
<linearGradient id="paint12_linear_204_7" x1="1034.12" y1="981.119" x2="1685.02" y2="1018.74" gradientUnits="userSpaceOnUse">
<stop stop-color="#94C6FF"/>
<stop offset="1" stop-color="white" stop-opacity="0"/>
</linearGradient>
<linearGradient id="paint13_linear_204_7" x1="1042.38" y1="970.559" x2="1694.18" y2="1004.84" gradientUnits="userSpaceOnUse">
<stop stop-color="#94C6FF"/>
<stop offset="1" stop-color="white" stop-opacity="0"/>
</linearGradient>
<linearGradient id="paint14_linear_204_7" x1="1050.73" y1="960.274" x2="1703.14" y2="991.187" gradientUnits="userSpaceOnUse">
<stop stop-color="#94C6FF"/>
<stop offset="1" stop-color="white" stop-opacity="0"/>
</linearGradient>
<linearGradient id="paint15_linear_204_7" x1="1058.76" y1="949.445" x2="1712.05" y2="976.804" gradientUnits="userSpaceOnUse">
<stop stop-color="#94C6FF"/>
<stop offset="1" stop-color="white" stop-opacity="0"/>
</linearGradient>
<linearGradient id="paint16_linear_204_7" x1="1067.43" y1="939.023" x2="1721.13" y2="962.934" gradientUnits="userSpaceOnUse">
<stop stop-color="#94C6FF"/>
<stop offset="1" stop-color="white" stop-opacity="0"/>
</linearGradient>
<linearGradient id="paint17_linear_204_7" x1="1075.77" y1="928.5" x2="1730.05" y2="948.757" gradientUnits="userSpaceOnUse">
<stop stop-color="#94C6FF"/>
<stop offset="1" stop-color="white" stop-opacity="0"/>
</linearGradient>
<linearGradient id="paint18_linear_204_7" x1="1084.09" y1="918.116" x2="1738.72" y2="934.64" gradientUnits="userSpaceOnUse">
<stop stop-color="#94C6FF"/>
<stop offset="1" stop-color="white" stop-opacity="0"/>
</linearGradient>
<linearGradient id="paint19_linear_204_7" x1="1092.37" y1="907.583" x2="1747.54" y2="920.349" gradientUnits="userSpaceOnUse">
<stop stop-color="#94C6FF"/>
<stop offset="1" stop-color="white" stop-opacity="0"/>
</linearGradient>
<linearGradient id="paint20_linear_204_7" x1="1100.78" y1="896.705" x2="1756.22" y2="905.616" gradientUnits="userSpaceOnUse">
<stop stop-color="#94C6FF"/>
<stop offset="1" stop-color="white" stop-opacity="0"/>
</linearGradient>
<linearGradient id="paint21_linear_204_7" x1="1109.07" y1="886.438" x2="1764.78" y2="891.393" gradientUnits="userSpaceOnUse">
<stop stop-color="#94C6FF"/>
<stop offset="1" stop-color="white" stop-opacity="0"/>
</linearGradient>
<linearGradient id="paint22_linear_204_7" x1="1117.35" y1="875.961" x2="1773.17" y2="876.809" gradientUnits="userSpaceOnUse">
<stop stop-color="#94C6FF"/>
<stop offset="1" stop-color="white" stop-opacity="0"/>
</linearGradient>
<linearGradient id="paint23_linear_204_7" x1="1125.67" y1="865.404" x2="1781.55" y2="862.202" gradientUnits="userSpaceOnUse">
<stop stop-color="#94C6FF"/>
<stop offset="1" stop-color="white" stop-opacity="0"/>
</linearGradient>
<linearGradient id="paint24_linear_204_7" x1="1134.01" y1="854.912" x2="1789.85" y2="847.51" gradientUnits="userSpaceOnUse">
<stop stop-color="#94C6FF"/>
<stop offset="1" stop-color="white" stop-opacity="0"/>
</linearGradient>
<linearGradient id="paint25_linear_204_7" x1="1142.42" y1="844.444" x2="1798.08" y2="832.753" gradientUnits="userSpaceOnUse">
<stop stop-color="#94C6FF"/>
<stop offset="1" stop-color="white" stop-opacity="0"/>
</linearGradient>
<linearGradient id="paint26_linear_204_7" x1="1150.62" y1="833.966" x2="1806.05" y2="817.915" gradientUnits="userSpaceOnUse">
<stop stop-color="#94C6FF"/>
<stop offset="1" stop-color="white" stop-opacity="0"/>
</linearGradient>
<linearGradient id="paint27_linear_204_7" x1="1158.93" y1="823.539" x2="1813.83" y2="802.882" gradientUnits="userSpaceOnUse">
<stop stop-color="#94C6FF"/>
<stop offset="1" stop-color="white" stop-opacity="0"/>
</linearGradient>
<linearGradient id="paint28_linear_204_7" x1="1167.24" y1="812.979" x2="1821.71" y2="787.907" gradientUnits="userSpaceOnUse">
<stop stop-color="#94C6FF"/>
<stop offset="1" stop-color="white" stop-opacity="0"/>
</linearGradient>
<linearGradient id="paint29_linear_204_7" x1="1175.52" y1="802.602" x2="1829.36" y2="772.83" gradientUnits="userSpaceOnUse">
<stop stop-color="#94C6FF"/>
<stop offset="1" stop-color="white" stop-opacity="0"/>
</linearGradient>
<linearGradient id="paint30_linear_204_7" x1="1183.77" y1="792.065" x2="1836.9" y2="757.488" gradientUnits="userSpaceOnUse">
<stop stop-color="#94C6FF"/>
<stop offset="1" stop-color="white" stop-opacity="0"/>
</linearGradient>
<linearGradient id="paint31_linear_204_7" x1="1192.09" y1="781.712" x2="1844.28" y2="742.334" gradientUnits="userSpaceOnUse">
<stop stop-color="#94C6FF"/>
<stop offset="1" stop-color="white" stop-opacity="0"/>
</linearGradient>
<linearGradient id="paint32_linear_204_7" x1="1200.37" y1="771.265" x2="1851.52" y2="727.028" gradientUnits="userSpaceOnUse">
<stop stop-color="#94C6FF"/>
<stop offset="1" stop-color="white" stop-opacity="0"/>
</linearGradient>
<linearGradient id="paint33_linear_204_7" x1="1208.6" y1="760.882" x2="1858.56" y2="711.634" gradientUnits="userSpaceOnUse">
<stop stop-color="#94C6FF"/>
<stop offset="1" stop-color="white" stop-opacity="0"/>
</linearGradient>
<linearGradient id="paint34_linear_204_7" x1="1217.01" y1="750.369" x2="1865.66" y2="696.23" gradientUnits="userSpaceOnUse">
<stop stop-color="#94C6FF"/>
<stop offset="1" stop-color="white" stop-opacity="0"/>
</linearGradient>
<linearGradient id="paint35_linear_204_7" x1="1225.15" y1="740.114" x2="1872.26" y2="680.667" gradientUnits="userSpaceOnUse">
<stop stop-color="#94C6FF"/>
<stop offset="1" stop-color="white" stop-opacity="0"/>
</linearGradient>
<linearGradient id="paint36_linear_204_7" x1="1233.26" y1="730.166" x2="1879.06" y2="665.988" gradientUnits="userSpaceOnUse">
<stop stop-color="#94C6FF"/>
<stop offset="1" stop-color="white" stop-opacity="0"/>
</linearGradient>
<linearGradient id="paint37_linear_204_7" x1="1237.63" y1="729.241" x2="1887" y2="667.898" gradientUnits="userSpaceOnUse">
<stop stop-color="#94C6FF"/>
<stop offset="1" stop-color="white" stop-opacity="0"/>
</linearGradient>
<linearGradient id="paint38_linear_204_7" x1="1242.04" y1="728.022" x2="1895" y2="669.416" gradientUnits="userSpaceOnUse">
<stop stop-color="#94C6FF"/>
<stop offset="1" stop-color="white" stop-opacity="0"/>
</linearGradient>
<linearGradient id="paint39_linear_204_7" x1="1246.35" y1="727.015" x2="1902.91" y2="670.997" gradientUnits="userSpaceOnUse">
<stop stop-color="#94C6FF"/>
<stop offset="1" stop-color="white" stop-opacity="0"/>
</linearGradient>
<linearGradient id="paint40_linear_204_7" x1="1250.5" y1="726.531" x2="1910.6" y2="673.386" gradientUnits="userSpaceOnUse">
<stop stop-color="#94C6FF"/>
<stop offset="1" stop-color="white" stop-opacity="0"/>
</linearGradient>
<linearGradient id="paint41_linear_204_7" x1="1254.7" y1="725.972" x2="1918.23" y2="675.488" gradientUnits="userSpaceOnUse">
<stop stop-color="#94C6FF"/>
<stop offset="1" stop-color="white" stop-opacity="0"/>
</linearGradient>
<linearGradient id="paint42_linear_204_7" x1="1259.03" y1="724.806" x2="1926.06" y2="676.996" gradientUnits="userSpaceOnUse">
<stop stop-color="#94C6FF"/>
<stop offset="1" stop-color="white" stop-opacity="0"/>
</linearGradient>
<linearGradient id="paint43_linear_204_7" x1="1263.39" y1="723.947" x2="1933.66" y2="678.818" gradientUnits="userSpaceOnUse">
<stop stop-color="#94C6FF"/>
<stop offset="1" stop-color="white" stop-opacity="0"/>
</linearGradient>
<linearGradient id="paint44_linear_204_7" x1="1267.59" y1="723.416" x2="1941.32" y2="681.188" gradientUnits="userSpaceOnUse">
<stop stop-color="#94C6FF"/>
<stop offset="1" stop-color="white" stop-opacity="0"/>
</linearGradient>
<linearGradient id="paint45_linear_204_7" x1="1271.88" y1="722.334" x2="1948.85" y2="682.486" gradientUnits="userSpaceOnUse">
<stop stop-color="#94C6FF"/>
<stop offset="1" stop-color="white" stop-opacity="0"/>
</linearGradient>
<linearGradient id="paint46_linear_204_7" x1="1276.25" y1="721.478" x2="1956.4" y2="684.228" gradientUnits="userSpaceOnUse">
<stop stop-color="#94C6FF"/>
<stop offset="1" stop-color="white" stop-opacity="0"/>
</linearGradient>
<linearGradient id="paint47_linear_204_7" x1="1280.52" y1="720.635" x2="1963.79" y2="685.844" gradientUnits="userSpaceOnUse">
<stop stop-color="#94C6FF"/>
<stop offset="1" stop-color="white" stop-opacity="0"/>
</linearGradient>
<linearGradient id="paint48_linear_204_7" x1="1284.76" y1="719.891" x2="1971.14" y2="687.617" gradientUnits="userSpaceOnUse">
<stop stop-color="#94C6FF"/>
<stop offset="1" stop-color="white" stop-opacity="0"/>
</linearGradient>
<linearGradient id="paint49_linear_204_7" x1="1289.07" y1="718.537" x2="1978.49" y2="688.75" gradientUnits="userSpaceOnUse">
<stop stop-color="#94C6FF"/>
<stop offset="1" stop-color="white" stop-opacity="0"/>
</linearGradient>
<linearGradient id="paint50_linear_204_7" x1="1293.41" y1="717.961" x2="1985.92" y2="690.508" gradientUnits="userSpaceOnUse">
<stop stop-color="#94C6FF"/>
<stop offset="1" stop-color="white" stop-opacity="0"/>
</linearGradient>
<linearGradient id="paint51_linear_204_7" x1="1298.03" y1="716.521" x2="1993.52" y2="691.558" gradientUnits="userSpaceOnUse">
<stop stop-color="#94C6FF"/>
<stop offset="1" stop-color="white" stop-opacity="0"/>
</linearGradient>
<clipPath id="clip0_204_7">
<rect width="1256" height="450" fill="white"/>
</clipPath>
</defs>
</svg>
