<svg width="44" height="60" viewBox="0 0 44 60" fill="none" xmlns="http://www.w3.org/2000/svg">
<path d="M31.3876 44.8343V54.0919L35.823 55.9379V42.4083C34.4297 43.3639 32.9437 44.1766 31.3876 44.8343ZM7.43049 42.4083V55.8456L11.8659 53.9995V44.8343C10.3097 44.1767 8.82375 43.3639 7.43049 42.4083ZM21.6267 46.8038C19.5322 46.8049 17.4459 46.5443 15.4161 46.0279V60L21.6267 57.4152L27.8373 59.9999V46.0279C25.8075 46.5442 23.7211 46.8049 21.6267 46.8038ZM21.6267 0C9.7017 0 0 9.7017 0 21.6268C0 33.5519 9.7017 43.2535 21.6267 43.2535C33.5517 43.2535 43.2535 33.5518 43.2535 21.6267C43.2535 9.70158 33.5518 0 21.6267 0ZM21.6267 38.6835C12.1728 38.6835 4.48148 30.9922 4.48148 21.5383C4.48148 12.0844 12.1728 4.393 21.6267 4.393C31.0805 4.393 38.7719 12.0844 38.7719 21.5383C38.7719 30.9923 31.0806 38.6835 21.6267 38.6835ZM21.6267 7.94319C14.1304 7.94319 8.03166 14.0418 8.03166 21.5383C8.03166 29.0348 14.1304 35.1332 21.6267 35.1332C29.1229 35.1332 35.2217 29.0346 35.2217 21.5382C35.2217 14.0418 29.123 7.94319 21.6267 7.94319ZM27.2143 29.4726L21.6267 26.5351L16.0392 29.4726L17.1063 23.2509L12.5859 18.8447L18.833 17.9368L21.6267 12.276L24.4204 17.9368L30.6676 18.8447L26.1472 23.2509L27.2143 29.4726Z" fill="#1478FA"/>
</svg>
