<svg width="60" height="49" viewBox="0 0 60 49" fill="none" xmlns="http://www.w3.org/2000/svg">
<path d="M59.0861 19.22C58.515 17.7207 57.3422 16.3822 55.9147 15.4171C51.7939 12.8005 45.5139 12.6142 41.2679 14.9797C38.9521 16.1603 37.4301 18.4967 36.9564 20.9027C36.0973 24.8557 36.3192 29.559 39.3646 32.5219C42.9158 35.635 48.0842 36.3227 52.6801 35.0439C52.8985 35.002 53.5905 34.8277 54.0677 34.5745L54.2021 34.5169C55.6295 33.9238 56.9908 32.9579 58.0072 31.65C60.3528 28.2205 60.5135 23.0819 59.0861 19.22ZM51.6033 28.0967C51.4412 28.8464 50.9369 29.623 50.1418 29.9047C48.8758 30.4615 47.1632 30.3072 45.9904 29.6557C45.0068 28.968 44.8802 27.8165 44.7536 26.7269C44.6575 24.579 44.5025 22.3045 45.1042 20.3409C45.5757 19.1247 46.8766 18.8117 48.0529 18.72C49.2883 18.72 50.491 18.9085 51.2541 19.9049C51.7292 20.6197 51.7001 21.5549 51.7939 22.397C51.7605 24.1715 51.9198 26.2881 51.6033 28.0967ZM14.0317 30.0312C12.9848 29.9672 11.812 30.059 10.7985 29.9345L10.8298 18.9974L10.8938 18.9063L14.0317 18.8758C14.0644 17.1005 14.0957 15.1966 13.999 13.5786L2.04832 13.5452L0.0803687 13.5793C0.049075 15.2293 0.049075 17.1589 0.0803687 18.843C1.15929 18.8765 2.17207 18.843 3.21899 18.9405V29.5327L3.1884 29.9679L0.049075 30.032C-0.0163583 31.7449 -0.0163583 33.4597 0.049075 35.1727H14.031L14.0317 30.0312ZM49.2229 37.5069C47.8929 39.4094 46.2123 41.2472 44.3773 42.6768C44.3105 42.7742 44.1206 42.7372 44.0601 42.6476C43.265 42.1505 42.4094 41.7436 41.6469 41.2472C42.6626 40.0331 43.6462 38.8184 44.4072 37.4735H43.4207C42.6327 38.6306 41.8063 39.8447 40.7608 40.8695C39.3646 40.3098 38.0972 39.812 36.6705 39.435L36.5119 39.3162C36.7338 38.6868 37.1449 38.0958 37.2708 37.472H36.4152L35.5596 39.1555C33.6912 38.7508 31.6294 38.5303 29.7269 38.4073C29.6309 38.1278 29.7568 37.7224 29.6309 37.472H28.8066C28.7411 37.8469 28.9019 38.1292 28.7113 38.44C26.7455 38.5303 24.8436 38.7508 23.0066 39.1285L22.1474 37.472C21.8338 37.472 21.481 37.4123 21.2619 37.5055L22.0528 39.344L21.9582 39.435C20.5373 39.8461 19.1402 40.3357 17.7734 40.9015L17.6475 40.8375C16.7578 39.8717 15.9015 38.817 15.2031 37.7572C15.0459 37.2245 14.4115 37.536 14.0623 37.4735C14.8204 38.8461 15.8382 40.0595 16.851 41.3077C15.9954 41.8076 15.1426 42.3652 14.2507 42.7742C12.3114 41.2972 10.6208 39.5194 9.24302 37.5083C8.86181 37.4471 8.61075 37.4749 8.2274 37.5083C10.5104 41.0601 14.0623 44.1746 17.772 46.0131C17.772 46.0131 17.772 45.9854 17.8061 45.9854C17.8331 45.9854 17.8964 46.043 17.8331 46.0757C20.3395 47.2911 23.0044 48.1631 25.8237 48.5386C35.5582 49.8146 44.8489 45.6731 50.2357 37.5083C49.899 37.4736 49.5596 37.4732 49.2229 37.5069ZM36.0048 40.3105L36.098 40.2479C37.465 40.5594 38.7622 40.9961 39.9678 41.5865C38.9521 42.7365 37.652 43.7358 36.4486 44.5764C35.7203 45.011 34.9885 45.4832 34.2268 45.8545L32.8662 45.2628L32.9594 45.0473C34.103 43.5217 35.1179 41.962 36.0048 40.3105ZM29.7568 39.3753C31.5654 39.4094 33.3733 39.5957 35.0511 39.999L35.0845 40.0936C34.1983 41.7742 33.086 43.3979 31.8833 44.9214C31.3414 44.9854 30.8364 44.7699 30.298 44.7365L29.7561 44.6724C29.6942 42.8339 29.6607 41.2138 29.7568 39.3753ZM23.6403 39.9357C25.2889 39.6242 27.0001 39.3753 28.7746 39.3753L28.8073 44.6461C28.1402 44.7969 27.4112 44.7969 26.7767 44.9569C25.4766 43.4264 24.3998 41.7742 23.4817 40.0595L23.6403 39.9357ZM18.533 41.6199C19.7726 41.026 21.0706 40.5872 22.4006 40.2472L22.5293 40.2799C23.4461 41.994 24.589 43.6127 25.7298 45.2329C25.2896 45.4839 24.7476 45.634 24.3053 45.8872C22.1612 44.828 20.2102 43.4163 18.5337 41.7109V41.6199H18.533ZM22.6246 46.9469C19.9611 46.2592 17.4861 45.0757 15.2038 43.4584V43.3617C15.9648 42.8987 16.7286 42.3987 17.5501 42.0523C19.3587 43.8332 21.2278 45.1731 23.2569 46.4476C23.099 46.6347 22.8458 46.8225 22.6246 46.9469ZM34.3861 47.3495C31.0263 48.0706 27.2831 48.0984 23.924 47.2897C23.86 47.1347 24.0826 47.1013 24.1772 47.0102C27.126 45.1077 31.7212 45.1077 34.6094 47.1617C34.7033 47.3495 34.4501 47.2897 34.3861 47.3495ZM37.4308 46.4804L35.9408 46.9462C35.6862 46.8218 35.4657 46.6347 35.2417 46.4469L35.3057 46.3516C37.3355 45.1724 39.1733 43.7351 40.9179 42.0217C41.7743 42.3638 42.5993 42.8339 43.3624 43.3609C41.5851 44.7699 39.5232 45.7001 37.4308 46.4804ZM9.18115 11.1782C9.96538 10.0929 10.8232 9.06279 11.7487 8.09507C12.5701 7.31628 13.334 6.56879 14.223 6.0055C15.048 6.53465 15.9662 6.97561 16.7585 7.47204C15.7763 8.68112 14.7614 9.90157 14.0324 11.2067C14.2529 11.3041 14.6668 11.2735 14.9847 11.2067C15.7763 10.0559 16.6298 8.90373 17.6482 7.87459C19.0081 8.37458 20.3416 8.9023 21.7385 9.27783L21.8615 9.40158L21.072 11.2067C21.422 11.2735 21.6439 11.2408 21.9902 11.2067C22.2747 10.6804 22.4952 10.09 22.8124 9.55734C24.6538 9.96416 26.5883 10.1811 28.5541 10.2415C28.8059 10.4627 28.6167 10.9279 28.712 11.2067H29.5676C29.6607 10.9008 29.5356 10.5538 29.6607 10.2764C31.5014 10.1797 33.4345 9.99261 35.2161 9.55592L35.3704 9.58863L36.2267 11.2052C36.5126 11.2052 36.8924 11.2721 37.1143 11.1412L36.3199 9.33899L36.3861 9.27641C37.8419 8.9023 39.2075 8.34186 40.6022 7.78213C41.5879 8.80985 42.5047 10.0246 43.3318 11.2045C43.6789 11.2045 44.0281 11.2387 44.282 11.1405C43.8905 10.4449 43.4337 9.78814 42.9179 9.17897C42.4992 8.5823 42.032 8.02115 41.5211 7.5012V7.33975L43.7408 6.06453L44.0608 5.94007C45.9912 7.40119 47.6805 9.15599 49.0671 11.1405C49.4476 11.1405 49.7655 11.2714 50.0834 11.1142C45.8303 4.76371 38.8248 0.677749 31.251 0.0895693L31.2176 0.150023L31.1529 0.0895693C30.298 -0.00217819 29.2475 -0.0384504 28.3293 0.053297C27.9816 0.0262706 27.5705 0.053297 27.1572 0.0895693C19.5493 0.677749 12.5431 4.57453 8.16553 11.2081C8.48273 11.1782 8.86323 11.3048 9.18115 11.1782ZM22.3409 8.44072L22.2143 8.46775C20.9127 8.1285 19.6432 7.71954 18.4384 7.19182L18.4996 7.00477C20.2435 5.35402 22.082 3.98208 24.1111 2.92521C24.589 3.11226 25.0641 3.26659 25.5392 3.48778L25.4461 3.73102C24.2391 5.23027 23.2903 6.84688 22.3409 8.44072ZM28.648 9.27925C27.7625 9.40372 26.9695 9.25151 26.0783 9.18253C25.2263 9.05735 24.1459 8.96703 23.2903 8.68254C24.21 6.97703 25.2896 5.32273 26.5883 3.80001L28.6181 4.07667C28.712 5.69399 28.648 7.5645 28.648 9.27925ZM29.6302 9.31268C29.5676 7.65625 29.6003 5.82059 29.6302 4.10654C30.2667 4.01551 30.9609 3.91878 31.5967 3.82703C32.8328 5.38247 34.0404 6.97703 34.8655 8.68254C33.1511 9.09731 31.3939 9.30881 29.6302 9.31268ZM39.7473 7.12852C38.5083 7.65554 37.2388 8.15481 35.8775 8.44072C34.8953 6.78927 33.8178 5.13853 32.6095 3.54326C33.054 3.29931 33.5959 3.11226 34.0703 2.86404C36.135 3.89104 38.13 5.35402 39.8084 7.03108L39.7473 7.12852ZM35.6862 1.80148C38.3497 2.48852 40.8546 3.67057 43.1377 5.29073L43.0744 5.41519L40.8888 6.62853H40.7273C39.0496 4.95219 37.0845 3.48778 35.0845 2.33205C35.1478 2.1137 35.4664 1.95652 35.6862 1.80148ZM34.4195 1.48854V1.55468C31.6593 3.54326 27.19 3.73102 24.2747 1.89251C24.1111 1.76805 23.7982 1.7076 23.764 1.48925C27.1267 0.714021 31.0875 0.651434 34.4195 1.48854ZM15.0779 5.35402C17.0771 3.89104 19.2954 2.80074 21.6424 2.05254C21.7385 1.9551 21.7996 1.86335 21.9248 1.86335V1.92736C22.178 1.98853 22.3693 1.70617 22.5905 1.89109C22.7818 2.05254 23.0059 2.17558 23.1623 2.33063C21.1979 3.54326 19.2627 4.97921 17.4868 6.72028C16.6305 6.41445 15.841 5.94434 15.0772 5.41519L15.0779 5.35402ZM28.6807 30.2745C25.7007 31.086 22.4646 30.4672 20.3096 28.2205C20.0571 27.909 19.8971 27.5377 19.6425 27.2276L15.3638 27.2575C15.2962 29.7802 15.2664 32.6784 15.3638 35.172L20.1176 35.1414L20.1809 33.645C20.7221 33.8939 21.2619 34.2047 21.7996 34.4842C25.0968 35.8569 29.3414 36.1684 32.608 34.4842C34.9878 33.1791 36.2566 30.6564 35.9067 27.9403C35.5596 25.2952 33.022 22.8949 30.4559 22.2427L22.7811 20.0286L22.2136 19.747C21.9597 19.5308 21.8003 19.252 21.8622 18.9063C22.4646 17.8808 23.8615 18.1923 24.9077 18.22C27.1267 18.5322 29.409 19.2797 30.7098 21.306C32.1031 21.306 33.7197 21.333 35.2403 21.2733C35.305 18.7193 35.2154 16.4775 35.1777 13.8908C33.751 13.8581 32.0064 13.8581 30.5818 13.9235C30.5178 14.2941 30.6429 14.8218 30.4843 15.1973L29.0271 14.4178C25.5378 12.9541 20.6546 12.8012 17.4854 15.0757C15.4235 16.5686 14.7913 19.2506 15.3304 21.6175C15.7407 23.8571 17.8964 25.51 19.9583 26.2867C22.7797 27.2824 25.727 28.0036 28.5854 28.968C28.8684 29.0946 29.2482 29.3769 29.1871 29.719C29.1885 29.9957 28.9012 30.1557 28.6807 30.2745Z" fill="#1478FA"/>
</svg>
