<svg width="174" height="175" viewBox="0 0 174 175" fill="none" xmlns="http://www.w3.org/2000/svg">
<path d="M40.2833 55.4671V40.033H0V55.4671H9.24193V88.4815H0V103.916H40.2833V88.4815H31.0414V55.4671H40.2833Z" fill="#1478FA"/>
<path d="M84.7384 64.545C82.2485 63.8207 69.4372 60.1539 67.2189 59.4295C65.0007 58.7052 63.1899 57.664 63.1899 56.3512C63.1899 55.0384 65.2271 53.635 69.3466 53.635C82.3391 53.635 88.5805 61.6478 88.5805 61.6478C88.5805 61.6478 89.2838 62.5847 89.5196 62.9208H102.055V41.0598H88.5979V45.037C87.5701 44.3272 79.9821 39.375 68.2149 39.375C52.6873 39.375 44.0408 47.433 44.0408 59.4748C44.0408 71.5166 54.9508 76.4963 57.9839 77.7638C61.017 79.0314 72.8777 82.3814 77.9479 83.9658C83.0181 85.5503 84.8742 86.682 84.8742 87.4969C84.8742 88.3117 82.656 90.4394 76.3182 90.4394C65.2785 90.4394 59.5933 83.9292 58.5956 82.6686V82.6588C58.2783 82.2336 57.906 81.7306 57.7796 81.5412C57.6333 81.3221 57.294 80.8357 57.0586 80.4996H44.5235V103.845H58.5956V98.9697C60.2329 100.059 68.6143 105.288 78.6722 105.288C89.8991 105.288 104.204 100.399 104.204 85.1428C104.204 69.8869 87.2282 65.2694 84.7384 64.545Z" fill="#1478FA"/>
<path d="M139.935 39.1602C121.219 39.1602 105.87 48.5177 105.87 72.4046C105.87 96.2915 122.533 105.239 140.017 105.239C157.501 105.239 174 96.3734 174 72.6512C174 48.9291 157.502 39.1602 139.935 39.1602ZM140.099 89.3142C133.696 89.3142 129.592 87.8365 129.592 72.3227C129.592 56.8086 132.63 55.1669 140.345 55.1669C145.024 55.1669 150.688 55.495 150.688 71.8302C150.688 88.1654 146.502 89.3142 140.099 89.3142Z" fill="#1478FA"/>
<path d="M26.8417 32.988C31.0489 26.7755 36.2227 21.2685 42.1538 16.6952C44.552 18.4683 47.1012 20.0766 49.7812 21.5101C45.2912 26.5151 41.2683 32.0601 40.6019 32.988H43.296C44.9131 30.8085 48.258 26.4242 51.785 22.5371C55.6402 24.4323 59.7373 25.9824 64.0123 27.163C62.8744 29.5772 62.0142 31.6882 61.5094 32.988H63.85C64.3878 31.6494 65.1759 29.7825 66.1591 27.7196C71.6125 29.052 77.3267 29.7988 83.1723 29.9125V32.9883H85.3452V29.923C91.1481 29.8806 96.8307 29.2193 102.265 27.9768C103.191 29.9364 103.937 31.7056 104.452 32.988H106.793C106.308 31.7396 105.496 29.7441 104.423 27.4484C108.775 26.3163 112.95 24.8068 116.882 22.9413C120.274 26.7252 123.445 30.8842 125.007 32.988H127.7C127.055 32.0887 123.24 26.8291 118.905 21.9403C121.886 20.4 124.711 18.6476 127.352 16.6952C133.283 21.2685 138.458 26.7755 142.664 32.988H145.278C132.426 13.1522 110.097 0 84.7527 0C59.4081 0 37.0796 13.1522 24.2273 32.988H26.8417ZM64.9818 25.1758C60.9154 24.0774 57.0139 22.6375 53.3358 20.8759C53.8356 20.3566 54.335 19.8535 54.8286 19.3773C59.8652 14.5204 68.1492 9.18725 69.9651 8.0392C71.4387 8.84863 73.0467 9.53311 74.7571 10.0763C73.4287 11.8183 70.8205 15.3544 67.9801 19.8398C66.8744 21.5854 65.8672 23.4201 64.9818 25.1758ZM83.1723 27.7388C77.6689 27.6287 72.2879 26.9435 67.1446 25.7238C67.9489 24.1513 68.8464 22.5332 69.8159 21.0027C73.0883 15.8358 76.0406 11.9563 77.0243 10.6942C78.9868 11.1552 81.0493 11.4468 83.1723 11.542V27.7388ZM85.3452 27.7497V11.5666C87.4396 11.5311 89.4887 11.3095 91.4498 10.9151C92.5739 12.3692 95.3872 16.1081 98.4869 21.0027C99.5067 22.6132 100.447 24.3204 101.283 25.9701C96.1582 27.1036 90.8084 27.7091 85.3452 27.7497ZM103.462 25.4554C102.543 23.6157 101.487 21.6781 100.322 19.8398C97.6286 15.5859 95.1427 12.1852 93.7603 10.3592C95.5795 9.84819 97.2968 9.18399 98.8737 8.38036C101.423 10.0144 108.827 14.8963 113.474 19.3773C114.09 19.9723 114.716 20.6079 115.34 21.2671C111.585 23.0007 107.605 24.4041 103.462 25.4554ZM125.533 15.3367C122.984 17.1768 120.26 18.8254 117.392 20.2747C116.59 19.415 115.782 18.5845 114.982 17.8131C110.636 13.6219 104.164 9.22491 100.994 7.16024C102.071 6.462 103.056 5.68988 103.934 4.84931C111.782 7.0918 119.069 10.6775 125.533 15.3367ZM84.7535 2.17295C90.4915 2.17295 96.0684 2.87301 101.408 4.1833C97.3559 7.47496 91.2835 9.40599 84.7535 9.40599C78.1937 9.40599 72.138 7.48112 68.0909 4.18511C73.4327 2.87373 79.0121 2.17295 84.7535 2.17295ZM65.5717 4.84931C66.2866 5.53451 67.0692 6.17553 67.9171 6.76658C65.0444 8.61504 57.9689 13.3307 53.3206 17.8128C52.6513 18.4582 51.9766 19.1455 51.3045 19.8561C48.7335 18.5099 46.2817 17.0023 43.9744 15.3367C50.4375 10.6775 57.7234 7.09216 65.5717 4.84931Z" fill="#1478FA"/>
<path d="M142.668 111.154C138.55 117.236 133.505 122.64 127.731 127.156C124.982 125.088 122.03 123.239 118.909 121.625C122.669 117.383 126.038 112.863 127.285 111.154H124.579C122.911 113.381 119.991 117.16 116.885 120.625C112.953 118.758 108.778 117.248 104.426 116.116C105.346 114.146 106.073 112.399 106.568 111.154H104.22C103.723 112.368 103.061 113.908 102.266 115.59C96.835 114.349 91.1531 113.688 85.3455 113.646V111.154H83.1725V113.656C77.3222 113.769 71.6084 114.515 66.1583 115.846C65.3094 114.065 64.6057 112.429 64.0831 111.154H61.7353C62.2535 112.459 63.0271 114.315 64.0107 116.402C59.7347 117.583 55.6361 119.131 51.7813 121.027C48.5422 117.456 45.4577 113.468 43.724 111.154H41.018C42.3065 112.919 45.8655 117.693 49.7811 122.057C46.961 123.568 44.2832 125.269 41.7752 127.155C36.001 122.64 30.9561 117.235 26.8387 111.153H24.229C37.0817 130.989 59.4095 144.141 84.7537 144.141C110.098 144.141 132.426 130.99 145.278 111.153L142.668 111.154ZM103.463 118.11C107.607 119.161 111.588 120.564 115.343 122.299C114.717 122.958 114.092 123.595 113.474 124.191C108.842 128.658 101.461 133.528 98.8928 135.175C97.3159 134.369 95.5964 133.704 93.7715 133.193C95.1564 131.364 97.6357 127.97 100.322 123.728C101.487 121.889 102.544 119.951 103.463 118.11ZM85.3451 115.819C90.8126 115.859 96.1624 116.463 101.284 117.595C100.448 119.246 99.5074 120.953 98.4864 122.565C95.3911 127.453 92.5821 131.188 91.4547 132.646C89.4991 132.257 87.45 132.037 85.3448 132.002V115.819H85.3451ZM83.1722 115.83V132.025C81.0412 132.119 78.9766 132.407 77.0166 132.865C76.0261 131.593 73.0832 127.725 69.8158 122.565C68.8455 121.034 67.9474 119.415 67.1427 117.841C72.2831 116.622 77.6641 115.939 83.1722 115.83ZM64.9806 118.39C65.8664 120.147 66.8743 121.982 67.98 123.728C70.8182 128.21 73.4247 131.744 74.7542 133.487C73.0411 134.03 71.435 134.715 69.9621 135.527C68.1393 134.374 59.8625 129.045 54.8289 124.191C54.3345 123.715 53.8351 123.211 53.3346 122.691C57.012 120.929 60.9132 119.489 64.9806 118.39ZM43.5806 128.518C46.0024 126.737 48.5846 125.132 51.3011 123.709C51.974 124.421 52.6501 125.109 53.3201 125.755C57.9674 130.236 65.0407 134.951 67.9144 136.8C66.8906 137.517 65.9573 138.305 65.128 139.16C57.2901 136.863 50.0198 133.227 43.5806 128.518ZM84.7534 141.969C78.8274 141.969 73.0719 141.225 67.5736 139.83C71.5885 136.302 77.964 134.162 84.7534 134.162C91.5344 134.162 97.916 136.303 101.931 139.83C96.4333 141.225 90.6786 141.969 84.7534 141.969ZM104.377 139.16C103.392 138.144 102.265 137.218 101.008 136.398C104.184 134.33 110.642 129.94 114.982 125.755C115.782 124.983 116.591 124.152 117.393 123.292C120.407 124.817 123.264 126.561 125.926 128.518C119.486 133.228 112.215 136.864 104.377 139.16Z" fill="#1478FA"/>
<path d="M4.14465 167.187C4.24134 168.985 4.93488 170.228 6.22597 170.915C6.88945 171.277 7.63731 171.458 8.46991 171.458C10.0261 171.458 11.3531 170.81 12.4511 169.513C13.5488 168.216 14.3271 165.583 14.7856 161.614C14.0616 162.76 13.166 163.565 12.0984 164.029C11.0307 164.494 9.88161 164.726 8.65099 164.726C6.15354 164.726 4.17797 163.949 2.72426 162.395C1.27019 160.84 0.543701 158.839 0.543701 156.393C0.543701 154.043 1.2615 151.976 2.6971 150.192C4.1327 148.408 6.25024 147.516 9.049 147.516C12.8249 147.516 15.431 149.216 16.8666 152.616C17.663 154.485 18.061 156.824 18.061 159.633C18.061 162.804 17.5844 165.613 16.6315 168.061C15.0507 172.136 12.3725 174.173 8.59667 174.173C6.063 174.173 4.13849 173.509 2.82385 172.182C1.50886 170.855 0.851174 169.19 0.851174 167.188H4.14465V167.187ZM12.6231 160.593C13.6908 159.744 14.2246 158.259 14.2246 156.139C14.2246 154.236 13.7451 152.818 12.7858 151.884C11.8268 150.951 10.6052 150.484 9.12144 150.484C7.52902 150.484 6.26509 151.017 5.32999 152.083C4.3949 153.149 3.92735 154.574 3.92735 156.356C3.92735 158.043 4.33732 159.383 5.15797 160.377C5.97826 161.37 7.2871 161.867 9.08486 161.867C10.376 161.867 11.5555 161.442 12.6231 160.593Z" fill="#1478FA"/>
<path d="M37.1348 151.697C38.293 153.832 38.8721 156.758 38.8721 160.474C38.8721 163.996 38.3473 166.91 37.2978 169.214C35.7778 172.52 33.292 174.173 29.842 174.173C26.7293 174.173 24.4129 172.822 22.8929 170.119C21.6261 167.863 20.9927 164.835 20.9927 161.035C20.9927 158.091 21.3729 155.564 22.1328 153.452C23.556 149.519 26.1321 147.553 29.8598 147.553C33.2137 147.553 35.6387 148.934 37.1348 151.697ZM33.8569 168.961C34.8597 167.465 35.3613 164.678 35.3613 160.6C35.3613 157.656 34.9984 155.234 34.2738 153.334C33.5487 151.434 32.1407 150.484 30.0503 150.484C28.1287 150.484 26.7238 151.386 25.8358 153.19C24.9474 154.994 24.5034 157.65 24.5034 161.161C24.5034 163.803 24.7874 165.927 25.3552 167.531C26.2251 169.981 27.7118 171.205 29.8141 171.205C31.5061 171.205 32.8534 170.457 33.8569 168.961Z" fill="#1478FA"/>
<path d="M57.7466 151.697C58.9048 153.832 59.4839 156.758 59.4839 160.474C59.4839 163.996 58.9591 166.91 57.9096 169.214C56.3896 172.52 53.9038 174.173 50.4538 174.173C47.3411 174.173 45.0247 172.822 43.5047 170.119C42.2379 167.863 41.6045 164.835 41.6045 161.035C41.6045 158.091 41.9848 155.564 42.7446 153.452C44.1679 149.519 46.7439 147.553 50.4716 147.553C53.8259 147.553 56.2506 148.934 57.7466 151.697ZM54.4687 168.961C55.4716 167.465 55.9731 164.678 55.9731 160.6C55.9731 157.656 55.6103 155.234 54.8856 153.334C54.1605 151.434 52.7525 150.484 50.6621 150.484C48.7405 150.484 47.3357 151.386 46.4476 153.19C45.5593 154.994 45.1153 157.65 45.1153 161.161C45.1153 163.803 45.3992 165.927 45.9671 167.531C46.837 169.981 48.3236 171.205 50.426 171.205C52.118 171.205 53.4652 170.457 54.4687 168.961Z" fill="#1478FA"/>
<path d="M64.6052 155.117V152.62C66.9578 152.39 68.5984 152.008 69.5273 151.47C70.4563 150.934 71.1498 149.664 71.6087 147.661H74.1782V173.467H70.7036V155.117L64.6052 155.117Z" fill="#1478FA"/>
<path d="M85.7783 154.339H89.5607V158.284H85.7783V154.339ZM85.7783 169.522H89.5607V173.467H85.7783V169.522Z" fill="#1478FA"/>
<path d="M94.5097 167.64C95.3118 165.987 96.8771 164.485 99.2058 163.134L102.68 161.125C104.237 160.22 105.328 159.447 105.956 158.807C106.945 157.803 107.44 156.655 107.44 155.362C107.44 153.851 106.987 152.651 106.083 151.763C105.178 150.874 103.971 150.43 102.463 150.43C100.231 150.43 98.6872 151.277 97.8307 152.971C97.3722 153.879 97.1187 155.137 97.0705 156.746H93.7589C93.7951 154.49 94.2112 152.65 95.0073 151.227C96.4186 148.717 98.9099 147.462 102.481 147.462C105.449 147.462 107.618 148.265 108.987 149.869C110.356 151.474 111.041 153.259 111.041 155.226C111.041 157.301 110.311 159.075 108.852 160.546C108.007 161.403 106.492 162.44 104.309 163.659L101.83 165.034C100.647 165.686 99.7186 166.307 99.0432 166.898C97.8364 167.948 97.0763 169.112 96.7626 170.391H110.914V173.467H93.1255C93.2457 171.235 93.7075 169.293 94.5097 167.64Z" fill="#1478FA"/>
<path d="M129.88 151.697C131.038 153.832 131.617 156.758 131.617 160.474C131.617 163.996 131.092 166.91 130.043 169.214C128.523 172.52 126.037 174.173 122.587 174.173C119.474 174.173 117.158 172.822 115.638 170.119C114.371 167.863 113.738 164.835 113.738 161.035C113.738 158.091 114.118 155.564 114.878 153.452C116.301 149.519 118.877 147.553 122.605 147.553C125.958 147.553 128.383 148.934 129.88 151.697ZM126.602 168.961C127.605 167.465 128.106 164.678 128.106 160.6C128.106 157.656 127.743 155.234 127.018 153.334C126.293 151.434 124.885 150.484 122.795 150.484C120.873 150.484 119.469 151.386 118.581 153.19C117.692 154.994 117.248 157.65 117.248 161.161C117.248 163.803 117.532 165.927 118.1 167.531C118.97 169.981 120.457 171.205 122.559 171.205C124.251 171.205 125.598 170.457 126.602 168.961Z" fill="#1478FA"/>
<path d="M136.738 155.117V152.62C139.091 152.39 140.731 152.008 141.66 151.47C142.589 150.934 143.283 149.664 143.741 147.661H146.311V173.467H142.836V155.117L136.738 155.117Z" fill="#1478FA"/>
<path d="M158.381 166.862C158.599 168.72 159.461 170.005 160.969 170.717C161.742 171.078 162.635 171.26 163.648 171.26C165.578 171.26 167.008 170.644 167.937 169.413C168.866 168.183 169.331 166.82 169.331 165.324C169.331 163.514 168.779 162.115 167.675 161.125C166.571 160.136 165.247 159.641 163.703 159.641C162.58 159.641 161.618 159.858 160.816 160.293C160.014 160.727 159.329 161.33 158.762 162.102L155.939 161.939L157.912 147.987H171.375V151.136H160.354L159.25 158.338C159.854 157.88 160.427 157.536 160.969 157.307C161.935 156.909 163.051 156.71 164.317 156.71C166.694 156.71 168.709 157.476 170.361 159.008C172.014 160.54 172.841 162.483 172.841 164.835C172.841 167.284 172.083 169.444 170.57 171.314C169.055 173.184 166.639 174.119 163.322 174.119C161.21 174.119 159.343 173.524 157.721 172.336C156.098 171.148 155.19 169.323 154.997 166.862L158.381 166.862Z" fill="#1478FA"/>
</svg>
