<svg width="24" height="26" viewBox="0 0 24 26" fill="none" xmlns="http://www.w3.org/2000/svg">
<path fill-rule="evenodd" clip-rule="evenodd" d="M2.82598 2.82598C-0.941993 6.59393 -0.941993 12.703 2.82598 16.4709C6.59393 20.239 12.703 20.239 16.4709 16.4709C20.239 12.703 20.239 6.59393 16.4709 2.82598C12.703 -0.941993 6.59393 -0.941993 2.82598 2.82598ZM14.1968 14.1968C11.6848 16.7088 7.61212 16.7088 5.10014 14.1968C2.58816 11.6848 2.58816 7.61212 5.10014 5.10014C7.61212 2.58816 11.6848 2.58816 14.1968 5.10014C16.7087 7.61212 16.7087 11.6848 14.1968 14.1968Z" fill="#D2D6E7"/>
<path d="M14.1967 18.745C13.2549 17.803 13.2549 16.2758 14.1967 15.3338C15.1388 14.3918 16.6661 14.3918 17.6081 15.3338L23.2935 21.0192C24.2355 21.9612 24.2355 23.4884 23.2935 24.4304C22.3515 25.3724 20.8243 25.3724 19.8823 24.4304L14.1967 18.745Z" fill="#D2D6E7"/>
<path d="M6.65111 11.4063C5.763 11.4063 5.04303 10.6863 5.04303 9.79814C5.04303 8.91003 5.763 8.19006 6.65111 8.19006H13.0835C13.9715 8.19006 14.6916 8.91003 14.6916 9.79814C14.6916 10.6863 13.9715 11.4063 13.0835 11.4063H6.65111Z" fill="#D2D6E7"/>
<path d="M8.25916 6.58199C8.25916 5.69388 8.97912 4.97391 9.86723 4.97391C10.7554 4.97391 11.4754 5.69388 11.4754 6.58199V13.0143C11.4754 13.9025 10.7554 14.6224 9.86723 14.6224C8.97912 14.6224 8.25916 13.9025 8.25916 13.0143V6.58199Z" fill="#D2D6E7"/>
</svg>
